<?xml version="1.0" encoding="UTF-8"?>
<svg xmlns="http://www.w3.org/2000/svg" width="183" height="34" viewBox="0 0 183 34" fill="none">
  <path d="M65.4045 21.7371L61.5732 11.2335L57.7419 21.7371H65.4045ZM67.8884 28.5718L66.5734 24.9677H56.573L55.258 28.5718C55.0524 29.1779 54.7331 29.6324 54.3002 29.9355C53.8781 30.2385 53.4127 30.39 52.904 30.39C52.2655 30.39 51.7081 30.179 51.2319 29.7569C50.7557 29.3348 50.5176 28.7936 50.5176 28.1334C50.5176 27.8088 50.5825 27.4733 50.7124 27.1269L57.3523 10.1295C57.8609 8.74418 58.4508 7.808 59.1218 7.32097C59.8036 6.82312 60.6208 6.57419 61.5732 6.57419C62.5256 6.57419 63.3373 6.82312 64.0084 7.32097C64.6902 7.808 65.2909 8.74418 65.8104 10.1295L72.4502 27.1269C72.5693 27.4733 72.6288 27.8034 72.6288 28.1172C72.6288 28.7882 72.3907 29.3348 71.9145 29.7569C71.4383 30.179 70.8863 30.39 70.2586 30.39C70.0746 30.39 69.8852 30.3684 69.6904 30.3251C68.8246 30.1195 68.2239 29.535 67.8884 28.5718Z" fill="white"></path>
  <path d="M79.4365 30.3413C78.733 30.3413 78.1756 30.114 77.7643 29.6595C77.3639 29.1941 77.1637 28.5339 77.1637 27.6789V16.8668H75.7675C74.6852 16.8451 74.1441 16.3798 74.1441 15.4706C74.1441 15.2109 74.1874 14.9836 74.2739 14.7888C74.3713 14.5832 74.5337 14.4154 74.761 14.2855C74.9883 14.1448 75.2805 14.0745 75.6376 14.0745C75.6376 14.0745 75.6485 14.0745 75.6701 14.0745H77.1637V12.6946C77.1637 10.5733 77.6507 9.03099 78.6248 8.06775C79.5988 7.10451 81.0545 6.62289 82.9918 6.62289H84.9075C85.3404 6.62289 85.6867 6.80147 85.9465 7.15863C86.2062 7.50496 86.3361 7.90541 86.3361 8.35997C86.3361 8.81453 86.2116 9.19875 85.9627 9.51261C85.7138 9.82648 85.362 9.98341 84.9075 9.98341H83.7224C82.9215 9.98341 82.3803 10.189 82.0989 10.6003C81.8283 11.0008 81.6931 11.872 81.6931 13.2141V14.0745H83.7224C84.1986 14.0745 84.5665 14.1989 84.8263 14.4479C85.0969 14.686 85.2322 15.0269 85.2322 15.4706C85.2322 16.4014 84.6964 16.8668 83.6249 16.8668H81.6931V27.6789C81.6931 28.5339 81.4928 29.1941 81.0924 29.6595C80.7028 30.114 80.1508 30.3413 79.4365 30.3413Z" fill="white"></path>
  <path d="M90.319 30.3413C89.6155 30.3413 89.0635 30.114 88.6631 29.6595C88.2734 29.2049 88.0786 28.5501 88.0786 27.6951V16.1849C88.0786 15.5031 88.3005 14.9782 88.7442 14.6102C89.188 14.2314 89.7129 14.042 90.319 14.042C90.9359 14.042 91.4716 14.2314 91.9262 14.6102C92.3807 14.9782 92.6026 15.4869 92.5918 16.1362L92.5756 17.435C92.8786 16.4826 93.4143 15.6546 94.1828 14.9511C94.9512 14.2476 95.8387 13.8959 96.8452 13.8959C97.4188 13.8959 97.8571 14.0745 98.1602 14.4316C98.474 14.7888 98.631 15.2217 98.631 15.7304C98.631 16.2282 98.4795 16.6666 98.1764 17.0454C97.8842 17.4242 97.4892 17.6136 96.9913 17.6136C96.396 17.6136 95.8495 17.6731 95.3516 17.7921C94.8646 17.9112 94.4046 18.106 93.9717 18.3766C93.5388 18.6363 93.1979 19.0205 92.9489 19.5292C92.7108 20.0271 92.5918 20.6278 92.5918 21.3312V27.7763C92.5918 28.6205 92.397 29.259 92.0073 29.692C91.6177 30.1249 91.0549 30.3413 90.319 30.3413Z" fill="white"></path>
  <path d="M103.669 30.3413C102.933 30.3413 102.37 30.114 101.981 29.6595C101.591 29.2049 101.396 28.5393 101.396 27.6627V16.7207C101.396 15.8548 101.586 15.1946 101.964 14.7401C102.354 14.2747 102.901 14.042 103.604 14.042C104.34 14.042 104.908 14.2747 105.309 14.7401C105.72 15.1946 105.926 15.8548 105.926 16.7207V27.6627C105.926 28.5285 105.731 29.1941 105.341 29.6595C104.962 30.114 104.405 30.3413 103.669 30.3413ZM103.653 10.7789C102.884 10.7789 102.268 10.5624 101.802 10.1295C101.337 9.6966 101.104 9.1284 101.104 8.42491C101.104 7.72142 101.337 7.15321 101.802 6.7203C102.278 6.27656 102.901 6.05469 103.669 6.05469C104.427 6.05469 105.038 6.27656 105.504 6.7203C105.98 7.15321 106.218 7.72142 106.218 8.42491C106.218 9.1284 105.98 9.6966 105.504 10.1295C105.038 10.5624 104.421 10.7789 103.653 10.7789Z" fill="white"></path>
  <path d="M121.208 30.8284C119.606 30.8284 118.112 30.547 116.727 29.9842C115.342 29.4214 114.14 28.6313 113.123 27.614C112.106 26.5858 111.305 25.3033 110.72 23.7664C110.147 22.2295 109.86 20.5358 109.86 18.685C109.86 16.7802 110.157 15.0431 110.753 13.4738C111.348 11.9045 112.165 10.5949 113.204 9.54508C114.254 8.49526 115.493 7.68354 116.922 7.10992C118.361 6.53631 119.92 6.2495 121.597 6.2495C123.892 6.2495 125.991 6.75818 127.896 7.77553C128.167 7.92705 128.389 8.11104 128.562 8.3275C128.746 8.53314 128.876 8.74418 128.951 8.96064C129.038 9.1771 129.081 9.40438 129.081 9.64249C129.081 10.1728 128.897 10.6436 128.529 11.0549C128.161 11.4553 127.707 11.6556 127.166 11.6556C127.047 11.6556 126.917 11.6447 126.776 11.6231C126.646 11.5906 126.516 11.5473 126.386 11.4932C126.332 11.4716 126.154 11.4012 125.851 11.2822C125.558 11.1523 125.342 11.0603 125.201 11.0062C125.061 10.9521 124.833 10.8763 124.519 10.7789C124.206 10.6707 123.93 10.5949 123.692 10.5516C123.453 10.4975 123.167 10.4488 122.831 10.4055C122.506 10.3622 122.182 10.3406 121.857 10.3406C117.474 10.3406 115.282 13.0842 115.282 18.5714C115.282 21.2014 115.84 23.2198 116.954 24.6268C118.069 26.0338 119.692 26.7373 121.825 26.7373C123.448 26.7373 125.153 26.2611 126.938 25.3087C127.047 25.2546 127.16 25.2113 127.279 25.1788C127.398 25.1463 127.512 25.1301 127.62 25.1301C127.923 25.1301 128.205 25.2221 128.464 25.4061C128.724 25.5792 128.93 25.8119 129.081 26.1042C129.233 26.3964 129.309 26.7048 129.309 27.0295C129.309 27.7438 128.968 28.3445 128.286 28.8315C126.37 30.1628 124.011 30.8284 121.208 30.8284Z" fill="white"></path>
  <path d="M131.895 25.8931C131.895 25.1571 131.977 24.524 132.139 23.9937C132.301 23.4525 132.572 22.9926 132.951 22.6138C133.329 22.2241 133.773 21.9103 134.282 21.6722C134.801 21.4341 135.467 21.2447 136.279 21.104C137.101 20.9633 137.967 20.8713 138.876 20.828C139.785 20.7739 140.889 20.7468 142.188 20.7468V19.5779C142.188 17.7164 141.268 16.7856 139.428 16.7856C138.833 16.7856 138.2 16.8614 137.529 17.0129C136.858 17.1644 136.36 17.2997 136.035 17.4188C135.71 17.527 135.272 17.6947 134.72 17.922C134.666 17.9437 134.607 17.9653 134.542 17.987C134.487 17.9978 134.433 18.0086 134.379 18.0194C134.325 18.0194 134.271 18.0194 134.217 18.0194C133.816 18.0194 133.476 17.8463 133.194 17.4999C132.913 17.1536 132.772 16.7694 132.772 16.3473C132.772 16.0767 132.837 15.8332 132.967 15.6167C133.097 15.3895 133.297 15.2109 133.568 15.081C135.364 14.226 137.393 13.7985 139.655 13.7985C140.684 13.7985 141.598 13.9175 142.399 14.1556C143.211 14.3829 143.925 14.7455 144.542 15.2433C145.17 15.7412 145.651 16.4176 145.987 17.2726C146.322 18.1168 146.49 19.1234 146.49 20.2922V28.101C146.49 28.8153 146.284 29.3727 145.873 29.7731C145.462 30.1627 144.98 30.3576 144.428 30.3576C144.071 30.3576 143.73 30.271 143.406 30.0978C142.691 29.7082 142.334 29.0372 142.334 28.0847V27.6302C141.966 28.5718 141.349 29.2915 140.483 29.7894C139.628 30.2872 138.616 30.5361 137.448 30.5361C135.835 30.5361 134.504 30.1195 133.454 29.2861C132.415 28.4527 131.895 27.3217 131.895 25.8931ZM138.194 27.8575C138.681 27.8575 139.158 27.7546 139.623 27.549C140.099 27.3326 140.527 27.0403 140.905 26.6724C141.284 26.2936 141.587 25.8282 141.815 25.2762C142.053 24.7134 142.172 24.1181 142.172 23.4904V22.9547C141.468 22.9547 140.878 22.9601 140.402 22.9709C139.937 22.9817 139.461 23.0088 138.974 23.0521C138.497 23.0954 138.108 23.1549 137.805 23.2307C137.512 23.3064 137.231 23.4092 136.96 23.5391C136.69 23.6582 136.479 23.8097 136.327 23.9937C136.187 24.1777 136.073 24.3995 135.986 24.6593C135.911 24.9082 135.873 25.2004 135.873 25.5359C135.873 26.2611 136.078 26.8293 136.49 27.2406C136.912 27.6518 137.48 27.8575 138.194 27.8575Z" fill="white"></path>
  <path d="M150.879 28.653C150.673 28.5123 150.516 28.3445 150.408 28.1497C150.311 27.944 150.262 27.7276 150.262 27.5003C150.262 27.3163 150.294 27.1377 150.359 26.9646C150.435 26.7914 150.532 26.6345 150.652 26.4938C150.771 26.3531 150.922 26.2449 151.106 26.1691C151.29 26.0825 151.479 26.0392 151.674 26.0392C151.967 26.0392 152.259 26.1204 152.551 26.2827C152.573 26.2936 152.67 26.3531 152.843 26.4613C153.027 26.5587 153.152 26.6237 153.217 26.6561C153.282 26.6886 153.406 26.7535 153.59 26.8509C153.785 26.9375 153.936 27.0025 154.045 27.0457C154.164 27.089 154.321 27.1486 154.515 27.2243C154.71 27.3001 154.889 27.3596 155.051 27.4029C155.224 27.4354 155.414 27.4733 155.619 27.5165C155.836 27.5598 156.058 27.5923 156.285 27.614C156.512 27.6248 156.739 27.6302 156.967 27.6302C157.378 27.6302 157.762 27.6031 158.119 27.549C158.487 27.4841 158.834 27.3813 159.158 27.2406C159.483 27.0999 159.737 26.8996 159.921 26.6399C160.116 26.3693 160.214 26.0554 160.214 25.6983C160.214 25.3087 160.035 24.9623 159.678 24.6593C159.332 24.3563 158.807 24.1127 158.103 23.9287L155.684 23.2956C155.111 23.1333 154.634 22.998 154.256 22.8897C153.888 22.7707 153.493 22.63 153.07 22.4677C152.648 22.2945 152.307 22.1267 152.048 21.9644C151.788 21.7912 151.528 21.5856 151.268 21.3475C151.02 21.1094 150.825 20.855 150.684 20.5845C150.554 20.3031 150.446 19.9784 150.359 19.6104C150.273 19.2424 150.229 18.8311 150.229 18.3766C150.229 17.6406 150.386 16.9804 150.7 16.396C151.025 15.8007 151.479 15.3083 152.064 14.9187C152.648 14.529 153.341 14.2314 154.142 14.0258C154.943 13.8201 155.83 13.7173 156.804 13.7173C158.612 13.7173 160.371 14.1178 162.081 14.9187C162.405 15.0702 162.643 15.2758 162.795 15.5356C162.957 15.7845 163.038 16.0497 163.038 16.3311C163.038 16.6882 162.919 17.0021 162.681 17.2726C162.443 17.5324 162.129 17.6623 161.74 17.6623C161.631 17.6623 161.518 17.6514 161.399 17.6298C161.29 17.6082 161.177 17.5757 161.058 17.5324C161.025 17.5216 160.971 17.4999 160.895 17.4675C159.38 16.9371 158.092 16.672 157.032 16.672C156.566 16.672 156.133 16.7153 155.733 16.8019C155.343 16.8884 155.002 17.0508 154.71 17.2889C154.429 17.5162 154.288 17.803 154.288 18.1493C154.288 18.6255 154.44 18.9827 154.743 19.2208C155.046 19.4481 155.598 19.6591 156.399 19.8539L158.801 20.4546C159.689 20.6819 160.435 20.9308 161.042 21.2014C161.658 21.4611 162.194 21.7858 162.649 22.1754C163.114 22.5542 163.455 23.0088 163.672 23.5391C163.888 24.0694 163.996 24.6863 163.996 25.3898C163.996 26.5154 163.704 27.4733 163.12 28.2633C162.535 29.0534 161.75 29.6378 160.766 30.0166C159.791 30.3846 158.666 30.5686 157.389 30.5686C154.867 30.5686 152.697 29.9301 150.879 28.653Z" fill="white"></path>
  <path d="M182.963 19.9189L182.947 27.6951C182.947 28.5501 182.752 29.2049 182.363 29.6595C181.973 30.114 181.41 30.3413 180.674 30.3413C179.971 30.3413 179.419 30.114 179.018 29.6595C178.629 29.2049 178.434 28.5501 178.434 27.6951V20.0487C178.434 18.9881 178.163 18.1764 177.622 17.6136C177.092 17.04 176.405 16.7531 175.561 16.7531C174.543 16.7531 173.667 17.1482 172.931 17.9383C172.195 18.7175 171.827 19.7349 171.827 20.9903V27.6951C171.827 28.5501 171.626 29.2049 171.226 29.6595C170.836 30.114 170.274 30.3413 169.538 30.3413C168.834 30.3413 168.282 30.114 167.882 29.6595C167.492 29.2049 167.297 28.5501 167.297 27.6951V9.49638C167.297 8.65219 167.487 8.00281 167.865 7.54825C168.255 7.09369 168.802 6.86641 169.505 6.86641C170.241 6.86641 170.809 7.09369 171.21 7.54825C171.61 8.00281 171.81 8.65219 171.81 9.49638V16.3311C172.319 15.5085 173.017 14.8754 173.905 14.4316C174.792 13.9879 175.847 13.766 177.07 13.766C177.882 13.766 178.634 13.8905 179.327 14.1394C180.02 14.3775 180.642 14.7401 181.194 15.2271C181.746 15.7033 182.179 16.3473 182.493 17.159C182.806 17.9599 182.963 18.8799 182.963 19.9189Z" fill="white"></path>
  <path d="M26.9166 8.47838H29.7499C29.7486 7.35165 29.3004 6.27144 28.5037 5.47472C27.7069 4.678 26.6267 4.22983 25.5 4.22852V7.06176C25.8756 7.06218 26.2357 7.21157 26.5012 7.47714C26.7668 7.74272 26.9162 8.1028 26.9166 8.47838Z" fill="white"></path>
  <path d="M25.5 0V2.83324C27.0023 2.83493 28.4426 3.43247 29.5049 4.49478C30.5673 5.55709 31.1648 6.9974 31.1665 8.49973H33.9997C33.9972 6.24622 33.1009 4.08573 31.5075 2.49226C29.914 0.898786 27.7535 0.00248413 25.5 0V0Z" fill="white"></path>
  <path d="M29.7503 17.002H22.6672C21.9158 17.002 21.1952 17.3005 20.6638 17.8318C20.1325 18.3631 19.834 19.0838 19.834 19.8352V22.6684C19.834 23.4199 20.1325 24.1405 20.6638 24.6718C21.1952 25.2032 21.9158 25.5017 22.6672 25.5017H29.7503C30.126 25.5017 30.4864 25.3524 30.752 25.0868C31.0177 24.8211 31.167 24.4608 31.167 24.0851V18.4186C31.167 18.0429 31.0177 17.6825 30.752 17.4169C30.4864 17.1512 30.126 17.002 29.7503 17.002Z" fill="white"></path>
  <path d="M18.4161 22.6672V19.8339C18.4174 18.7072 18.8656 17.627 19.6623 16.8303C20.459 16.0336 21.5392 15.5854 22.6659 15.5841H28.3324V14.1675C28.3307 12.6651 27.7332 11.2248 26.6709 10.1625C25.6086 9.10021 24.1683 8.50266 22.6659 8.50098H1.41662C1.04091 8.50098 0.680587 8.65023 0.414919 8.9159C0.149251 9.18156 0 9.54189 0 9.9176L0 32.5835C0 32.9592 0.149251 33.3196 0.414919 33.5852C0.680587 33.8509 1.04091 34.0002 1.41662 34.0002H22.6659C24.1683 33.9985 25.6086 33.4009 26.6709 32.3386C27.7332 31.2763 28.3307 29.836 28.3324 28.3337V26.9171H22.6659C21.5392 26.9157 20.459 26.4676 19.6623 25.6708C18.8656 24.8741 18.4174 23.7939 18.4161 22.6672ZM14.1662 18.4173H9.20804C9.02018 18.4173 8.84002 18.492 8.70719 18.6248C8.57435 18.7576 8.49973 18.9378 8.49973 19.1256C8.49973 19.3135 8.57435 19.4937 8.70719 19.6265C8.84002 19.7593 9.02018 19.8339 9.20804 19.8339H10.6247C11.5029 19.8331 12.3502 20.1586 13.002 20.7472C13.6538 21.3359 14.0636 22.1458 14.1518 23.0196C14.2401 23.8934 14.0005 24.7689 13.4796 25.476C12.9587 26.1831 12.1937 26.6715 11.333 26.8462V28.3337H8.49973V26.9171H5.66649V24.0838H10.6247C10.8125 24.0838 10.9927 24.0092 11.1255 23.8764C11.2583 23.7435 11.333 23.5634 11.333 23.3755C11.333 23.1876 11.2583 23.0075 11.1255 22.8746C10.9927 22.7418 10.8125 22.6672 10.6247 22.6672H9.20804C8.32977 22.6681 7.4825 22.3426 6.83071 21.7539C6.17893 21.1652 5.76912 20.3554 5.68086 19.4816C5.59259 18.6077 5.83216 17.7323 6.35306 17.0252C6.87396 16.318 7.63902 15.8297 8.49973 15.6549V14.1675H11.333V15.5841H14.1662V18.4173Z" fill="white"></path>
  <rect x="2.80664" y="12.875" width="13.6986" height="17.8247" fill="white"></rect>
</svg>
