<?xml version="1.0" encoding="UTF-8"?>
<svg xmlns="http://www.w3.org/2000/svg" width="169" height="35" viewBox="0 0 169 35" fill="none">
  <path d="M97.8143 25.9333C97.8143 26.2047 97.8143 26.3826 97.8143 26.5605C97.8144 28.6146 97.8178 30.6689 97.8108 32.723C97.8099 33.0139 97.8002 33.3162 97.7228 33.5931C97.5178 34.3256 96.832 34.7627 96.0143 34.7263C95.2833 34.6938 94.6692 34.1684 94.5252 33.4358C94.4868 33.2406 94.4748 33.0374 94.4748 32.8379C94.4725 24.6367 94.4719 16.4356 94.4738 8.23457C94.474 6.99836 95.1684 6.28194 96.2899 6.34351C97.05 6.38531 97.688 6.98105 97.7755 7.74408C97.8035 7.98862 97.813 8.23657 97.8131 8.48298C97.8153 12.4059 97.8147 16.3289 97.8147 20.2518C97.8147 20.4303 97.8147 20.6088 97.8147 20.9292C98.048 20.7453 98.1771 20.6538 98.2946 20.5492C101.061 18.0869 103.823 15.6189 106.599 13.1663C106.879 12.9184 107.218 12.6809 107.57 12.5806C108.336 12.3622 109.085 12.7367 109.441 13.4203C109.796 14.1023 109.66 14.8902 109.049 15.4398C107.432 16.8958 105.804 18.3395 104.179 19.7867C102.945 20.885 101.711 21.9829 100.473 23.0763C100.36 23.1765 100.216 23.2422 100.028 23.3607C100.76 24.0209 101.373 24.5768 101.99 25.1286C104.439 27.3206 106.876 29.528 109.348 31.6941C110.278 32.5089 110.175 33.7965 109.404 34.3926C108.746 34.9006 107.847 34.8485 107.163 34.2376C105.056 32.3562 102.954 30.4705 100.85 28.5865C99.9646 27.7939 99.0794 27.001 98.1922 26.2105C98.1042 26.1322 98.002 26.0701 97.8143 25.9333Z" fill="white"></path>
  <path d="M90.9751 24.8695C90.9751 27.6031 90.9794 30.3367 90.9725 33.0703C90.9705 33.8848 90.465 34.5005 89.6964 34.6725C88.9647 34.8363 88.1941 34.4982 87.8886 33.7967C87.7467 33.471 87.7095 33.0785 87.7087 32.7161C87.6972 27.6969 87.7005 22.6775 87.6996 17.6581C87.6992 14.4947 85.5679 12.1791 82.4216 12.0952C79.3671 12.0138 77.1403 14.4154 77.0471 16.9682C76.9369 19.9909 76.9965 23.02 76.988 26.0464C76.986 26.751 76.6795 27.272 76.0533 27.5706C75.4424 27.8621 74.8489 27.7739 74.3174 27.3484C73.9332 27.0409 73.7306 26.6282 73.7296 26.1423C73.7236 23.0844 73.664 20.0248 73.7461 16.969C73.8377 13.5612 76.178 10.4922 79.4155 9.32031C82.6934 8.13379 86.313 9.01456 88.6973 11.6053C90.2024 13.2406 90.9704 15.1808 90.9749 17.41C90.9801 19.8965 90.9763 22.3831 90.9751 24.8695Z" fill="white"></path>
  <path d="M83.9867 22.1075C83.9867 23.6047 84.0388 25.1042 83.9767 26.5988C83.8056 30.7179 80.439 34.2443 76.338 34.6581C71.3123 35.1651 66.9908 31.5377 66.7765 26.5022C66.6487 23.4976 66.7154 20.4841 66.7265 17.4745C66.7302 16.4438 67.4667 15.7446 68.4103 15.7646C69.3545 15.7847 70.0055 16.5049 70.0067 17.5464C70.0096 20.3716 70.0008 23.1968 70.0097 26.0221C70.0179 28.589 71.7252 30.7466 74.1673 31.3017C77.5366 32.0676 80.7087 29.5416 80.7125 26.0859C80.7156 23.2761 80.7163 20.4663 80.7106 17.6566C80.7094 17.0737 80.838 16.5457 81.3026 16.1631C81.8228 15.7347 82.4227 15.6269 83.0352 15.9189C83.6533 16.2136 84.0012 16.7268 84.0038 17.4296C84.0096 18.9888 84.0056 20.5481 84.0056 22.1074C83.9994 22.1074 83.993 22.1075 83.9867 22.1075Z" fill="white"></path>
  <path d="M54.761 15.6349C54.761 18.0891 54.711 20.5446 54.7723 22.9972C54.8723 26.9927 58.3006 30.7489 62.2649 31.2836C62.7986 31.3557 63.339 31.3782 63.8759 31.4278C64.7837 31.5118 65.4488 32.2519 65.4146 33.136C65.3797 34.0359 64.6816 34.7083 63.7623 34.7275C58.1408 34.8447 52.9773 30.7696 51.7294 25.187C51.536 24.322 51.4407 23.4178 51.4355 22.531C51.4077 17.6987 51.4205 12.8663 51.4235 8.0339C51.4242 6.87422 52.4087 6.09988 53.5069 6.38268C54.2561 6.57553 54.727 7.22083 54.7284 8.08535C54.7324 10.6019 54.7298 13.1185 54.7298 15.6351C54.7401 15.6349 54.7505 15.6349 54.761 15.6349Z" fill="white"></path>
  <path d="M68.3999 8.82033C69.6121 8.82468 70.6143 9.81978 70.6249 11.0296C70.6355 12.2344 69.589 13.2822 68.3791 13.2785C67.1515 13.2746 66.1443 12.2615 66.1465 11.0326C66.1487 9.80059 67.1517 8.81585 68.3999 8.82033Z" fill="white"></path>
  <path d="M0.674265 32.3793C0.22452 31.9462 0 31.4257 0 30.8176V2.66258C0 2.03953 0.22452 1.51525 0.674265 1.08953C1.12366 0.664271 1.66594 0.451172 2.30171 0.451172H11.6712C15.5615 0.451172 18.4368 1.16182 20.2968 2.58275C22.1568 4.00404 23.0868 5.99882 23.0868 8.56719C23.0868 10.5129 22.5092 12.1693 21.3547 13.5371C20.1998 14.905 18.545 15.7257 16.3909 15.9993V16.0904C18.9171 16.364 20.8973 17.1962 22.3311 18.5869C23.7646 19.9775 24.4817 21.8811 24.4817 24.2977C24.4817 25.4376 24.2492 26.5204 23.7842 27.5463C23.3192 28.5723 22.641 29.4994 21.7499 30.3276C20.8584 31.1562 19.6691 31.8134 18.1811 32.2996C16.6931 32.7862 15.0036 33.0291 13.1128 33.0291H2.30182C1.66606 33.029 1.12366 32.8125 0.674265 32.3793ZM10.9971 14.4945C13.6163 14.4945 15.5267 14.0539 16.7281 13.1723C17.9291 12.291 18.5299 10.8469 18.5299 8.84069C18.5299 8.01996 18.402 7.3132 18.1463 6.72053C17.8906 6.12785 17.561 5.65691 17.1581 5.30713C16.7549 4.95769 16.2358 4.68408 15.6004 4.4864C14.9647 4.28908 14.3333 4.1558 13.7056 4.0874C13.0778 4.01899 12.3375 3.98473 11.4853 3.98473H4.64992V14.4945H10.9971ZM12.1596 29.4497C14.7788 29.4497 16.6737 29.0507 17.8441 28.253C19.0142 27.4551 19.5995 25.9468 19.5995 23.7275C19.5995 21.5389 18.8707 20.0422 17.4141 19.2364C15.957 18.431 13.6476 18.0281 10.4857 18.0281H4.64992V29.4496H12.1596V29.4497Z" fill="white"></path>
  <path d="M32.6088 32.0266C30.8884 31.0997 29.5203 29.7354 28.5053 27.9344C27.49 26.1333 26.9824 24.0324 26.9824 21.6308C26.9824 19.5185 27.4086 17.5882 28.2611 15.8402C29.1134 14.0926 30.4 12.6712 32.1206 11.577C33.841 10.4828 35.8482 9.93555 38.1422 9.93555C39.9557 9.93555 41.5443 10.232 42.9083 10.8247C44.2721 11.4175 45.3572 12.2347 46.1632 13.2754C46.969 14.3167 47.5735 15.4793 47.9767 16.7634C48.3796 18.0479 48.6045 19.4574 48.651 20.9923C48.651 21.4334 48.5266 21.7981 48.2789 22.0867C48.0308 22.3756 47.6588 22.5198 47.1629 22.5198H31.2138C31.2446 25.1341 31.9578 27.1136 33.3527 28.4586C34.7477 29.8037 36.5379 30.4915 38.7234 30.5218C40.1027 30.5218 41.3426 30.2789 42.4433 29.7923C43.5436 29.306 44.652 28.6448 45.768 27.8088C46.047 27.5961 46.3412 27.4896 46.6515 27.4896C47.0235 27.4896 47.3373 27.6303 47.5931 27.9113C47.8488 28.1929 47.9767 28.5233 47.9767 28.9031C47.9767 29.3897 47.7595 29.8229 47.3257 30.2026C44.8765 32.3609 41.9162 33.4398 38.4444 33.4398C36.2743 33.4247 34.3293 32.9538 32.6088 32.0266ZM44.9775 19.9894C44.838 17.8618 44.2256 16.1215 43.1408 14.7688C42.0557 13.4162 40.4671 12.7397 38.3746 12.7397C37.2895 12.7397 36.3054 12.945 35.422 13.3553C34.5385 13.7657 33.8137 14.3167 33.2481 15.0081C32.6821 15.6999 32.2327 16.4672 31.8996 17.3108C31.5661 18.1543 31.3608 19.0474 31.2835 19.9895H44.9775V19.9894Z" fill="white"></path>
  <path d="M117.195 33.1634C115.474 32.2364 114.106 30.8721 113.091 29.0711C112.076 27.27 111.568 25.1691 111.568 22.7675C111.568 20.6553 111.994 18.7249 112.847 16.9769C113.699 15.2293 114.986 13.8079 116.706 12.7137C118.427 11.6195 120.434 11.0723 122.728 11.0723C124.542 11.0723 126.13 11.3687 127.494 11.9614C128.858 12.5542 129.943 13.3714 130.749 14.4122C131.555 15.4534 132.159 16.616 132.563 17.9002C132.965 19.1846 133.19 20.5942 133.237 22.1291C133.237 22.5701 133.112 22.9349 132.865 23.2234C132.617 23.5123 132.245 23.6565 131.749 23.6565H115.8C115.831 26.2708 116.544 28.2503 117.939 29.5953C119.334 30.9404 121.124 31.6282 123.309 31.6585C124.689 31.6585 125.928 31.4156 127.029 30.929C128.13 30.4427 129.238 29.7816 130.354 28.9455C130.633 28.7328 130.927 28.6263 131.237 28.6263C131.609 28.6263 131.923 28.767 132.179 29.0481C132.435 29.3296 132.563 29.66 132.563 30.0399C132.563 30.5265 132.345 30.9596 131.912 31.3393C129.462 33.4976 126.502 34.5765 123.03 34.5765C120.86 34.5614 118.915 34.0905 117.195 33.1634ZM129.563 21.1262C129.424 18.9986 128.812 17.2584 127.727 15.9056C126.642 14.5531 125.053 13.8766 122.961 13.8766C121.876 13.8766 120.892 14.0818 120.008 14.4921C119.124 14.9025 118.4 15.4535 117.834 16.145C117.268 16.8368 116.819 17.6041 116.486 18.4476C116.152 19.2912 115.947 20.1842 115.87 21.1263H129.563V21.1262Z" fill="white"></path>
  <path d="M136.931 33.6655C136.527 33.3313 136.326 32.86 136.326 32.2519V13.4439C136.326 12.8361 136.535 12.3688 136.954 12.0418C137.372 11.7152 137.868 11.5516 138.442 11.5516C139.015 11.5516 139.507 11.7152 139.918 12.0418C140.329 12.3688 140.534 12.8208 140.534 13.3982L140.511 16.1339C140.898 14.7205 141.677 13.5389 142.848 12.5889C144.018 11.6392 145.424 11.1641 147.068 11.1641C147.563 11.1641 147.955 11.3464 148.242 11.7112C148.528 12.0759 148.672 12.5016 148.672 12.9879C148.672 13.4439 148.54 13.8353 148.277 14.1619C148.013 14.4889 147.633 14.6521 147.137 14.6521C145.045 14.6521 143.421 15.1843 142.267 16.248C141.112 17.312 140.534 18.7329 140.534 20.5111V32.2519C140.534 32.86 140.321 33.3313 139.895 33.6655C139.469 33.9999 138.969 34.167 138.395 34.167C137.822 34.167 137.334 33.9999 136.931 33.6655Z" fill="white"></path>
  <path d="M150.543 30.8833C150.543 30.5186 150.674 30.2034 150.938 29.9372C151.201 29.6715 151.534 29.5382 151.938 29.5382C152.31 29.5382 152.666 29.6448 153.007 29.8574C155.13 31.1494 157.378 31.8031 159.749 31.818C161.454 31.818 162.83 31.4874 163.876 30.8262C164.922 30.1651 165.446 29.1962 165.446 27.9196C165.446 27.0076 165.151 26.2781 164.562 25.7309C163.973 25.1838 162.996 24.7431 161.633 24.4088L157.517 23.4055C156.681 23.1929 156.002 23.0106 155.483 22.8586C154.964 22.7068 154.406 22.509 153.809 22.2658C153.212 22.0229 152.736 21.7606 152.379 21.4792C152.023 21.1981 151.689 20.8601 151.38 20.4647C151.069 20.0697 150.845 19.6061 150.705 19.074C150.566 18.5422 150.496 17.9341 150.496 17.2502C150.496 16.1711 150.744 15.2211 151.24 14.4004C151.736 13.5797 152.414 12.9299 153.274 12.4512C154.135 11.9725 155.099 11.6155 156.169 11.3797C157.238 11.1442 158.401 11.0264 159.656 11.0264C161.16 11.0264 162.574 11.2052 163.899 11.5621C165.225 11.9194 166.306 12.3183 167.143 12.7589C167.747 13.0632 168.049 13.5113 168.049 14.1041C168.049 14.4539 167.929 14.7538 167.689 15.0045C167.448 15.2553 167.127 15.3807 166.724 15.3807C166.492 15.3807 166.251 15.3351 166.003 15.2438C165.957 15.2289 165.705 15.1338 165.248 14.9589C164.79 14.7844 164.418 14.6512 164.132 14.5599C163.845 14.4688 163.453 14.3587 162.958 14.2293C162.461 14.1004 161.958 14.0013 161.446 13.9329C160.935 13.8645 160.415 13.8303 159.889 13.8303C158.215 13.8303 156.882 14.0925 155.89 14.6168C154.898 15.1412 154.402 15.9658 154.402 17.0904C154.402 18.0024 154.658 18.6446 155.169 19.0168C155.681 19.3894 156.781 19.7805 158.47 20.1908L162.493 21.1712C164.833 21.7336 166.503 22.543 167.503 23.5992C168.503 24.6558 169.003 26.0044 169.003 27.6458C169.003 29.196 168.588 30.5033 167.759 31.567C166.929 32.631 165.841 33.4021 164.492 33.8808C163.144 34.3596 161.578 34.599 159.796 34.599C158.137 34.599 156.529 34.3518 154.971 33.8581C153.414 33.3645 152.17 32.7831 151.24 32.1141C150.775 31.7952 150.543 31.3849 150.543 30.8833Z" fill="white"></path>
</svg>
