<?xml version="1.0" encoding="UTF-8"?>
<svg xmlns="http://www.w3.org/2000/svg" width="153" height="153" viewBox="0 0 153 153" fill="none">
  <g filter="url(#filter0_d_515_1693)">
    <circle cx="76.5" cy="68.5" r="60.5" fill="#0E0E2F"></circle>
  </g>
  <path d="M52.6913 58.1975L52.6913 58.1995L52.6913 78.8004C52.6913 83.1254 53.9776 86.4873 56.2574 88.7671C58.5373 91.047 61.8992 92.3333 66.2242 92.3333L86.8004 92.3333C91.1254 92.3333 94.4871 91.047 96.7669 88.7644C99.0467 86.4816 100.333 83.1136 100.333 78.7758L100.333 58.1995C100.333 53.8745 99.0471 50.5127 96.7672 48.2328C94.4873 45.9529 91.1254 44.6666 86.8004 44.6666L66.1996 44.6666C61.8744 44.6666 58.5129 45.953 56.2362 48.2325C53.9598 50.5118 52.6794 53.8729 52.6913 58.1975ZM71.2479 81.2958L71.0792 81.2958L71.0792 80.5458L71.0792 58.0275C71.0792 56.0645 72.6687 54.475 74.6317 54.475L78.3683 54.475C80.3313 54.475 81.9208 56.0645 81.9208 58.0275L81.9208 80.5458C81.9208 81.6483 81.0442 82.525 79.9417 82.525L73.0829 82.525C72.2466 82.525 71.5403 82.0206 71.2479 81.2958ZM84.8338 82.525C83.7312 82.525 82.8546 81.6483 82.8546 80.5458L82.8546 67.615C82.8546 66.5124 83.7312 65.6358 84.8338 65.6358L90.1192 65.6358C92.0821 65.6358 93.6717 67.2253 93.6717 69.1883L93.6717 80.5458C93.6717 81.6483 92.7951 82.525 91.6925 82.525L84.8338 82.525ZM61.3075 82.525C60.205 82.525 59.3283 81.6483 59.3283 80.5458L59.3283 73.392C59.3283 71.4291 60.9179 69.8395 62.8808 69.8395L68.1663 69.8395C69.2688 69.8395 70.1454 70.7162 70.1454 71.8187L70.1454 80.5458C70.1454 81.6483 69.2688 82.525 68.1663 82.525L61.3075 82.525Z" fill="#FF6200" stroke="#FF6200" stroke-width="1.5"></path>
  <defs>
    <filter id="filter0_d_515_1693" x="0" y="0" width="153" height="153" color-interpolation-filters="sRGB">
      <feFlood flood-opacity="0" result="BackgroundImageFix"></feFlood>
      <feColorMatrix in="SourceAlpha" type="matrix" values="0 0 0 0 0 0 0 0 0 0 0 0 0 0 0 0 0 0 127 0" result="hardAlpha"></feColorMatrix>
      <feOffset dy="8"></feOffset>
      <feGaussianBlur stdDeviation="8"></feGaussianBlur>
      <feComposite in2="hardAlpha" operator="out"></feComposite>
      <feColorMatrix type="matrix" values="0 0 0 0 0.670588 0 0 0 0 0.745098 0 0 0 0 0.819608 0 0 0 0.4 0"></feColorMatrix>
      <feBlend mode="normal" in2="BackgroundImageFix" result="effect1_dropShadow_515_1693"></feBlend>
      <feBlend mode="normal" in="SourceGraphic" in2="effect1_dropShadow_515_1693" result="shape"></feBlend>
    </filter>
  </defs>
</svg>
