<?xml version="1.0" encoding="UTF-8"?>
<svg xmlns="http://www.w3.org/2000/svg" width="48" height="48" viewBox="0 0 48 48" fill="none">
  <path d="M36 0H12C5.37258 0 0 5.37258 0 12V36C0 42.6274 5.37258 48 12 48H36C42.6274 48 48 42.6274 48 36V12C48 5.37258 42.6274 0 36 0Z" fill="#FF6200"></path>
  <path opacity="0.9" d="M16.8 30.6C16.5636 30.6001 16.3294 30.5536 16.111 30.4632C15.8925 30.3729 15.694 30.2403 15.5268 30.0732L10.7268 25.2732C10.5595 25.106 10.4268 24.9075 10.3363 24.6891C10.2458 24.4706 10.1992 24.2365 10.1992 24C10.1992 23.7635 10.2458 23.5294 10.3363 23.3109C10.4268 23.0924 10.5595 22.8939 10.7268 22.7268L15.5268 17.9268C15.8644 17.5891 16.3224 17.3994 16.8 17.3994C17.2775 17.3994 17.7355 17.5891 18.0732 17.9268C18.4108 18.2645 18.6005 18.7224 18.6005 19.2C18.6005 19.6775 18.4108 20.1355 18.0732 20.4732L14.5452 24L18.0732 27.5268C18.3251 27.7785 18.4966 28.0993 18.5662 28.4486C18.6357 28.7979 18.6 29.1599 18.4637 29.4889C18.3274 29.8179 18.0966 30.0991 17.8004 30.2969C17.5043 30.4947 17.1561 30.6002 16.8 30.6ZM31.2 30.6C30.8438 30.6002 30.4957 30.4947 30.1995 30.2969C29.9034 30.0991 29.6725 29.8179 29.5362 29.4889C29.3999 29.1599 29.3643 28.7979 29.4338 28.4486C29.5033 28.0993 29.6749 27.7785 29.9268 27.5268L33.4548 24L29.9268 20.4732C29.7596 20.306 29.6269 20.1075 29.5365 19.889C29.446 19.6706 29.3994 19.4364 29.3994 19.2C29.3994 18.9635 29.446 18.7294 29.5365 18.5109C29.6269 18.2925 29.7596 18.094 29.9268 17.9268C30.2644 17.5891 30.7224 17.3994 31.2 17.3994C31.4364 17.3994 31.6706 17.446 31.889 17.5365C32.1075 17.627 32.306 17.7596 32.4732 17.9268L37.2732 22.7268C37.4404 22.8939 37.5731 23.0924 37.6637 23.3109C37.7542 23.5294 37.8008 23.7635 37.8008 24C37.8008 24.2365 37.7542 24.4706 37.6637 24.6891C37.5731 24.9075 37.4404 25.106 37.2732 25.2732L32.4732 30.0732C32.3059 30.2403 32.1074 30.3729 31.889 30.4632C31.6705 30.5536 31.4364 30.6001 31.2 30.6Z" fill="white"></path>
  <path opacity="0.5" d="M21.6 34.2C21.4324 34.1997 21.2656 34.1763 21.1044 34.1304C20.6455 33.9992 20.2576 33.6911 20.0258 33.2739C19.794 32.8567 19.7374 32.3645 19.8684 31.9056L24.6684 15.1056C24.7296 14.8741 24.8363 14.6572 24.9823 14.4675C25.1284 14.2778 25.3108 14.1191 25.5189 14.0008C25.727 13.8825 25.9566 13.8068 26.1943 13.7783C26.432 13.7498 26.673 13.769 26.9032 13.8348C27.1333 13.9005 27.3481 14.0116 27.5349 14.1613C27.7216 14.3111 27.8766 14.4966 27.9908 14.7071C28.1049 14.9175 28.176 15.1485 28.1998 15.3868C28.2235 15.625 28.1996 15.8655 28.1292 16.0944L23.3292 32.8944C23.2219 33.2702 22.995 33.6009 22.6831 33.8365C22.3711 34.072 21.9909 34.1996 21.6 34.2Z" fill="white"></path>
</svg>
