<?xml version="1.0" encoding="UTF-8"?>
<svg xmlns="http://www.w3.org/2000/svg" width="168" height="28" viewBox="0 0 168 28" fill="none">
  <path d="M0 5.19823V1.34668H20.9219V5.19823H0ZM8.35714 26.9995V2.07339H12.5648V26.9995H8.35714Z" fill="#0E0E2F"></path>
  <path d="M25.3319 27.3692C23.6732 27.3935 22.037 26.9826 20.5865 26.1774C19.2027 25.4014 18.0511 24.2699 17.2509 22.8999C16.4261 21.4743 16.0018 19.8523 16.0228 18.2054C15.9954 16.6003 16.3972 15.0171 17.1868 13.6193C17.9764 12.2216 19.125 11.0602 20.5139 10.2552C21.9103 9.44543 23.4998 9.02859 25.1139 9.04887C26.6443 9.0152 28.154 9.4077 29.4742 10.1825C30.729 10.9334 31.7563 12.0109 32.4464 13.3001C33.184 14.6857 33.5567 16.2363 33.5292 17.8057C33.513 18.1054 33.479 18.4039 33.4275 18.6996C33.3911 19.0048 33.333 19.3463 33.2603 19.7097H18.8497V16.4104H31.2037L29.6994 17.733C29.6821 16.795 29.4666 15.8713 29.0672 15.0224C28.7321 14.3155 28.1896 13.7275 27.5121 13.3364C26.7559 12.9228 25.9027 12.7195 25.0412 12.7478C24.1066 12.7236 23.1827 12.9521 22.367 13.4091C21.6129 13.8393 21.0015 14.481 20.6083 15.255C20.1702 16.1365 19.9555 17.1123 19.9834 18.0964C19.9577 19.1053 20.1851 20.1047 20.6447 21.0032C21.0679 21.8134 21.7232 22.4789 22.5268 22.9145C23.3803 23.3774 24.3394 23.6103 25.3101 23.5903C26.1621 23.6088 27.0093 23.4581 27.8027 23.147C28.5721 22.8268 29.2545 22.3287 29.7939 21.6936L32.3592 24.2952C31.5162 25.2879 30.4504 26.0673 29.2489 26.5698C28.011 27.0991 26.6783 27.3711 25.3319 27.3692Z" fill="#0E0E2F"></path>
  <path d="M44.0969 27.3681C42.4473 27.3894 40.8218 26.9705 39.3879 26.1545C38.0045 25.3765 36.857 24.2391 36.0668 22.8626C35.2626 21.4437 34.8535 19.8351 34.8823 18.2044C34.8564 16.5666 35.2732 14.9522 36.0886 13.5316C36.8857 12.1642 38.0318 11.0331 39.4097 10.2542C40.8442 9.44046 42.4697 9.02403 44.1187 9.04784C45.4412 9.03558 46.7512 9.30305 47.963 9.83269C49.128 10.3455 50.1616 11.1158 50.9861 12.0855L48.3482 14.7598C47.8482 14.1614 47.213 13.6906 46.4951 13.3863C45.7468 13.0759 44.9434 12.9201 44.1333 12.9285C43.202 12.9099 42.283 13.1434 41.4735 13.6043C40.7183 14.0479 40.0979 14.6885 39.6785 15.4574C39.2362 16.3041 39.0161 17.2493 39.039 18.2044C39.0034 19.1611 39.2109 20.1112 39.6422 20.9658C40.0552 21.7309 40.6713 22.3671 41.4226 22.8044C42.2321 23.2653 43.1511 23.4988 44.0824 23.4803C44.8925 23.4886 45.6959 23.3329 46.4442 23.0224C47.1622 22.7182 47.7974 22.2474 48.2973 21.649L50.9353 24.3232C50.1272 25.2888 49.1111 26.059 47.963 26.576C46.7462 27.1146 45.4276 27.3848 44.0969 27.3681Z" fill="#0E0E2F"></path>
  <path d="M53.1074 26.9986V0.619141H57.1406V26.9986H53.1074ZM65.1635 26.9986V16.8247C65.1835 16.2897 65.0947 15.7561 64.9023 15.2564C64.7099 14.7568 64.418 14.3014 64.0444 13.9179C63.6657 13.5366 63.2115 13.2388 62.7109 13.0435C62.2103 12.8483 61.6743 12.76 61.1375 12.7842C60.4094 12.7728 59.6907 12.9506 59.0519 13.3002C58.4376 13.6347 57.933 14.1393 57.5985 14.7536C57.2502 15.3953 57.0749 16.1166 57.0898 16.8465L55.5128 15.9672C55.4878 14.719 55.791 13.4861 56.3921 12.3918C56.9769 11.3654 57.8314 10.5185 58.8629 9.9428C59.9413 9.36082 61.1475 9.05612 62.3729 9.05612C63.5984 9.05612 64.8046 9.36082 65.8829 9.9428C66.8992 10.5109 67.739 11.3482 68.3101 12.3627C68.9151 13.4765 69.2182 14.7291 69.1895 15.9963V26.9986H65.1635Z" fill="#0E0E2F"></path>
  <path d="M79.9362 27.3693C78.413 27.3867 76.917 26.9654 75.6268 26.1557C74.3424 25.3508 73.2943 24.22 72.5892 22.8782C71.8302 21.4522 71.4452 19.857 71.47 18.2418C71.4435 16.6148 71.8284 15.0075 72.5892 13.5691C73.3 12.2275 74.3466 11.0933 75.6268 10.2771C76.9129 9.45647 78.4107 9.02959 79.9362 9.04895C81.1818 9.02358 82.413 9.31887 83.5116 9.90647C84.5269 10.465 85.3787 11.2792 85.9824 12.2683C86.5991 13.2969 86.9162 14.4773 86.898 15.6765V20.7635C86.9187 21.961 86.6067 23.1409 85.9969 24.1717C85.4052 25.1705 84.5505 25.9875 83.5261 26.5335C82.4199 27.1126 81.1844 27.4003 79.9362 27.3693ZM80.5975 23.554C81.5153 23.5754 82.421 23.3414 83.2136 22.8782C83.9623 22.4264 84.5671 21.7711 84.9577 20.9888C85.3853 20.1245 85.5972 19.1695 85.5754 18.2055C85.5955 17.2416 85.3836 16.2871 84.9577 15.4222C84.5652 14.6412 83.9608 13.9864 83.2136 13.5327C82.421 13.0695 81.5153 12.8355 80.5975 12.8569C79.6892 12.8383 78.7935 13.0722 78.0104 13.5327C77.2642 13.992 76.6564 14.645 76.2518 15.4222C75.7979 16.2791 75.5656 17.2359 75.5759 18.2055C75.5544 19.172 75.7742 20.1286 76.2154 20.9888C76.618 21.7675 77.2262 22.4209 77.9741 22.8782C78.7657 23.344 79.6721 23.5781 80.5902 23.554H80.5975ZM89.318 26.9986H85.3138V22.275L86.0405 17.9875L85.3138 13.7362V0.619141H89.3834L89.318 26.9986Z" fill="#0E0E2F"></path>
  <path d="M101.253 27.369C99.5962 27.3941 97.9622 26.9831 96.5146 26.1772C95.1278 25.4052 93.9753 24.2728 93.1791 22.8998C92.3509 21.4755 91.9263 19.8526 91.9509 18.2052C91.9197 16.6003 92.3192 15.0163 93.1077 13.6181C93.8963 12.22 95.0451 11.0586 96.4347 10.255C97.8248 9.44906 99.4062 9.03235 101.013 9.0487C102.543 9.01655 104.052 9.40895 105.373 10.1824C106.626 10.9334 107.651 12.0111 108.338 13.2999C109.076 14.6855 109.448 16.2361 109.421 17.8055C109.419 18.1044 109.4 18.4028 109.363 18.6994C109.327 19.0046 109.276 19.3462 109.203 19.7095H94.7705V16.4103H107.125L105.62 17.7329C105.607 16.7959 105.397 15.8722 105.003 15.0222C104.662 14.3164 104.118 13.729 103.44 13.3363C102.684 12.9219 101.831 12.7186 100.969 12.7476C100.035 12.7234 99.1108 12.9519 98.2951 13.409C97.5429 13.8414 96.932 14.4825 96.5364 15.2548C96.1019 16.1376 95.8875 17.1125 95.9115 18.0962C95.8895 19.1048 96.1166 20.1032 96.5728 21.003C96.992 21.815 97.6417 22.485 98.4404 22.9288C99.2942 23.3908 100.253 23.6237 101.224 23.6047C102.085 23.6158 102.94 23.4552 103.738 23.1323C104.491 22.8249 105.163 22.3473 105.7 21.737L108.28 24.3241C107.434 25.3171 106.366 26.0965 105.162 26.5987C103.925 27.1185 102.595 27.3806 101.253 27.369Z" fill="#0E0E2F"></path>
  <path d="M111.912 26.9973V9.41093H115.938V26.9973H111.912ZM123.968 26.9973V16.8234C123.987 16.2885 123.897 15.7554 123.705 15.256C123.512 14.7565 123.221 14.301 122.849 13.9165C122.47 13.5363 122.015 13.2392 121.515 13.0441C121.014 12.8489 120.479 12.7599 119.942 12.7829C119.214 12.7705 118.495 12.9483 117.857 13.2988C117.242 13.6333 116.738 14.138 116.403 14.7522C116.053 15.3934 115.875 16.1146 115.887 16.8452L114.318 15.9658C114.292 14.7176 114.596 13.4847 115.197 12.3904C115.795 11.3545 116.671 10.5064 117.726 9.94143C118.791 9.33858 119.997 9.03007 121.221 9.04758C122.456 9.03737 123.667 9.39123 124.702 10.065C125.713 10.7169 126.545 11.6112 127.122 12.6666C127.695 13.6798 127.998 14.8235 128.001 15.9876V26.9973H123.968Z" fill="#0E0E2F"></path>
  <path d="M137.128 27.3688C136.173 27.3707 135.221 27.2411 134.301 26.9837C133.425 26.7379 132.588 26.3684 131.816 25.8864C131.066 25.4147 130.396 24.8259 129.832 24.1423L132.397 21.577C132.97 22.2601 133.691 22.8042 134.505 23.1685C135.355 23.5367 136.274 23.72 137.201 23.7062C137.907 23.7469 138.613 23.6069 139.25 23.2993C139.47 23.1939 139.656 23.0278 139.784 22.8204C139.913 22.6131 139.98 22.3733 139.977 22.1293C139.982 21.8819 139.924 21.6372 139.808 21.4185C139.693 21.1997 139.523 21.0141 139.316 20.8793C138.787 20.5564 138.214 20.3117 137.615 20.1526C136.888 19.9419 136.162 19.7311 135.435 19.5131C134.678 19.2907 133.948 18.9886 133.255 18.612C132.566 18.2424 131.979 17.7082 131.547 17.0568C131.081 16.285 130.853 15.3925 130.893 14.4916C130.85 13.4844 131.116 12.4881 131.655 11.6362C132.194 10.7843 132.98 10.1172 133.909 9.72437C135.005 9.26305 136.186 9.04011 137.375 9.07033C138.666 9.03711 139.948 9.28509 141.132 9.79704C142.221 10.299 143.16 11.0753 143.857 12.0498L141.292 14.6151C140.824 14.0037 140.222 13.5068 139.534 13.1617C138.823 12.8366 138.048 12.6752 137.266 12.6893C136.623 12.656 135.982 12.7808 135.399 13.0527C135.198 13.1487 135.028 13.3004 134.911 13.4898C134.794 13.6792 134.734 13.8983 134.737 14.1209C134.732 14.3525 134.792 14.5809 134.908 14.7809C135.025 14.981 135.195 15.1449 135.399 15.2546C135.929 15.5738 136.502 15.8183 137.099 15.9813C137.826 16.1775 138.553 16.3883 139.279 16.6208C140.04 16.8545 140.771 17.1739 141.459 17.5728C142.146 17.9653 142.729 18.5159 143.16 19.1788C143.627 19.969 143.854 20.878 143.814 21.795C143.847 22.5656 143.703 23.3336 143.392 24.0393C143.08 24.7451 142.611 25.3696 142.019 25.8645C140.622 26.937 138.886 27.471 137.128 27.3688Z" fill="#0E0E2F"></path>
  <path d="M154.57 27.3692C152.911 27.3935 151.275 26.9826 149.825 26.1774C148.441 25.4014 147.289 24.2699 146.489 22.8999C145.661 21.4757 145.236 19.8527 145.261 18.2054C145.239 16.5681 145.655 14.9546 146.467 13.5327C147.258 12.1732 148.391 11.0436 149.752 10.2552C151.148 9.44543 152.738 9.02859 154.352 9.04887C155.882 9.0152 157.392 9.4077 158.712 10.1825C159.965 10.9336 160.99 12.0112 161.677 13.3001C162.418 14.6844 162.791 16.2359 162.76 17.8057C162.761 18.1044 162.744 18.4029 162.709 18.6996C162.673 19.0048 162.615 19.3463 162.542 19.7097H148.08V16.4104H160.434L158.93 17.733C158.915 16.7956 158.702 15.8719 158.305 15.0224C157.968 14.3168 157.426 13.7293 156.75 13.3364C155.991 12.9228 155.136 12.7196 154.272 12.7478C153.337 12.7247 152.414 12.9531 151.598 13.4091C150.845 13.8416 150.235 14.4827 149.839 15.255C149.407 16.1383 149.195 17.1133 149.221 18.0964C149.197 19.1044 149.421 20.1029 149.875 21.0032C150.297 21.8157 150.949 22.4856 151.75 22.929C152.603 23.3926 153.563 23.6255 154.534 23.6048C155.391 23.6198 156.244 23.4642 157.041 23.147C157.8 22.8229 158.472 22.325 159.003 21.6936L161.568 24.2952C160.717 25.3025 159.639 26.0923 158.421 26.5989C157.202 27.1113 155.892 27.3733 154.57 27.3692Z" fill="#0E0E2F"></path>
  <path d="M165.812 27.3689C167.02 27.3689 168 26.3896 168 25.1815C168 23.9735 167.02 22.9941 165.812 22.9941C164.604 22.9941 163.625 23.9735 163.625 25.1815C163.625 26.3896 164.604 27.3689 165.812 27.3689Z" fill="#FF6200"></path>
  <path d="M80.5926 21.2134C82.2541 21.2134 83.6011 19.8664 83.6011 18.2049C83.6011 16.5433 82.2541 15.1963 80.5926 15.1963C78.931 15.1963 77.584 16.5433 77.584 18.2049C77.584 19.8664 78.931 21.2134 80.5926 21.2134Z" fill="#FF6200"></path>
</svg>
