<?xml version="1.0" encoding="UTF-8"?>
<svg xmlns="http://www.w3.org/2000/svg" width="87" height="74" viewBox="0 0 87 74" fill="none">
  <path d="M86.624 38.5212C86.5617 38.5287 86.5022 38.551 86.4503 38.5863C85.7017 41.8412 83.4341 43.9461 80.7216 45.541C77.3569 47.5516 73.6949 49.0164 69.8718 49.8809C69.4025 50.038 68.9485 50.2377 68.5156 50.4777C68.8736 51.5626 69.2317 52.6476 69.6006 53.7326C70.7069 56.9559 71.3143 60.3293 71.4017 63.7361C71.5568 66.5878 70.6785 69.3999 68.9279 71.6564C68.173 72.1488 67.3782 72.577 66.5519 72.9367C64.3853 73.6456 62.0382 73.5688 59.9227 72.7197C56.9485 71.6438 54.1427 70.1496 51.59 68.2822C48.6255 66.2215 45.8772 63.866 43.3875 61.2515C42.1614 62.3365 40.9246 63.3129 39.7637 64.3979C36.869 67.0771 33.6375 69.3676 30.1508 71.2116C27.2945 72.8832 23.9841 73.6121 20.6898 73.2947L19.0949 72.557C16.7514 71.472 15.84 69.4105 15.2975 67.0453C15.1456 66.2966 15.037 65.5263 14.9394 64.7668C14.8903 64.4432 14.8903 64.114 14.9394 63.7903C15.4276 60.9585 15.4385 58.04 16.4475 55.295C17.0117 53.7434 17.424 52.1268 17.9339 50.4342C16.2197 49.8701 14.4403 49.2408 12.6284 48.6874C9.22563 47.6641 6.05334 45.9914 3.28672 43.7616C1.25781 42.1016 -0.239462 39.9642 0.031783 37.0782V35.9281C1.27951 32.2066 4.0245 30.1777 7.08414 28.5068C10.2622 26.825 13.6422 25.5561 17.1419 24.7311C17.58 24.5867 18.0078 24.4127 18.4222 24.2103C17.8906 22.4744 17.4131 20.7709 16.8381 19.0892C15.929 16.6852 15.416 14.1495 15.3191 11.5812C15.1812 11.0273 15.0762 10.4657 15.0045 9.89946C15.2432 7.93565 15.2215 5.92845 16.0895 4.07313C16.5896 2.83464 17.4585 1.77993 18.5784 1.05209C19.6983 0.324254 21.015 -0.0414855 22.3499 0.004464C25.952 -0.0931841 28.979 1.42576 31.9519 3.12917C34.7976 4.79949 37.4501 6.77891 39.8613 9.03146C41.0114 10.1164 42.2266 11.0495 43.5502 12.1779C44.3097 11.375 45.0693 10.4636 45.9373 9.68245C48.9945 6.79959 52.4029 4.31348 56.0818 2.28289C59.117 0.466684 62.6739 -0.278308 66.1829 0.167204C66.5473 0.387805 66.9282 0.58005 67.3222 0.742241C68.1279 1.0781 68.846 1.59399 69.4215 2.25034C69.997 2.9067 70.4145 3.68609 70.6421 4.52881C71.5609 7.36036 71.7181 10.3839 71.0979 13.2954C70.5501 16.7763 69.6187 20.1859 68.3204 23.4617C68.2855 23.7173 68.2855 23.9764 68.3204 24.232C69.1341 24.5141 70.0128 24.883 70.9134 25.1325C75.5454 26.3022 79.8833 28.4231 83.6511 31.3603C84.932 32.4687 85.8662 33.9227 86.3419 35.5483C86.4449 35.7571 86.5764 35.9506 86.7324 36.1234V38.4778L86.624 38.5212ZM27.7204 36.5682C27.7395 36.7601 27.7795 36.9493 27.8398 37.1324C30.4136 41.5334 33.2959 45.7464 36.4653 49.7399C36.7071 50.0493 37.0194 50.2964 37.3761 50.4606C37.7328 50.6248 38.1236 50.7013 38.5159 50.6838H48.1181C48.4682 50.688 48.8135 50.6024 49.1212 50.4352C49.4289 50.2681 49.6887 50.025 49.8758 49.729C51.5683 47.3638 53.4127 45.1179 55.0836 42.7418C56.4398 40.7996 57.6224 38.7382 58.8701 36.7635C56.3369 32.4802 53.5169 28.3732 50.4291 24.4707H35.8795C32.8976 28.32 30.172 32.3613 27.7204 36.5682ZM34.404 21.9319L41.1959 14.1092L40.5232 13.3605C38.1063 10.813 35.4009 8.55551 32.4618 6.63367C30.2562 4.94657 27.7373 3.71476 25.0514 3.00984L22.3173 2.43481C22.0767 2.59101 21.8075 2.69796 21.5253 2.74946C20.9147 2.79657 20.3265 2.99997 19.8173 3.34009C19.308 3.68021 18.8948 4.1456 18.6175 4.69155C17.8989 5.77469 17.521 7.04814 17.5325 8.34792C17.5028 9.832 17.5935 11.3161 17.8037 12.7855C18.5083 16.4849 19.5357 20.1153 20.8742 23.6353C22.2534 23.5371 23.6262 23.3632 24.9863 23.1145C28.0986 22.532 31.2438 22.1407 34.404 21.9427V21.9319ZM63.6984 2.33716C63.4448 2.51093 63.1669 2.6462 62.8738 2.7386C60.2526 3.09526 57.7536 4.06956 55.5827 5.58124C51.8265 8.01027 48.3226 10.809 45.1235 13.9356L51.8612 21.8017L65.3691 23.6136C65.7814 22.6154 66.2155 21.6823 66.541 20.7167C68.0934 16.6091 68.8304 12.2384 68.711 7.84884C68.5265 4.82175 67.5175 3.45467 64.5338 2.69519C64.226 2.58784 63.9282 2.45351 63.6441 2.29375L63.6984 2.33716ZM35.7167 53.0707C30.5892 52.6779 25.4886 51.9896 20.4403 51.0093C19.8978 52.7127 19.3553 54.2642 18.9322 55.7506C17.9481 58.7495 17.4786 61.8933 17.5433 65.0489C17.6952 67.5986 18.5416 69.7035 21.2432 70.7559C22.4445 70.809 23.6481 70.7363 24.8344 70.5389C26.9986 69.9161 29.0601 68.9804 30.9537 67.7614C33.4465 66.1513 35.828 64.3752 38.082 62.445C39.2531 61.5616 40.2781 60.4998 41.1199 59.2985L35.7167 53.0707ZM44.9608 59.5806C45.9155 60.3618 46.7618 60.9694 47.4996 61.6855C49.8015 63.9476 52.3489 65.9455 55.0944 67.642C56.9901 68.9917 59.1317 69.9574 61.3982 70.4847C62.7327 70.7016 64.0997 70.7234 65.087 70.7993C65.8967 70.5607 66.6239 70.1015 67.1873 69.4729C67.7507 68.8444 68.128 68.0714 68.2769 67.2405C68.7429 64.8106 68.7429 62.3143 68.2769 59.8844C67.694 57.2649 66.9696 54.6788 66.107 52.1377C65.9836 51.811 65.8196 51.5011 65.6188 51.2154L50.4291 53.2118L44.9608 59.5806ZM83.8464 36.5899C83.0916 34.7535 81.7783 33.201 80.0924 32.1523C76.0488 29.6492 71.6041 27.8617 66.9533 26.8685L61.9407 36.7093L67.55 48.0365C69.5463 47.3855 71.4668 46.7236 73.4197 46.1161C75.3633 45.4513 77.2323 44.5859 78.9965 43.5338C81.201 42.5047 82.9339 40.6788 83.8464 38.4235V36.5899ZM19.3444 26.8251C18.368 27.0746 17.4456 27.2808 16.5343 27.5629C13.4361 28.3957 10.4519 29.6054 7.64835 31.165C6.08598 32.1089 4.32832 32.9769 3.44949 34.7672C3.00465 35.6785 2.58148 36.6008 2.20174 37.3928C2.46764 38.4895 2.95022 39.5219 3.62101 40.4293C4.29179 41.3367 5.13719 42.1008 6.10763 42.6767C9.97016 45.465 14.3969 46.8104 18.7911 47.8954L24.3136 36.7418L19.3444 26.8251ZM33.3731 50.2498L25.9193 39.4L21.3734 48.4813C25.3432 49.2967 29.3571 49.8799 33.3949 50.2281L33.3731 50.2498ZM60.2698 39.6496L52.881 50.4126L64.5988 48.6983C64.3819 47.1685 61.8322 41.8738 60.3024 39.6279L60.2698 39.6496ZM64.1865 26.5105C62.6784 25.7293 56.4615 24.8613 54.1831 24.9372L60.3674 34.0836L64.1865 26.5105ZM32.2557 24.666L22.404 26.0873C22.404 27.3459 24.7368 32.2283 26.093 33.8232L32.2557 24.666ZM48.3025 21.6389C46.2952 19.751 45.0475 17.5269 42.8776 16.0296C41.6624 18.1236 39.5467 19.393 38.4292 21.6389H48.3242H48.3025ZM43.0838 57.4432C44.5749 56.2104 45.8572 54.7449 46.8812 53.1033H39.883C39.7051 53.1861 39.5435 53.3 39.4057 53.4397C40.5775 54.7959 41.9879 55.9242 43.1271 57.4324L43.0838 57.4432Z" fill="#989EBB"></path>
  <path d="M37.1272 38.5537C37.6151 39.9289 38.4936 41.1317 39.6552 42.0148C40.5205 42.6049 41.5236 42.9613 42.5673 43.0494C43.611 43.1376 44.6597 42.9544 45.6117 42.5177C46.5637 42.081 47.3867 41.4056 48.0007 40.5571C48.6147 39.7085 48.9989 38.7157 49.1161 37.6749C49.3006 35.2228 48.4651 32.3477 44.505 30.9914C39.5792 30.373 36.4654 33.4977 37.1272 38.5537Z" fill="#989EBB"></path>
</svg>
