<?xml version="1.0" encoding="UTF-8"?>
<svg xmlns="http://www.w3.org/2000/svg" width="64" height="64" viewBox="0 0 64 64" fill="none">
  <path d="M48 0H16C7.16344 0 0 7.16344 0 16V48C0 56.8366 7.16344 64 16 64H48C56.8366 64 64 56.8366 64 48V16C64 7.16344 56.8366 0 48 0Z" fill="#FF6200"></path>
  <g clip-path="url(#clip0_576_2162)">
    <path opacity="0.9" d="M47.6025 42.8325L47.5456 42.7556C46.3731 41.3981 44.9325 40.4037 43.5394 39.4431C42.9706 39.0506 41.96 38.4181 41.245 37.9094C42.9043 35.5663 43.7931 32.7649 43.7881 29.8938C43.7881 22.2206 37.5675 16 29.8938 16C22.22 16 16 22.2206 16 29.8938C16 37.5669 22.2206 43.7881 29.8938 43.7881C32.7613 43.7924 35.5592 42.9055 37.9006 41.25C38.41 41.9644 39.0419 42.9731 39.435 43.5419C40.3981 44.9375 41.3937 46.375 42.75 47.5462L42.8269 47.6025C43.2594 47.8669 43.7574 48.0047 44.2644 48C45.0307 47.9976 45.7688 47.7113 46.3363 47.1963L47.175 46.3594L47.195 46.3388C48.0881 45.3612 48.2594 43.8869 47.6025 42.8325ZM29.8938 40.1631C27.5175 40.1634 25.2147 39.3397 23.3778 37.8324C21.5408 36.3251 20.2833 34.2275 19.8195 31.897C19.3558 29.5665 19.7144 27.1472 20.8345 25.0515C21.9545 22.9558 23.7665 21.3133 25.9618 20.4039C28.1571 19.4944 30.5998 19.3743 32.8737 20.064C35.1476 20.7537 37.1121 22.2106 38.4322 24.1863C39.7524 26.162 40.3467 28.5344 40.1138 30.8991C39.8809 33.2639 38.8353 35.4748 37.155 37.155C36.2037 38.1116 35.0721 38.8701 33.8257 39.3864C32.5793 39.9027 31.2429 40.1667 29.8938 40.1631Z" fill="white"></path>
    <path opacity="0.5" d="M29.8937 31.1755C32.146 31.1755 33.9719 29.3497 33.9719 27.0974C33.9719 24.8451 32.146 23.0193 29.8937 23.0193C27.6415 23.0193 25.8156 24.8451 25.8156 27.0974C25.8156 29.3497 27.6415 31.1755 29.8937 31.1755Z" fill="white"></path>
    <path opacity="0.5" d="M36.6119 34.5382C36.5507 33.9662 36.2947 33.4326 35.8869 33.0269C35.4774 32.6165 34.9405 32.3578 34.3644 32.2932C33.5212 32.2038 31.4269 32.155 30.1225 32.155C28.8181 32.155 26.2512 32.2038 25.4075 32.2932C24.8315 32.3578 24.2947 32.6163 23.885 33.0263C23.4774 33.432 23.2216 33.9656 23.1606 34.5375V34.555C23.1406 34.7488 23.1287 34.9169 23.1212 35.0607C23.3522 35.3626 23.6027 35.6491 23.8712 35.9182C25.469 37.5157 27.6359 38.4131 29.8953 38.4131C32.1547 38.4131 34.3216 37.5157 35.9194 35.9182C36.1837 35.6533 36.4307 35.3717 36.6587 35.075C36.6494 34.9282 36.6356 34.7557 36.615 34.5557L36.6119 34.5382Z" fill="white"></path>
  </g>
  <defs>
    <clipPath id="clip0_576_2162">
      <rect width="32" height="32" fill="white" transform="translate(16 16)"></rect>
    </clipPath>
  </defs>
</svg>
