<?xml version="1.0" encoding="UTF-8"?>
<svg xmlns="http://www.w3.org/2000/svg" width="170" height="35" viewBox="0 0 170 35" fill="none">
  <path d="M13.5366 18.335V22.6915C12.8172 22.6915 12.0624 22.7346 11.3152 22.6844C7.86015 22.4514 4.9996 21.078 2.77943 18.5888C0.999929 16.5939 0.0541523 14.2651 0.00248001 11.658C-0.0695128 7.98686 1.42666 4.94762 4.39404 2.57788C6.28966 1.0648 8.52724 0.274162 11.0029 0.0455366C12.8468 -0.124705 14.6263 0.208685 16.3936 0.609734C19.4191 1.29561 22.261 2.42892 24.9915 3.81977C25.0484 3.84869 25.1007 3.88579 25.1889 3.93981C19.3349 3.66589 14.2989 5.2881 10.2156 9.34334C10.683 7.4434 11.6566 5.83647 13.068 4.45053C13.0605 4.42271 13.0529 4.39433 13.0454 4.3665C12.5316 4.36159 12.0143 4.31794 11.5039 4.35832C6.16019 4.78065 2.99309 10.1143 5.48729 14.5712C6.80755 16.9294 8.96094 18.1937 11.818 18.3307C12.3667 18.3569 12.9176 18.3345 13.5366 18.3345V18.335Z" fill="white"></path>
  <path d="M28.6244 11.6527C32.6885 11.4088 36.2702 12.5192 39.0767 15.4531C41.2203 17.6941 42.2351 20.3558 42.1556 23.3694C42.0232 28.3822 38.2349 32.7998 33.0688 34.0067C31.0751 34.4727 29.0924 34.4067 27.0917 34.0275C23.6087 33.3672 20.358 32.1412 17.2379 30.5752C17.1706 30.5413 17.1067 30.5004 17.0417 30.4617C17.0365 30.4584 17.0376 30.4464 17.0312 30.4175C22.8342 30.6903 27.8586 29.0616 31.9367 25.0194C31.4635 26.9144 30.4904 28.5203 29.0802 29.9051C29.0889 29.9324 29.0976 29.9591 29.1069 29.9864C29.6021 29.9952 30.1003 30.0437 30.5914 30.0061C34.6091 29.6956 37.5655 26.6443 37.5213 22.8728C37.479 19.2039 34.2474 16.1145 30.3459 16.0163C29.8622 16.0043 29.3786 15.9928 28.8956 15.9999C28.6761 16.0032 28.6169 15.9317 28.6192 15.7314C28.6291 14.8131 28.6238 13.8948 28.6238 12.9765V11.6527H28.6244Z" fill="white"></path>
  <path d="M18.174 17.2164C18.174 18.825 18.1821 20.433 18.1711 22.0416C18.163 23.2185 17.2323 24.0883 16.0368 24.0632C14.9163 24.0397 14.0019 23.1651 14.0013 22.1109C13.9996 18.867 13.9996 15.6226 14.0013 12.3787C14.0013 11.2733 14.932 10.3779 16.0781 10.374C17.2021 10.3697 18.1496 11.228 18.1624 12.31C18.1815 13.9453 18.1676 15.5811 18.1676 17.2164C18.1699 17.2164 18.1722 17.2164 18.1746 17.2164H18.174Z" fill="white"></path>
  <path d="M23.9857 17.1743C23.9857 15.539 23.9723 13.9031 23.9903 12.2678C24.0019 11.2207 24.9808 10.357 26.088 10.3723C27.2021 10.3881 28.1473 11.2644 28.1496 12.3093C28.1554 15.5897 28.1549 18.8702 28.1479 22.15C28.1456 23.1737 27.2253 24.0314 26.1298 24.0614C25.0261 24.0914 24.0693 23.2953 23.9909 22.2712C23.97 22 23.9781 21.7261 23.9781 21.4538C23.977 20.0269 23.9781 18.6006 23.9781 17.1737C23.981 17.1737 23.9833 17.1737 23.9862 17.1737L23.9857 17.1743Z" fill="white"></path>
  <path d="M18.9785 17.2197C18.9785 15.6106 18.9785 14.0009 18.9785 12.3918C18.9785 11.2787 19.839 10.4259 21.01 10.3768C22.0998 10.3315 23.0525 11.1685 23.1367 12.2472C23.1454 12.3558 23.1489 12.4649 23.1489 12.5741C23.1495 15.693 23.15 18.8113 23.1489 21.9303C23.1489 23.0821 22.4458 23.8913 21.3218 24.0408C20.1136 24.2018 18.9878 23.3047 18.9814 22.1567C18.9721 20.511 18.9791 18.8654 18.9785 17.2197Z" fill="white"></path>
  <path d="M10.3027 11.6465H13.5285C13.5285 13.0024 13.5203 14.3442 13.5354 15.6859C13.5383 15.9494 13.446 16.0046 13.1894 16.0007C12.3383 15.9876 11.4871 15.9953 10.636 15.9953C10.5315 15.9953 10.4276 15.9953 10.3027 15.9953V11.6465Z" fill="white"></path>
  <path d="M31.8553 22.7141H28.6191V18.374H31.8553V22.7141Z" fill="white"></path>
  <path d="M56.3062 25.5117C55.4218 25.5117 54.3866 25.3869 53.2005 25.1372C52.0144 24.8979 50.7086 24.4505 49.2832 23.795L50.4693 20.8922C51.593 21.4228 52.649 21.7921 53.6375 22.0002C54.6259 22.1979 55.5155 22.2968 56.3062 22.2968C57.4195 22.2968 58.3351 22.0054 59.053 21.4228C59.7813 20.8401 60.1454 20.143 60.1454 19.3315C60.1454 18.572 59.8905 17.9217 59.3807 17.3807C58.8709 16.8292 58.2154 16.3298 57.4143 15.8824C56.6131 15.4246 55.76 14.9616 54.8548 14.4934C53.9496 14.0252 53.0964 13.4998 52.2953 12.9172C51.4941 12.3345 50.8387 11.6426 50.3288 10.8415C49.819 10.0403 49.5641 9.07273 49.5641 7.93865C49.5641 6.57567 49.8763 5.45719 50.5005 4.58322C51.1352 3.70925 51.9727 3.06418 53.0132 2.648C54.0536 2.22142 55.1929 2.00813 56.431 2.00813C57.3883 2.00813 58.3194 2.07576 59.2246 2.21101C60.1298 2.33587 61.2379 2.61158 62.5488 3.03817L61.394 5.87857C60.4784 5.60806 59.6408 5.41558 58.8813 5.30113C58.1218 5.18668 57.3987 5.12945 56.712 5.12945C55.7756 5.12945 55.0264 5.35835 54.4646 5.81615C53.9028 6.27394 53.6218 6.85659 53.6218 7.56409C53.6218 8.27159 53.8768 8.89066 54.3866 9.42128C54.9068 9.9415 55.5675 10.4253 56.3686 10.8727C57.1802 11.3201 58.0385 11.7883 58.9437 12.2773C59.8489 12.7663 60.7021 13.3177 61.5032 13.9316C62.3147 14.5455 62.9754 15.2842 63.4852 16.1477C64.0055 17.0009 64.2656 18.0309 64.2656 19.2379C64.2656 20.58 63.9326 21.7193 63.2668 22.6557C62.6009 23.5817 61.6697 24.2892 60.4732 24.7782C59.2767 25.2672 57.8877 25.5117 56.3062 25.5117Z" fill="white"></path>
  <path d="M77.0213 25.106V13.6507C77.0213 13.1305 76.9121 12.7039 76.6936 12.3709C76.4855 12.038 76.1161 11.8715 75.5855 11.8715C75.3878 11.8715 75.1953 11.8975 75.0081 11.9496C74.8208 12.0016 74.5763 12.038 74.2746 12.0588C73.7751 12.09 73.3538 11.8819 73.0104 11.4345C72.6775 10.9767 72.3601 10.4981 72.0584 9.99873C73.0884 9.44729 73.9936 9.07273 74.774 8.87505C75.5543 8.66696 76.3034 8.56292 77.0213 8.56292C77.7392 8.56292 78.4311 8.74499 79.097 9.10915C79.7629 9.4733 80.3039 10.0299 80.7201 10.7791C81.1467 11.5178 81.36 12.4542 81.36 13.5883V25.106H77.0213ZM66.9394 25.106V12.9016C66.9394 12.3189 66.8978 11.6999 66.8146 11.0444C66.7417 10.3889 66.6169 9.697 66.44 8.96869H70.0608C70.5602 9.53053 70.8931 10.0872 71.0596 10.6386C71.2261 11.19 71.3093 11.7779 71.3093 12.4021V25.106H66.9394Z" fill="white"></path>
  <path d="M88.996 25.5117C87.9972 25.5117 87.1336 25.2932 86.4053 24.8562C85.6874 24.4089 85.1308 23.8262 84.7354 23.1083C84.3504 22.3904 84.1579 21.6205 84.1579 20.7985C84.1579 19.935 84.4129 19.1182 84.9227 18.3483C85.4325 17.5784 86.3065 16.9281 87.5446 16.3974C88.7931 15.8564 90.5151 15.5027 92.7104 15.3362C92.6376 15.8252 92.5179 16.2778 92.3514 16.694C92.185 17.0997 91.9561 17.4379 91.6647 17.7084C91.3838 17.9789 91.0249 18.1558 90.5879 18.239C90.0677 18.3223 89.6411 18.4679 89.3081 18.676C88.9752 18.8841 88.7307 19.139 88.5746 19.4407C88.4186 19.7321 88.3405 20.0494 88.3405 20.3927C88.3405 20.9338 88.533 21.3864 88.918 21.7505C89.3029 22.1147 89.7659 22.2968 90.307 22.2968C90.9 22.2968 91.4983 22.0939 92.1017 21.6881C92.7156 21.2719 93.293 20.7465 93.8341 20.1118V15.3986C93.8341 14.3166 93.5323 13.453 92.9289 12.8079C92.3358 12.1628 91.4931 11.8403 90.4006 11.8403C89.8908 11.8403 89.3394 11.8923 88.7463 11.9964C88.1532 12.1004 87.4874 12.2877 86.7486 12.5582L85.6874 9.81145C86.6134 9.38487 87.5654 9.08314 88.5434 8.90626C89.5318 8.71898 90.3902 8.62534 91.1185 8.62534C93.3346 8.62534 95.041 9.20799 96.2375 10.3733C97.4444 11.5386 98.0479 13.2137 98.0479 15.3986V21.1731C98.0479 21.7453 98.0843 22.3592 98.1571 23.0147C98.2299 23.6701 98.36 24.3672 98.5473 25.106H95.3323C95.0514 24.9499 94.8173 24.7314 94.63 24.4505C94.4531 24.1592 94.3023 23.8574 94.1774 23.5453L94.0838 22.921L93.7092 23.4517C92.7728 24.3048 91.9509 24.8615 91.2434 25.1216C90.5463 25.3817 89.7971 25.5117 88.996 25.5117Z" fill="white"></path>
  <path d="M107.646 32.9093C106.835 32.9093 105.903 32.8208 104.853 32.644C103.812 32.4775 102.683 32.1289 101.466 31.5983L102.558 28.6955C103.609 29.1117 104.514 29.3978 105.274 29.5538C106.033 29.7099 106.741 29.7879 107.396 29.7879C108.166 29.7879 108.874 29.6267 109.519 29.3041C110.174 28.9816 110.695 28.4978 111.08 27.8527C111.475 27.2076 111.673 26.4065 111.673 25.4493V12.0588C111.267 11.9652 110.887 11.9027 110.533 11.8715C110.18 11.8299 109.894 11.8091 109.675 11.8091C108.26 11.8091 107.183 12.3501 106.444 13.4322C105.706 14.5038 105.336 15.898 105.336 17.6148C105.336 18.2806 105.409 18.9673 105.555 19.6748C105.711 20.3823 105.981 20.9754 106.366 21.454C106.762 21.9326 107.313 22.1615 108.021 22.1407C108.645 22.1199 109.134 22.328 109.488 22.765C109.852 23.1915 110.206 23.7014 110.549 24.2944C109.977 24.6065 109.379 24.8667 108.754 25.0747C108.13 25.2828 107.553 25.3869 107.022 25.3869C106.023 25.3869 105.128 25.1632 104.338 24.7158C103.557 24.258 102.897 23.6545 102.356 22.9054C101.815 22.1459 101.398 21.3083 101.107 20.3927C100.826 19.4668 100.686 18.5408 100.686 17.6148C100.686 15.9605 101.034 14.4518 101.731 13.0888C102.428 11.7155 103.432 10.623 104.743 9.81145C106.054 8.9999 107.636 8.59413 109.488 8.59413C110.081 8.59413 110.674 8.62014 111.267 8.67216C111.86 8.71378 112.526 8.80222 113.265 8.93748C114.003 9.07273 114.888 9.27042 115.918 9.53053V25.106C115.918 27.01 115.543 28.529 114.794 29.6631C114.055 30.8076 113.056 31.6347 111.798 32.1445C110.549 32.6544 109.165 32.9093 107.646 32.9093Z" fill="white"></path>
  <path d="M125.667 32.9093C124.855 32.9093 123.924 32.8208 122.873 32.644C121.833 32.4775 120.704 32.1289 119.487 31.5983L120.579 28.6955C121.63 29.1117 122.535 29.3978 123.295 29.5538C124.054 29.7099 124.762 29.7879 125.417 29.7879C126.187 29.7879 126.894 29.6267 127.54 29.3041C128.195 28.9816 128.715 28.4978 129.1 27.8527C129.496 27.2076 129.693 26.4065 129.693 25.4493V12.0588C129.287 11.9652 128.908 11.9027 128.554 11.8715C128.2 11.8299 127.914 11.8091 127.696 11.8091C126.281 11.8091 125.204 12.3501 124.465 13.4322C123.726 14.5038 123.357 15.898 123.357 17.6148C123.357 18.2806 123.43 18.9673 123.575 19.6748C123.732 20.3823 124.002 20.9754 124.387 21.454C124.782 21.9326 125.334 22.1615 126.041 22.1407C126.666 22.1199 127.155 22.328 127.508 22.765C127.872 23.1915 128.226 23.7014 128.57 24.2944C127.997 24.6065 127.399 24.8667 126.775 25.0747C126.151 25.2828 125.573 25.3869 125.042 25.3869C124.044 25.3869 123.149 25.1632 122.358 24.7158C121.578 24.258 120.917 23.6545 120.376 22.9054C119.835 22.1459 119.419 21.3083 119.128 20.3927C118.847 19.4668 118.706 18.5408 118.706 17.6148C118.706 15.9605 119.055 14.4518 119.752 13.0888C120.449 11.7155 121.453 10.623 122.764 9.81145C124.075 8.9999 125.656 8.59413 127.508 8.59413C128.101 8.59413 128.694 8.62014 129.287 8.67216C129.881 8.71378 130.546 8.80222 131.285 8.93748C132.024 9.07273 132.908 9.27042 133.938 9.53053V25.106C133.938 27.01 133.564 28.529 132.815 29.6631C132.076 30.8076 131.077 31.6347 129.818 32.1445C128.57 32.6544 127.186 32.9093 125.667 32.9093Z" fill="white"></path>
  <path d="M145.092 25.5117C143.666 25.5117 142.434 25.262 141.393 24.7626C140.353 24.2528 139.494 23.5765 138.818 22.7337C138.152 21.8806 137.658 20.939 137.335 19.9089C137.013 18.8685 136.852 17.8229 136.852 16.772C136.852 15.0553 137.216 13.5831 137.944 12.3553C138.683 11.1276 139.671 10.1912 140.909 9.54613C142.147 8.89066 143.521 8.56292 145.029 8.56292C146.184 8.56292 147.23 8.79181 148.166 9.24961C149.113 9.697 149.883 10.3317 150.476 11.1536C151.08 11.9756 151.444 12.9484 151.569 14.0721C151.704 15.1957 151.543 16.4287 151.085 17.7708H142.345C142.564 17.0529 142.891 16.4495 143.328 15.9605C143.765 15.4611 144.249 15.2113 144.78 15.2113H147.558C147.641 14.5767 147.584 13.9836 147.386 13.4322C147.188 12.8808 146.866 12.4386 146.418 12.1056C145.981 11.7623 145.446 11.5906 144.811 11.5906C144.239 11.5906 143.672 11.7623 143.11 12.1056C142.548 12.449 142.08 12.99 141.705 13.7287C141.341 14.4674 141.159 15.4298 141.159 16.6159C141.159 17.8125 141.341 18.8373 141.705 19.6904C142.08 20.5332 142.595 21.1783 143.25 21.6257C143.916 22.0731 144.686 22.2968 145.56 22.2968C146.278 22.2968 146.991 22.2083 147.698 22.0314C148.406 21.8442 149.212 21.5476 150.117 21.1419L151.21 24.0447C150.086 24.5753 149.025 24.9499 148.026 25.1684C147.038 25.3973 146.059 25.5117 145.092 25.5117Z" fill="white"></path>
  <path d="M160.791 25.5117C159.283 25.5117 157.992 25.1424 156.921 24.4037C155.859 23.6545 155.048 22.6349 154.486 21.3448C153.924 20.0442 153.643 18.572 153.643 16.9281C153.643 15.8252 153.831 14.7796 154.205 13.7911C154.58 12.8027 155.09 11.9287 155.735 11.1692C156.38 10.3993 157.113 9.79584 157.935 9.35885C158.757 8.91146 159.615 8.68777 160.51 8.68777C161.041 8.68777 161.561 8.72418 162.071 8.79702C162.591 8.85944 163.257 9.01031 164.069 9.24961C163.788 9.96751 163.455 10.5502 163.07 10.9976C162.695 11.4449 162.248 11.6946 161.728 11.7467C160.874 11.7987 160.193 12.0536 159.683 12.5114C159.184 12.9588 158.82 13.5622 158.591 14.3218C158.372 15.0813 158.263 15.9501 158.263 16.9281C158.263 17.8957 158.393 18.7853 158.653 19.5968C158.913 20.4084 159.288 21.0638 159.777 21.5632C160.276 22.0523 160.874 22.2968 161.572 22.2968C162.165 22.2968 162.752 22.1199 163.335 21.7661C163.918 21.4124 164.537 20.8609 165.192 20.1118V1.44629H169.531V21.1731C169.531 21.7453 169.567 22.3592 169.64 23.0147C169.713 23.6701 169.833 24.3672 169.999 25.106H166.659C166.399 24.9603 166.181 24.7522 166.004 24.4817C165.827 24.2112 165.681 23.9303 165.567 23.6389L165.411 22.921L164.88 23.6077C164.069 24.336 163.335 24.8354 162.68 25.106C162.035 25.3765 161.405 25.5117 160.791 25.5117Z" fill="white"></path>
</svg>
