<svg width="99" height="19" viewBox="0 0 99 19" fill="none" xmlns="http://www.w3.org/2000/svg">
<path d="M35.3159 12.0473L33.261 6.41373L31.2061 12.0473H35.3159ZM36.6481 15.7131L35.9428 13.7801H30.5791L29.8738 15.7131C29.7635 16.0382 29.5923 16.282 29.3601 16.4445C29.1337 16.607 28.8841 16.6883 28.6113 16.6883C28.2688 16.6883 27.9698 16.5751 27.7144 16.3487C27.459 16.1223 27.3313 15.8321 27.3313 15.478C27.3313 15.3039 27.3661 15.1239 27.4358 14.9382L30.9971 5.82163C31.2699 5.07861 31.5863 4.57649 31.9462 4.31528C32.3119 4.04825 32.7501 3.91474 33.261 3.91474C33.7718 3.91474 34.2072 4.04825 34.5671 4.31528C34.9328 4.57649 35.2549 5.07861 35.5336 5.82163L39.0948 14.9382C39.1587 15.1239 39.1906 15.301 39.1906 15.4693C39.1906 15.8292 39.0629 16.1223 38.8075 16.3487C38.5521 16.5751 38.256 16.6883 37.9194 16.6883C37.8207 16.6883 37.7191 16.6767 37.6146 16.6535C37.1502 16.5432 36.828 16.2297 36.6481 15.7131Z" fill="#989EBB"/>
<path d="M42.8419 16.6622C42.4646 16.6622 42.1656 16.5403 41.945 16.2965C41.7303 16.0469 41.6229 15.6928 41.6229 15.2342V9.43515H40.8741C40.2936 9.42354 40.0033 9.17393 40.0033 8.68633C40.0033 8.54701 40.0265 8.42511 40.073 8.32062C40.1252 8.21033 40.2123 8.12035 40.3342 8.0507C40.4561 7.97523 40.6128 7.9375 40.8044 7.9375C40.8044 7.9375 40.8102 7.9375 40.8218 7.9375H41.6229V7.19738C41.6229 6.05963 41.8841 5.23244 42.4065 4.71581C42.929 4.19918 43.7097 3.94086 44.7488 3.94086H45.7762C46.0084 3.94086 46.1942 4.03664 46.3335 4.2282C46.4728 4.41396 46.5425 4.62874 46.5425 4.87254C46.5425 5.11635 46.4757 5.32242 46.3422 5.49076C46.2087 5.6591 46.0201 5.74327 45.7762 5.74327H45.1406C44.7111 5.74327 44.4208 5.85356 44.2699 6.07415C44.1248 6.28892 44.0522 6.75622 44.0522 7.47602V7.9375H45.1406C45.396 7.9375 45.5934 8.00426 45.7327 8.13777C45.8778 8.26548 45.9504 8.44833 45.9504 8.68633C45.9504 9.18554 45.6631 9.43515 45.0884 9.43515H44.0522V15.2342C44.0522 15.6928 43.9448 16.0469 43.73 16.2965C43.5211 16.5403 43.225 16.6622 42.8419 16.6622Z" fill="#989EBB"/>
<path d="M48.6787 16.6622C48.3014 16.6622 48.0053 16.5403 47.7906 16.2965C47.5816 16.0527 47.4771 15.7015 47.4771 15.2429V9.06945C47.4771 8.70374 47.5961 8.42221 47.8341 8.22484C48.0721 8.02167 48.3536 7.92009 48.6787 7.92009C49.0096 7.92009 49.2969 8.02167 49.5407 8.22484C49.7845 8.42221 49.9035 8.69503 49.8977 9.04333L49.889 9.73991C50.0515 9.22908 50.3389 8.78501 50.751 8.40769C51.1632 8.03038 51.6392 7.84172 52.179 7.84172C52.4867 7.84172 52.7218 7.9375 52.8843 8.12906C53.0526 8.32062 53.1368 8.55282 53.1368 8.82564C53.1368 9.09267 53.0556 9.32776 52.893 9.53093C52.7363 9.7341 52.5244 9.83569 52.2574 9.83569C51.9381 9.83569 51.645 9.86761 51.378 9.93147C51.1167 9.99532 50.87 10.0998 50.6378 10.2449C50.4056 10.3842 50.2228 10.5903 50.0893 10.8631C49.9616 11.1302 49.8977 11.4523 49.8977 11.8297V15.2864C49.8977 15.7392 49.7932 16.0817 49.5843 16.3139C49.3753 16.5461 49.0734 16.6622 48.6787 16.6622Z" fill="#989EBB"/>
<path d="M55.839 16.6622C55.4443 16.6622 55.1424 16.5403 54.9334 16.2965C54.7245 16.0527 54.62 15.6957 54.62 15.2255V9.35679C54.62 8.8924 54.7216 8.5383 54.9247 8.2945C55.1337 8.04489 55.4269 7.92009 55.8042 7.92009C56.1989 7.92009 56.5037 8.04489 56.7184 8.2945C56.939 8.5383 57.0493 8.8924 57.0493 9.35679V15.2255C57.0493 15.6899 56.9448 16.0469 56.7358 16.2965C56.5327 16.5403 56.2337 16.6622 55.839 16.6622ZM55.8303 6.16993C55.4181 6.16993 55.0873 6.05383 54.8377 5.82163C54.5881 5.58944 54.4633 5.28469 54.4633 4.90737C54.4633 4.53006 54.5881 4.2253 54.8377 3.99311C55.0931 3.75511 55.4269 3.63611 55.839 3.63611C56.2453 3.63611 56.5733 3.75511 56.8229 3.99311C57.0783 4.2253 57.206 4.53006 57.206 4.90737C57.206 5.28469 57.0783 5.58944 56.8229 5.82163C56.5733 6.05383 56.2424 6.16993 55.8303 6.16993Z" fill="#989EBB"/>
<path d="M65.2458 16.9234C64.3867 16.9234 63.5856 16.7725 62.8426 16.4706C62.0996 16.1688 61.4552 15.745 60.9096 15.1994C60.3639 14.6479 59.9343 13.96 59.6209 13.1357C59.3132 12.3115 59.1594 11.403 59.1594 10.4104C59.1594 9.38871 59.319 8.45704 59.6383 7.61533C59.9576 6.77363 60.3958 6.07124 60.9531 5.50817C61.5162 4.9451 62.1808 4.50974 62.9471 4.20208C63.7191 3.89442 64.555 3.7406 65.4548 3.7406C66.6854 3.7406 67.8115 4.01342 68.8332 4.55908C68.9783 4.64035 69.0973 4.73903 69.1902 4.85513C69.2889 4.96542 69.3585 5.07861 69.3992 5.19471C69.4456 5.31081 69.4688 5.43271 69.4688 5.56042C69.4688 5.84485 69.3701 6.09736 69.1728 6.31795C68.9754 6.53273 68.7316 6.64012 68.4414 6.64012C68.3775 6.64012 68.3078 6.63431 68.2324 6.6227C68.1627 6.60529 68.0931 6.58207 68.0234 6.55305C67.9944 6.54144 67.8986 6.5037 67.7361 6.43985C67.5793 6.37019 67.4632 6.32085 67.3878 6.29183C67.3123 6.2628 67.1904 6.22217 67.0221 6.16993C66.8537 6.11188 66.7057 6.07124 66.578 6.04802C66.4503 6.019 66.2965 5.99288 66.1165 5.96966C65.9424 5.94644 65.7682 5.93483 65.5941 5.93483C63.2431 5.93483 62.0676 7.40636 62.0676 10.3494C62.0676 11.76 62.3666 12.8426 62.9645 13.5972C63.5624 14.3519 64.4331 14.7292 65.5767 14.7292C66.4474 14.7292 67.3616 14.4738 68.3195 13.9629C68.3775 13.9339 68.4384 13.9107 68.5023 13.8933C68.5662 13.8759 68.6271 13.8672 68.6852 13.8672C68.8477 13.8672 68.9986 13.9165 69.1379 14.0152C69.2772 14.1081 69.3875 14.2329 69.4688 14.3896C69.5501 14.5463 69.5907 14.7118 69.5907 14.8859C69.5907 15.269 69.4079 15.5912 69.0422 15.8524C68.0147 16.5664 66.7492 16.9234 65.2458 16.9234Z" fill="#989EBB"/>
<path d="M70.9781 14.2764C70.9781 13.8817 71.0216 13.5421 71.1087 13.2576C71.1958 12.9674 71.3409 12.7207 71.5441 12.5175C71.7472 12.3086 71.9852 12.1402 72.2581 12.0125C72.5367 11.8848 72.8937 11.7832 73.3291 11.7078C73.7702 11.6323 74.2346 11.5829 74.7222 11.5597C75.2098 11.5307 75.8019 11.5162 76.4985 11.5162V10.8893C76.4985 9.89083 76.0051 9.39162 75.0183 9.39162C74.699 9.39162 74.3594 9.43225 73.9995 9.51352C73.6396 9.59479 73.3726 9.66735 73.1984 9.7312C73.0243 9.78925 72.7892 9.87922 72.4932 10.0011C72.4641 10.0127 72.4322 10.0243 72.3974 10.036C72.3684 10.0418 72.3393 10.0476 72.3103 10.0534C72.2813 10.0534 72.2523 10.0534 72.2232 10.0534C72.0085 10.0534 71.8256 9.96049 71.6747 9.77474C71.5238 9.58898 71.4483 9.38291 71.4483 9.15652C71.4483 9.0114 71.4831 8.88079 71.5528 8.76469C71.6224 8.64279 71.7298 8.54701 71.8749 8.47735C72.8386 8.01877 73.927 7.78948 75.1402 7.78948C75.6916 7.78948 76.1821 7.85333 76.6117 7.98104C77.0471 8.10294 77.4302 8.2974 77.7611 8.56443C78.0977 8.83145 78.3561 9.19425 78.536 9.65283C78.716 10.1056 78.8059 10.6455 78.8059 11.2724V15.4606C78.8059 15.8437 78.6956 16.1427 78.4751 16.3574C78.2545 16.5664 77.9962 16.6709 77.7001 16.6709C77.5085 16.6709 77.3257 16.6245 77.1516 16.5316C76.7684 16.3226 76.5769 15.9627 76.5769 15.4519V15.2081C76.3795 15.7131 76.0486 16.0991 75.5842 16.3661C75.1257 16.6332 74.5829 16.7667 73.956 16.7667C73.0911 16.7667 72.3771 16.5432 71.814 16.0962C71.2567 15.6492 70.9781 15.0426 70.9781 14.2764ZM74.3565 15.33C74.6177 15.33 74.8731 15.2748 75.1228 15.1645C75.3782 15.0484 75.6075 14.8917 75.8106 14.6943C76.0138 14.4912 76.1763 14.2416 76.2982 13.9455C76.4259 13.6437 76.4898 13.3244 76.4898 12.9877V12.7004C76.1125 12.7004 75.7961 12.7033 75.5407 12.7091C75.2911 12.7149 75.0357 12.7294 74.7745 12.7526C74.5191 12.7758 74.3101 12.8078 74.1475 12.8484C73.9908 12.889 73.8399 12.9442 73.6948 13.0138C73.5496 13.0777 73.4365 13.159 73.3552 13.2576C73.2797 13.3563 73.2188 13.4753 73.1723 13.6146C73.1317 13.7482 73.1114 13.9049 73.1114 14.0848C73.1114 14.4738 73.2217 14.7785 73.4423 14.9991C73.6686 15.2197 73.9734 15.33 74.3565 15.33Z" fill="#989EBB"/>
<path d="M81.1598 15.7566C81.0495 15.6812 80.9654 15.5912 80.9073 15.4867C80.8551 15.3764 80.829 15.2603 80.829 15.1384C80.829 15.0397 80.8464 14.944 80.8812 14.8511C80.9218 14.7582 80.9741 14.674 81.0379 14.5986C81.1018 14.5231 81.183 14.4651 81.2817 14.4244C81.3804 14.378 81.482 14.3548 81.5865 14.3548C81.7432 14.3548 81.8999 14.3983 82.0567 14.4854C82.0683 14.4912 82.1205 14.5231 82.2134 14.5812C82.3121 14.6334 82.3788 14.6682 82.4137 14.6856C82.4485 14.7031 82.5153 14.7379 82.6139 14.7901C82.7184 14.8366 82.7997 14.8714 82.8577 14.8946C82.9216 14.9178 83.0058 14.9498 83.1103 14.9904C83.2147 15.031 83.3105 15.063 83.3976 15.0862C83.4905 15.1036 83.5921 15.1239 83.7024 15.1471C83.8184 15.1703 83.9374 15.1878 84.0593 15.1994C84.1812 15.2052 84.3032 15.2081 84.4251 15.2081C84.6456 15.2081 84.8517 15.1936 85.0433 15.1645C85.2406 15.1297 85.4264 15.0746 85.6005 14.9991C85.7747 14.9236 85.9111 14.8162 86.0098 14.6769C86.1143 14.5318 86.1665 14.3635 86.1665 14.1719C86.1665 13.9629 86.0707 13.7772 85.8792 13.6146C85.6934 13.4521 85.4119 13.3215 85.0346 13.2228L83.7372 12.8832C83.4295 12.7962 83.1741 12.7236 82.9709 12.6656C82.7736 12.6017 82.5617 12.5262 82.3353 12.4392C82.1089 12.3463 81.9261 12.2563 81.7867 12.1692C81.6474 12.0764 81.5081 11.9661 81.3688 11.8384C81.2353 11.7107 81.1308 11.5742 81.0553 11.4291C80.9857 11.2782 80.9276 11.104 80.8812 10.9067C80.8348 10.7093 80.8115 10.4887 80.8115 10.2449C80.8115 9.8502 80.8957 9.4961 81.064 9.18264C81.2382 8.86338 81.482 8.59925 81.7955 8.39028C82.1089 8.18131 82.4804 8.02167 82.91 7.91138C83.3395 7.80109 83.8155 7.74594 84.338 7.74594C85.3074 7.74594 86.2507 7.96072 87.1678 8.39028C87.342 8.47155 87.4697 8.58184 87.551 8.72116C87.638 8.85467 87.6816 8.99689 87.6816 9.14781C87.6816 9.33937 87.6177 9.50771 87.49 9.65283C87.3623 9.79215 87.194 9.86181 86.985 9.86181C86.9269 9.86181 86.866 9.856 86.8021 9.8444C86.7441 9.83279 86.6831 9.81537 86.6193 9.79215C86.6019 9.78635 86.5728 9.77474 86.5322 9.75732C85.7195 9.47288 85.0288 9.33067 84.4599 9.33067C84.2103 9.33067 83.9781 9.35389 83.7633 9.40032C83.5543 9.44676 83.3715 9.53384 83.2147 9.66154C83.0638 9.78344 82.9884 9.93727 82.9884 10.123C82.9884 10.3784 83.0696 10.57 83.2322 10.6977C83.3947 10.8196 83.6907 10.9328 84.1203 11.0373L85.409 11.3595C85.885 11.4814 86.2855 11.6149 86.6106 11.76C86.9415 11.8993 87.2288 12.0735 87.4726 12.2824C87.7222 12.4856 87.9051 12.7294 88.0212 13.0138C88.1373 13.2983 88.1953 13.6292 88.1953 14.0065C88.1953 14.6102 88.0386 15.1239 87.7251 15.5477C87.4116 15.9714 86.9908 16.2849 86.4626 16.488C85.9401 16.6854 85.3364 16.7841 84.6514 16.7841C83.2989 16.7841 82.135 16.4416 81.1598 15.7566Z" fill="#989EBB"/>
<path d="M98.3683 11.0721L98.3596 15.2429C98.3596 15.7015 98.2551 16.0527 98.0462 16.2965C97.8372 16.5403 97.5353 16.6622 97.1406 16.6622C96.7633 16.6622 96.4672 16.5403 96.2525 16.2965C96.0435 16.0527 95.939 15.7015 95.939 15.2429V11.1418C95.939 10.5729 95.7939 10.1375 95.5036 9.83569C95.2192 9.52803 94.8506 9.3742 94.3978 9.3742C93.8521 9.3742 93.382 9.58608 92.9872 10.0098C92.5925 10.4278 92.3951 10.9734 92.3951 11.6468V15.2429C92.3951 15.7015 92.2877 16.0527 92.073 16.2965C91.864 16.5403 91.5621 16.6622 91.1674 16.6622C90.7901 16.6622 90.494 16.5403 90.2793 16.2965C90.0703 16.0527 89.9658 15.7015 89.9658 15.2429V5.48205C89.9658 5.02927 90.0674 4.68098 90.2706 4.43718C90.4795 4.19337 90.7727 4.07147 91.15 4.07147C91.5447 4.07147 91.8495 4.19337 92.0643 4.43718C92.279 4.68098 92.3864 5.02927 92.3864 5.48205V9.14781C92.6593 8.70664 93.0337 8.36706 93.5097 8.12906C93.9857 7.89106 94.5516 7.77206 95.2076 7.77206C95.6429 7.77206 96.0464 7.83882 96.4179 7.97233C96.7894 8.10004 97.1232 8.2945 97.4192 8.55572C97.7153 8.81113 97.9475 9.15652 98.1158 9.59188C98.2841 10.0214 98.3683 10.5149 98.3683 11.0721Z" fill="#989EBB"/>
<path d="M14.6724 4.93535H16.192C16.1913 4.33103 15.951 3.75166 15.5236 3.32434C15.0963 2.89703 14.517 2.65665 13.9126 2.65594V4.17555C14.1141 4.17577 14.3072 4.2559 14.4497 4.39834C14.5921 4.54078 14.6722 4.73391 14.6724 4.93535Z" fill="#989EBB"/>
<path d="M13.913 0.388794V1.9084C14.7188 1.9093 15.4913 2.22979 16.0611 2.79956C16.6308 3.36932 16.9513 4.14183 16.9522 4.9476H18.4718C18.4705 3.73894 17.9898 2.58016 17.1351 1.72551C16.2804 0.870856 15.1217 0.390126 13.913 0.388794V0.388794Z" fill="#989EBB"/>
<path d="M16.1917 9.50714H12.3927C11.9897 9.50714 11.6032 9.66724 11.3182 9.95222C11.0332 10.2372 10.8731 10.6237 10.8731 11.0267V12.5463C10.8731 12.9494 11.0332 13.3359 11.3182 13.6209C11.6032 13.9058 11.9897 14.0659 12.3927 14.0659H16.1917C16.3933 14.0659 16.5865 13.9859 16.729 13.8434C16.8715 13.7009 16.9516 13.5077 16.9516 13.3061V10.2669C16.9516 10.0654 16.8715 9.87217 16.729 9.72968C16.5865 9.58719 16.3933 9.50714 16.1917 9.50714Z" fill="#989EBB"/>
<path d="M10.1131 12.5459V11.0263C10.1138 10.422 10.3542 9.8426 10.7815 9.41528C11.2088 8.98796 11.7882 8.74759 12.3925 8.74688H15.4317V7.98708C15.4308 7.18131 15.1103 6.4088 14.5405 5.83904C13.9708 5.26927 13.1983 4.94878 12.3925 4.94788H0.995458C0.793946 4.94788 0.600688 5.02793 0.458197 5.17042C0.315707 5.31291 0.235657 5.50617 0.235657 5.70768L0.235657 17.8645C0.235657 18.066 0.315707 18.2593 0.458197 18.4018C0.600688 18.5443 0.793946 18.6243 0.995458 18.6243H12.3925C13.1983 18.6234 13.9708 18.3029 14.5405 17.7331C15.1103 17.1634 15.4308 16.3909 15.4317 15.5851V14.8253H12.3925C11.7882 14.8246 11.2088 14.5842 10.7815 14.1569C10.3542 13.7296 10.1138 13.1502 10.1131 12.5459ZM7.83367 10.2665H5.17437C5.07361 10.2665 4.97698 10.3065 4.90574 10.3778C4.83449 10.449 4.79447 10.5456 4.79447 10.6464C4.79447 10.7471 4.83449 10.8438 4.90574 10.915C4.97698 10.9863 5.07361 11.0263 5.17437 11.0263H5.93417C6.40523 11.0258 6.85966 11.2004 7.20924 11.5161C7.55883 11.8319 7.77862 12.2662 7.82596 12.7349C7.8733 13.2036 7.74481 13.6731 7.46543 14.0524C7.18605 14.4316 6.77571 14.6936 6.31407 14.7873V15.5851H4.79447V14.8253H3.27486V13.3057H5.93417C6.03492 13.3057 6.13155 13.2657 6.2028 13.1944C6.27404 13.1232 6.31407 13.0265 6.31407 12.9258C6.31407 12.825 6.27404 12.7284 6.2028 12.6572C6.13155 12.5859 6.03492 12.5459 5.93417 12.5459H5.17437C4.70331 12.5464 4.24888 12.3718 3.89929 12.0561C3.54971 11.7403 3.32991 11.306 3.28257 10.8373C3.23523 10.3686 3.36372 9.89907 3.64311 9.5198C3.92249 9.14054 4.33283 8.87861 4.79447 8.78487V7.98708H6.31407V8.74688H7.83367V10.2665Z" fill="#989EBB"/>
<rect x="1.74147" y="7.29382" width="7.34721" height="9.56022" fill="#989EBB"/>
</svg>
