<svg width="22" height="22" viewBox="0 0 22 22" fill="none" xmlns="http://www.w3.org/2000/svg">
<mask id="path-1-inside-1_1571_11131" fill="white">
<path d="M13.75 21.5L7.75 21.5C2.32 21.5 -1.67677e-06 19.18 -1.20206e-06 13.75L-6.77527e-07 7.75C-2.02821e-07 2.32 2.32 2.02821e-07 7.75 6.77527e-07L13.75 1.20206e-06C19.18 1.67677e-06 21.5 2.32 21.5 7.75L21.5 13.75C21.5 19.18 19.18 21.5 13.75 21.5ZM7.75 1.5C3.14 1.5 1.5 3.14 1.5 7.75L1.5 13.75C1.5 18.36 3.14 20 7.75 20L13.75 20C18.36 20 20 18.36 20 13.75L20 7.75C20 3.14 18.36 1.5 13.75 1.5L7.75 1.5Z"/>
</mask>
<path d="M13.75 21.5L7.75 21.5C2.32 21.5 -1.67677e-06 19.18 -1.20206e-06 13.75L-6.77527e-07 7.75C-2.02821e-07 2.32 2.32 2.02821e-07 7.75 6.77527e-07L13.75 1.20206e-06C19.18 1.67677e-06 21.5 2.32 21.5 7.75L21.5 13.75C21.5 19.18 19.18 21.5 13.75 21.5ZM7.75 1.5C3.14 1.5 1.5 3.14 1.5 7.75L1.5 13.75C1.5 18.36 3.14 20 7.75 20L13.75 20C18.36 20 20 18.36 20 13.75L20 7.75C20 3.14 18.36 1.5 13.75 1.5L7.75 1.5Z" fill="#575E8D"/>
<path d="M13.75 20L7.75 20L7.75 23L13.75 23L13.75 20ZM7.75 20C5.20719 20 3.74977 19.451 2.89941 18.6006C2.04905 17.7502 1.5 16.2928 1.5 13.75L-1.5 13.75C-1.5 16.6372 -0.889051 19.0548 0.778088 20.7219C2.44523 22.389 4.86281 23 7.75 23L7.75 20ZM1.5 13.75L1.5 7.75L-1.5 7.75L-1.5 13.75L1.5 13.75ZM1.5 7.75C1.5 5.20719 2.04905 3.74977 2.89941 2.89941C3.74977 2.04905 5.20719 1.5 7.75 1.5L7.75 -1.5C4.86281 -1.5 2.44523 -0.889049 0.77809 0.77809C-0.889049 2.44523 -1.5 4.86281 -1.5 7.75L1.5 7.75ZM7.75 1.5L13.75 1.5L13.75 -1.5L7.75 -1.5L7.75 1.5ZM13.75 1.5C16.2928 1.5 17.7502 2.04905 18.6006 2.89941C19.451 3.74977 20 5.20719 20 7.75L23 7.75C23 4.86282 22.389 2.44523 20.7219 0.778092C19.0548 -0.889047 16.6372 -1.5 13.75 -1.5L13.75 1.5ZM20 7.75L20 13.75L23 13.75L23 7.75L20 7.75ZM20 13.75C20 16.2928 19.4509 17.7502 18.6006 18.6006C17.7502 19.451 16.2928 20 13.75 20L13.75 23C16.6372 23 19.0548 22.3891 20.7219 20.7219C22.389 19.0548 23 16.6372 23 13.75L20 13.75ZM7.75 6.77527e-07C5.33917 4.66765e-07 3.25797 0.413213 1.83559 1.83559C0.413212 3.25797 -4.66765e-07 5.33917 -6.77527e-07 7.75L3 7.75C3 5.55083 3.40679 4.50703 3.95691 3.95691C4.50703 3.40679 5.55083 3 7.75 3L7.75 6.77527e-07ZM-6.77527e-07 7.75L-1.20206e-06 13.75L3 13.75L3 7.75L-6.77527e-07 7.75ZM-1.20206e-06 13.75C-1.41282e-06 16.1608 0.413211 18.242 1.83559 19.6644C3.25797 21.0868 5.33917 21.5 7.75 21.5L7.75 18.5C5.55083 18.5 4.50703 18.0932 3.95691 17.5431C3.40679 16.993 3 15.9492 3 13.75L-1.20206e-06 13.75ZM7.75 21.5L13.75 21.5L13.75 18.5L7.75 18.5L7.75 21.5ZM13.75 21.5C16.1608 21.5 18.242 21.0868 19.6644 19.6644C21.0868 18.242 21.5 16.1608 21.5 13.75L18.5 13.75C18.5 15.9492 18.0932 16.993 17.5431 17.5431C16.993 18.0932 15.9492 18.5 13.75 18.5L13.75 21.5ZM21.5 13.75L21.5 7.75L18.5 7.75L18.5 13.75L21.5 13.75ZM21.5 7.75C21.5 5.33917 21.0868 3.25797 19.6644 1.83559C18.242 0.413214 16.1608 1.41282e-06 13.75 1.20206e-06L13.75 3C15.9492 3 16.993 3.40679 17.5431 3.95691C18.0932 4.50703 18.5 5.55083 18.5 7.75L21.5 7.75ZM13.75 1.20206e-06L7.75 6.77527e-07L7.75 3L13.75 3L13.75 1.20206e-06Z" fill="#575E8D" mask="url(#path-1-inside-1_1571_11131)"/>
<path d="M14.5894 6.90025C15.1475 7.45828 15.5055 8.14321 15.6636 8.86408C15.5026 8.15143 15.1448 7.4743 14.5901 6.91961C13.0272 5.35672 10.4923 5.35672 8.92945 6.9196C8.92945 6.9196 8.92945 6.91961 8.92945 6.91961L6.50941 9.33958L6.5094 9.33959C6.14173 9.70727 5.86632 10.143 5.6968 10.6178C5.86322 10.1341 6.13797 9.69236 6.51006 9.32027C6.51006 9.32027 6.51006 9.32027 6.51007 9.32027L8.93011 6.90026L8.93011 6.90025C10.4872 5.34315 13.0323 5.34315 14.5894 6.90025ZM8.95223 13.2906C8.97551 12.8214 9.16312 12.378 9.48126 12.0402C9.1632 12.3848 8.97552 12.8218 8.95223 13.2906Z" fill="#012552" stroke="#575E8D" stroke-width="1.5"/>
</svg>
