<svg width="91" height="19" viewBox="0 0 91 19" fill="none" xmlns="http://www.w3.org/2000/svg">
<path d="M52.9602 13.9218C52.9602 14.0667 52.9602 14.1617 52.9602 14.2567C52.9603 15.3538 52.9621 16.451 52.9584 17.5481C52.9579 17.7034 52.9527 17.8649 52.9113 18.0128C52.8019 18.404 52.4356 18.6375 51.9989 18.6181C51.6084 18.6007 51.2805 18.3201 51.2035 17.9288C51.183 17.8246 51.1766 17.716 51.1766 17.6094C51.1754 13.2293 51.1751 8.8491 51.1761 4.46899C51.1762 3.80874 51.5471 3.42611 52.1461 3.45899C52.552 3.48131 52.8928 3.79949 52.9395 4.20703C52.9545 4.33763 52.9595 4.47006 52.9596 4.60167C52.9608 6.69686 52.9604 8.79212 52.9604 10.8873C52.9604 10.9827 52.9604 11.078 52.9604 11.2491C53.085 11.1509 53.154 11.102 53.2167 11.0462C54.6945 9.73107 56.1695 8.41289 57.6519 7.10301C57.8017 6.97059 57.9826 6.84376 58.1706 6.79018C58.5799 6.67354 58.9799 6.87356 59.17 7.23865C59.3598 7.60292 59.2868 8.02372 58.9607 8.31725C58.097 9.0949 57.2273 9.86595 56.3593 10.6389C55.7006 11.2255 55.0416 11.8119 54.3804 12.3958C54.3198 12.4494 54.2429 12.4844 54.1423 12.5478C54.5335 12.9003 54.8609 13.1973 55.1903 13.492C56.4986 14.6627 57.7999 15.8417 59.1205 16.9985C59.6172 17.4337 59.5621 18.1214 59.15 18.4398C58.7988 18.7111 58.3186 18.6833 57.9533 18.357C56.8282 17.3522 55.7053 16.345 54.5815 15.3388C54.1087 14.9155 53.6359 14.492 53.162 14.0698C53.1151 14.028 53.0605 13.9948 52.9602 13.9218Z" fill="#989EBB"/>
<path d="M49.3067 13.3546C49.3067 14.8146 49.3089 16.2746 49.3053 17.7346C49.3042 18.1696 49.0342 18.4984 48.6237 18.5903C48.2329 18.6778 47.8214 18.4972 47.6582 18.1225C47.5824 17.9486 47.5625 17.739 47.5621 17.5454C47.5559 14.8647 47.5577 12.1839 47.5573 9.50305C47.557 7.8135 46.4187 6.57676 44.7383 6.53192C43.1069 6.48847 41.9176 7.77112 41.8678 9.13457C41.809 10.749 41.8408 12.3668 41.8363 13.9831C41.8352 14.3595 41.6715 14.6377 41.3371 14.7972C41.0108 14.9529 40.6938 14.9058 40.4099 14.6785C40.2047 14.5143 40.0965 14.2939 40.096 14.0344C40.0928 12.4012 40.061 10.7671 40.1048 9.13501C40.1537 7.31492 41.4037 5.6758 43.1328 5.04988C44.8835 4.41616 46.8166 4.88658 48.0901 6.27027C48.894 7.14369 49.3042 8.17991 49.3065 9.3705C49.3093 10.6985 49.3073 12.0266 49.3067 13.3546Z" fill="#989EBB"/>
<path d="M45.5738 11.8785C45.5738 12.6781 45.6016 13.479 45.5684 14.2773C45.4771 16.4772 43.679 18.3606 41.4886 18.5817C38.8045 18.8524 36.4964 16.9151 36.3819 14.2256C36.3137 12.6209 36.3493 11.0114 36.3552 9.40406C36.3572 8.85353 36.7506 8.48008 37.2545 8.49077C37.7589 8.50152 38.1065 8.88617 38.1072 9.44241C38.1087 10.9514 38.104 12.4603 38.1088 13.9692C38.1131 15.3402 39.025 16.4926 40.3293 16.7891C42.1288 17.1981 43.823 15.849 43.8251 14.0033C43.8267 12.5026 43.8271 11.0019 43.824 9.50127C43.8234 9.18994 43.8921 8.90799 44.1402 8.70362C44.4181 8.4748 44.7385 8.41726 45.0656 8.57321C45.3957 8.7306 45.5815 9.0047 45.5829 9.38004C45.586 10.2128 45.5839 11.0456 45.5839 11.8784C45.5806 11.8784 45.5772 11.8785 45.5738 11.8785Z" fill="#989EBB"/>
<path d="M29.9652 8.42153C29.9652 9.73228 29.9385 11.0437 29.9713 12.3537C30.0246 14.4876 31.8557 16.4938 33.973 16.7794C34.2581 16.8178 34.5467 16.8299 34.8334 16.8564C35.3183 16.9012 35.6735 17.2965 35.6552 17.7687C35.6366 18.2493 35.2637 18.6084 34.7727 18.6187C31.7704 18.6813 29.0126 16.5048 28.346 13.5232C28.2428 13.0612 28.1919 12.5783 28.1891 12.1047C28.1742 9.52377 28.1811 6.94281 28.1827 4.36186C28.1831 3.74248 28.7089 3.32891 29.2954 3.47995C29.6955 3.58295 29.9471 3.9276 29.9478 4.38934C29.9499 5.73342 29.9486 7.0775 29.9486 8.42159C29.954 8.42152 29.9596 8.42153 29.9652 8.42153Z" fill="#989EBB"/>
<path d="M37.2495 4.78162C37.8969 4.78395 38.4322 5.31542 38.4378 5.96159C38.4435 6.60505 37.8846 7.16469 37.2384 7.16268C36.5827 7.1606 36.0448 6.61951 36.0459 5.96316C36.0471 5.30517 36.5828 4.77923 37.2495 4.78162Z" fill="#989EBB"/>
<path d="M1.07757 17.3643C0.837367 17.133 0.717453 16.855 0.717453 16.5302V1.4928C0.717453 1.16004 0.837367 0.880026 1.07757 0.652648C1.31759 0.425521 1.60722 0.311707 1.94678 0.311707H6.95098C9.02876 0.311707 10.5644 0.691256 11.5578 1.45017C12.5512 2.20927 13.0479 3.27466 13.0479 4.64641C13.0479 5.68559 12.7394 6.57026 12.1228 7.30081C11.506 8.03137 10.6222 8.46971 9.47169 8.61585V8.66451C10.8209 8.81065 11.8785 9.25509 12.6444 9.99785C13.4099 10.7406 13.7929 11.7573 13.7929 13.048C13.7929 13.6568 13.6688 14.2351 13.4204 14.783C13.1721 15.331 12.8099 15.8262 12.3339 16.2685C11.8578 16.711 11.2226 17.062 10.4279 17.3217C9.63311 17.5816 8.73077 17.7113 7.7209 17.7113H1.94684C1.60728 17.7113 1.31759 17.5956 1.07757 17.3643ZM6.59092 7.81216C7.98984 7.81216 9.01015 7.5768 9.65178 7.10595C10.2932 6.63528 10.6141 5.86398 10.6141 4.79249C10.6141 4.35414 10.5458 3.97667 10.4093 3.66012C10.2727 3.34358 10.0967 3.09206 9.88149 2.90524C9.66612 2.71861 9.38888 2.57247 9.04951 2.46689C8.71002 2.3615 8.37278 2.29032 8.0375 2.25379C7.70222 2.21725 7.30682 2.19896 6.85169 2.19896H3.20094V7.81216H6.59092ZM7.21181 15.7996C8.61073 15.7996 9.62273 15.5865 10.2478 15.1604C10.8728 14.7343 11.1854 13.9287 11.1854 12.7434C11.1854 11.5745 10.7962 10.7751 10.0182 10.3448C9.23998 9.91459 8.00656 9.69941 6.31777 9.69941H3.20094V15.7996H7.21181V15.7996Z" fill="#989EBB"/>
<path d="M18.1331 17.1756C17.2142 16.6805 16.4835 15.9519 15.9414 14.99C15.3991 14.028 15.128 12.9059 15.128 11.6232C15.128 10.4951 15.3557 9.4641 15.811 8.5305C16.2662 7.59716 16.9533 6.838 17.8723 6.25358C18.7912 5.66916 19.8632 5.37689 21.0884 5.37689C22.057 5.37689 22.9054 5.53523 23.634 5.85177C24.3623 6.16838 24.9419 6.60483 25.3724 7.1607C25.8027 7.71682 26.1256 8.33777 26.3409 9.02362C26.5561 9.70965 26.6762 10.4625 26.701 11.2822C26.701 11.5178 26.6346 11.7126 26.5023 11.8667C26.3698 12.021 26.1711 12.0981 25.9063 12.0981H17.388C17.4044 13.4943 17.7853 14.5516 18.5303 15.2699C19.2754 15.9883 20.2315 16.3557 21.3988 16.3718C22.1355 16.3718 22.7977 16.2421 23.3856 15.9822C23.9733 15.7225 24.5652 15.3694 25.1613 14.9229C25.3103 14.8092 25.4674 14.7524 25.6331 14.7524C25.8318 14.7524 25.9994 14.8275 26.1361 14.9776C26.2726 15.128 26.3409 15.3045 26.3409 15.5073C26.3409 15.7672 26.2249 15.9986 25.9932 16.2014C24.6851 17.3541 23.1041 17.9303 21.2498 17.9303C20.0907 17.9223 19.0519 17.6708 18.1331 17.1756ZM24.7391 10.7466C24.6646 9.61023 24.3375 8.68079 23.7581 7.95829C23.1786 7.23591 22.3301 6.87459 21.2125 6.87459C20.633 6.87459 20.1074 6.98419 19.6355 7.20334C19.1637 7.42254 18.7766 7.71682 18.4745 8.08612C18.1722 8.45561 17.9321 8.86541 17.7543 9.31595C17.5761 9.76649 17.4665 10.2434 17.4252 10.7466H24.7391V10.7466Z" fill="#989EBB"/>
<path d="M63.3098 17.7822C62.3909 17.2871 61.6603 16.5584 61.1182 15.5965C60.5759 14.6346 60.3048 13.5125 60.3048 12.2298C60.3048 11.1017 60.5323 10.0707 60.9877 9.13707C61.4429 8.20373 62.1301 7.44457 63.049 6.86015C63.9679 6.27573 65.0399 5.98346 66.2651 5.98346C67.2337 5.98346 68.0821 6.14179 68.8106 6.45834C69.539 6.77494 70.1186 7.2114 70.5491 7.76727C70.9794 8.32339 71.3023 8.94434 71.5176 9.63019C71.7328 10.3162 71.8529 11.069 71.8777 11.8888C71.8777 12.1244 71.8113 12.3192 71.6791 12.4733C71.5466 12.6276 71.3478 12.7046 71.083 12.7046H62.5647C62.5812 14.1009 62.9621 15.1581 63.7071 15.8765C64.4522 16.5949 65.4083 16.9622 66.5755 16.9784C67.3123 16.9784 67.9744 16.8487 68.5623 16.5888C69.15 16.3291 69.742 15.976 70.338 15.5294C70.487 15.4158 70.6441 15.359 70.8099 15.359C71.0085 15.359 71.1762 15.4341 71.3127 15.5842C71.4494 15.7346 71.5177 15.9111 71.5177 16.1139C71.5177 16.3738 71.4016 16.6051 71.17 16.8079C69.8619 17.9607 68.2808 18.5369 66.4265 18.5369C65.2675 18.5289 64.2286 18.2773 63.3098 17.7822ZM69.9158 11.3532C69.8413 10.2169 69.5142 9.28742 68.9348 8.56492C68.3553 7.84254 67.5069 7.48122 66.3893 7.48122C65.8098 7.48122 65.2842 7.59083 64.8124 7.80997C64.3404 8.02917 63.9534 8.32345 63.6513 8.69276C63.349 9.06224 63.109 9.47204 62.9311 9.92258C62.753 10.3731 62.6433 10.8501 62.602 11.3533H69.9158V11.3532Z" fill="#989EBB"/>
<path d="M73.8508 18.0499C73.6354 17.8715 73.5279 17.6198 73.5279 17.295V7.24973C73.5279 6.92514 73.6396 6.67557 73.8632 6.50088C74.0867 6.32645 74.3516 6.23911 74.6579 6.23911C74.964 6.23911 75.227 6.32645 75.4464 6.50088C75.6656 6.67557 75.7755 6.91697 75.7755 7.22533L75.7631 8.68644C75.9699 7.93155 76.3858 7.30048 77.011 6.79309C77.6359 6.28589 78.3872 6.0321 79.2648 6.0321C79.5296 6.0321 79.7386 6.12951 79.8919 6.32431C80.045 6.51912 80.1216 6.7465 80.1216 7.0062C80.1216 7.24973 80.0512 7.45881 79.9105 7.63324C79.7697 7.80787 79.5669 7.89502 79.302 7.89502C78.1845 7.89502 77.3172 8.1793 76.7006 8.74737C76.0838 9.31569 75.7755 10.0745 75.7755 11.0243V17.295C75.7755 17.6198 75.6616 17.8715 75.434 18.0499C75.2063 18.2286 74.9393 18.3178 74.6331 18.3178C74.3267 18.3178 74.066 18.2286 73.8508 18.0499Z" fill="#989EBB"/>
<path d="M81.1198 16.5643C81.1198 16.3695 81.1901 16.2012 81.3309 16.059C81.4716 15.9171 81.6495 15.8459 81.8649 15.8459C82.0636 15.8459 82.2539 15.9028 82.4361 16.0164C83.5701 16.7064 84.7705 17.0555 86.0371 17.0635C86.9477 17.0635 87.6824 16.887 88.2413 16.5338C88.8 16.1807 89.0794 15.6632 89.0794 14.9814C89.0794 14.4943 88.9221 14.1047 88.6075 13.8125C88.2928 13.5203 87.7713 13.2849 87.0429 13.1063L84.845 12.5705C84.3981 12.4569 84.0358 12.3595 83.7586 12.2783C83.4811 12.1973 83.1831 12.0917 82.8645 11.9617C82.5457 11.832 82.2912 11.6919 82.1008 11.5416C81.9103 11.3915 81.7324 11.211 81.5669 10.9998C81.4012 10.7888 81.2813 10.5413 81.2068 10.257C81.1322 9.973 81.095 9.64822 81.095 9.28294C81.095 8.70664 81.2273 8.19925 81.4924 7.76091C81.7572 7.32257 82.1195 6.97552 82.5788 6.71985C83.0383 6.46418 83.5536 6.27352 84.1248 6.14757C84.696 6.02181 85.3169 5.95886 85.9874 5.95886C86.7903 5.95886 87.5458 6.05438 88.2536 6.24497C88.9614 6.43582 89.5387 6.64886 89.9858 6.88422C90.3087 7.04671 90.4701 7.28603 90.4701 7.60264C90.4701 7.78946 90.4059 7.94968 90.2776 8.08355C90.1491 8.21749 89.9775 8.28446 89.7623 8.28446C89.6381 8.28446 89.5096 8.26012 89.3773 8.21139C89.3525 8.2034 89.2179 8.15259 88.9738 8.05922C88.7295 7.96603 88.5308 7.89484 88.3777 7.84611C88.2244 7.79744 88.0155 7.73865 87.7506 7.66954C87.4856 7.60069 87.2167 7.54774 86.9435 7.51121C86.6703 7.47467 86.3929 7.45644 86.1115 7.45644C85.2175 7.45644 84.5054 7.59647 83.9757 7.87648C83.4459 8.15656 83.181 8.59698 83.181 9.19762C83.181 9.68469 83.3176 10.0277 83.5908 10.2265C83.864 10.4255 84.4517 10.6344 85.3541 10.8535L87.5023 11.3771C88.7522 11.6775 89.6443 12.1098 90.1782 12.6739C90.7122 13.2382 90.9792 13.9585 90.9792 14.8352C90.9792 15.6631 90.7576 16.3613 90.3148 16.9295C89.8719 17.4977 89.2904 17.9096 88.5702 18.1653C87.85 18.4209 87.0138 18.5489 86.0619 18.5489C85.176 18.5489 84.3172 18.4168 83.4852 18.1531C82.6533 17.8895 81.9889 17.579 81.4923 17.2217C81.244 17.0513 81.1198 16.8322 81.1198 16.5643Z" fill="#989EBB"/>
</svg>
