<svg width="64" height="64" viewBox="0 0 64 64" fill="none" xmlns="http://www.w3.org/2000/svg">
<path d="M43.9166 18C43.9166 11.4276 38.5724 6.08337 32 6.08338C25.428 6.08338 20.0841 11.4268 20.0833 17.9986C20.1091 24.4462 25.1447 29.6577 31.56 29.89L31.5601 29.89L31.5602 29.89L31.5603 29.89L31.5604 29.89L31.5605 29.89L31.5607 29.89L31.5608 29.89L31.5609 29.89L31.561 29.89L31.5611 29.89L31.5612 29.89L31.5613 29.89L31.5614 29.89L31.5615 29.89L31.5616 29.89L31.5617 29.89L31.5618 29.89L31.5619 29.89L31.562 29.89L31.5621 29.89L31.5622 29.89L31.5623 29.89L31.5624 29.89L31.5625 29.89L31.5626 29.89L31.5627 29.89L31.5628 29.89L31.5628 29.89L31.5629 29.89L31.563 29.89L31.5631 29.89L31.5632 29.89L31.5633 29.89L31.5634 29.89L31.5635 29.89L31.5636 29.89L31.5637 29.89L31.5638 29.89L31.5639 29.89L31.564 29.89L31.5641 29.89L31.5642 29.89L31.5643 29.89L31.5644 29.89L31.5644 29.89L31.5645 29.89L31.5646 29.89L31.5647 29.89L31.5648 29.89L31.5649 29.89L31.565 29.89L31.5651 29.89L31.5652 29.89L31.5653 29.89L31.5654 29.89L31.5654 29.89L31.5655 29.89L31.5656 29.89L31.5657 29.89L31.5658 29.89L31.5659 29.89L31.566 29.89L31.5661 29.89L31.5661 29.89L31.5662 29.89L31.5663 29.89L31.5664 29.89L31.5665 29.89L31.5666 29.89L31.5667 29.89L31.5668 29.89L31.5668 29.89L31.5669 29.89L31.567 29.89L31.5671 29.89L31.5672 29.89L31.5673 29.89L31.5674 29.89L31.5674 29.89L31.5675 29.89L31.5676 29.89L31.5677 29.89L31.5678 29.89L31.5679 29.89L31.5679 29.89L31.568 29.89L31.5681 29.89L31.5682 29.89L31.5683 29.89L31.5684 29.89L31.5684 29.89L31.5685 29.89L31.5686 29.89L31.5687 29.89L31.5688 29.89L31.5688 29.89L31.5689 29.89L31.569 29.89L31.5691 29.89L31.5692 29.89L31.5693 29.89L31.5693 29.89L31.5694 29.89L31.5695 29.89L31.5696 29.89L31.5697 29.89L31.5697 29.89L31.5698 29.89L31.5699 29.89L31.57 29.89L31.5701 29.89L31.5701 29.89L31.5702 29.89L31.5703 29.89L31.5704 29.89L31.5705 29.89L31.5705 29.89L31.5706 29.89L31.5707 29.89L31.5708 29.89L31.5709 29.89L31.5709 29.89L31.571 29.89L31.5711 29.89L31.5712 29.89L31.5713 29.89L31.5713 29.89L31.5714 29.89L31.5715 29.89L31.5716 29.89L31.5716 29.89L31.5717 29.89L31.5718 29.89L31.5719 29.89L31.572 29.89L31.572 29.89L31.5721 29.89L31.5722 29.89L31.5723 29.89L31.5724 29.89L31.5724 29.89L31.5725 29.89L31.5726 29.89L31.5727 29.89L31.5727 29.89L31.5728 29.89L31.5729 29.89L31.573 29.89L31.5731 29.89L31.5731 29.89L31.5732 29.89L31.5733 29.89L31.5734 29.89L31.5735 29.89L31.5735 29.89L31.5736 29.89L31.5737 29.89L31.5738 29.89L31.5738 29.89L31.5739 29.89L31.574 29.89L31.5741 29.89L31.5742 29.89L31.5742 29.89L31.5743 29.89L31.5744 29.89L31.5745 29.89L31.5745 29.89L31.5746 29.89L31.5747 29.89L31.5748 29.89L31.5749 29.89L31.5749 29.89L31.575 29.89L31.5751 29.89L31.5752 29.89L31.5753 29.89L31.5753 29.89L31.5754 29.89L31.5755 29.89L31.5756 29.89L31.5756 29.89L31.5757 29.89L31.5758 29.89L31.5759 29.89L31.576 29.89L31.576 29.89L31.5761 29.89L31.5762 29.89L31.5763 29.89L31.5764 29.89L31.5764 29.89L31.5765 29.89L31.5766 29.89L31.5767 29.89L31.5768 29.89L31.5768 29.89L31.5769 29.89L31.577 29.89L31.5771 29.89L31.5772 29.89L31.5772 29.89L31.5773 29.89L31.5774 29.89L31.5775 29.89L31.5776 29.89L31.5777 29.89L31.5777 29.89L31.5778 29.89L31.5779 29.89L31.578 29.89L31.5781 29.89L31.5782 29.89L31.5782 29.89L31.5783 29.89L31.5784 29.89L31.5785 29.89L31.5786 29.89L31.5786 29.89L31.5787 29.89L31.5788 29.89L31.5789 29.89L31.579 29.89L31.5791 29.89L31.5792 29.89L31.5792 29.89L31.5793 29.89L31.5794 29.89L31.5795 29.89L31.5796 29.89L31.5797 29.89L31.5797 29.89L31.5798 29.89L31.5799 29.89L31.58 29.89L31.5801 29.89L31.5802 29.89L31.5803 29.89L31.5804 29.89L31.5804 29.89L31.5805 29.89L31.5806 29.89L31.5807 29.89L31.5808 29.89L31.5809 29.89L31.581 29.89L31.5811 29.89L31.5811 29.89L31.5812 29.89L31.5813 29.89L31.5814 29.89L31.5815 29.89L31.5816 29.89L31.5817 29.89L31.5818 29.89L31.5819 29.89L31.582 29.89L31.582 29.89L31.5821 29.89L31.5822 29.89L31.5823 29.89L31.5824 29.89L31.5825 29.89L31.5826 29.89L31.5827 29.89L31.5828 29.89L31.5829 29.89L31.583 29.89L31.5831 29.89L31.5832 29.89L31.5833 29.89L31.5834 29.89L31.5835 29.89L31.5835 29.89L31.5836 29.89L31.5837 29.89L31.5838 29.89L31.5839 29.89L31.584 29.89L31.5841 29.89L31.5842 29.89L31.5843 29.89L31.5844 29.89L31.5845 29.89L31.5846 29.89L31.5847 29.89L31.5848 29.89L31.5849 29.89L31.585 29.89L31.5851 29.89L31.5852 29.89L31.5853 29.89L31.5854 29.89L31.5855 29.89L31.5856 29.89L31.5857 29.89L31.5858 29.89L31.5859 29.89L31.586 29.89L31.5861 29.89L31.5862 29.89L31.5864 29.89L31.5865 29.89L31.5866 29.89L31.5867 29.89L31.5868 29.89L31.5869 29.89L31.587 29.89L31.5871 29.89L31.5872 29.89L31.5873 29.89L31.5874 29.89L31.5875 29.89L31.5876 29.89L31.5877 29.89L31.5879 29.89L31.588 29.89L31.5881 29.89L31.5882 29.89L31.5883 29.89L31.5884 29.89L31.5885 29.89L31.5886 29.89L31.5888 29.89L31.5889 29.89L31.589 29.89L31.5891 29.89L31.5892 29.89L31.5893 29.89L31.5894 29.89L31.5896 29.89L31.5897 29.89L31.5898 29.89L31.5899 29.89L31.59 29.89L31.5901 29.89L31.5903 29.89L31.5904 29.89L31.5905 29.89L31.5906 29.89L31.5907 29.89L31.5909 29.89L31.591 29.89L31.5911 29.89L31.5912 29.89L31.5914 29.89L31.5915 29.89L31.5916 29.89L31.5917 29.89L31.5918 29.89L31.592 29.89L31.5921 29.89L31.5922 29.89L31.5924 29.89L31.5925 29.89L31.5926 29.89L31.5927 29.89L31.5929 29.89L31.593 29.89L31.5931 29.89L31.5932 29.89L31.5934 29.89L31.5935 29.89L31.5936 29.89L31.5938 29.89L31.5939 29.89L31.594 29.89L31.5942 29.89L31.5943 29.89L31.5944 29.89L31.5946 29.89L31.5947 29.89L31.5948 29.89L31.595 29.89L31.5951 29.89L31.5953 29.89L31.5954 29.89L31.5955 29.89L31.5957 29.89L31.5958 29.89L31.596 29.89L31.5961 29.89L31.5962 29.89L31.5964 29.89L31.5965 29.89L31.5967 29.89L31.5968 29.89L31.597 29.89L31.5971 29.89L31.5972 29.89L31.5974 29.89L31.5975 29.89L31.5977 29.89L31.5978 29.89L31.598 29.89L31.5981 29.89L31.5983 29.89L31.5984 29.89L31.5986 29.89L31.5987 29.89L31.5989 29.89L31.599 29.89L31.5992 29.89L31.5993 29.89L31.5995 29.89L31.5996 29.89L31.5998 29.89L31.6 29.89L31.6003 29.89L31.6006 29.89L31.6009 29.89L31.6012 29.89L31.6015 29.89L31.6018 29.89L31.6021 29.89L31.6024 29.89L31.6027 29.89L31.6031 29.89L31.6034 29.89L31.6037 29.89L31.604 29.89L31.6043 29.89L31.6046 29.89L31.6049 29.89L31.6052 29.89L31.6055 29.89L31.6058 29.89L31.6061 29.89L31.6064 29.89L31.6067 29.89L31.607 29.89L31.6073 29.89L31.6076 29.89L31.6079 29.89L31.6082 29.89L31.6085 29.89L31.6088 29.89L31.6091 29.89L31.6094 29.89L31.6097 29.89L31.61 29.89L31.6102 29.89L31.6105 29.89L31.6108 29.89L31.6111 29.89L31.6114 29.89L31.6117 29.89L31.612 29.89L31.6123 29.89L31.6126 29.89L31.6129 29.89L31.6132 29.89L31.6134 29.89L31.6137 29.89L31.614 29.89L31.6143 29.89L31.6146 29.89L31.6149 29.89L31.6152 29.89L31.6154 29.89L31.6157 29.89L31.616 29.89L31.6163 29.89L31.6166 29.89L31.6169 29.89L31.6171 29.89L31.6174 29.89L31.6177 29.89L31.618 29.89L31.6183 29.89L31.6185 29.89L31.6188 29.89L31.6191 29.89L31.6194 29.89L31.6196 29.89L31.6199 29.89L31.6202 29.89L31.6205 29.89L31.6208 29.89L31.621 29.89L31.6213 29.89L31.6216 29.89L31.6218 29.89L31.6221 29.89L31.6224 29.89L31.6227 29.89L31.6229 29.89L31.6232 29.89L31.6235 29.89L31.6238 29.89L31.624 29.89L31.6243 29.89L31.6246 29.89L31.6248 29.89L31.6251 29.89L31.6254 29.89L31.6256 29.89L31.6259 29.89L31.6262 29.89L31.6264 29.89L31.6267 29.89L31.627 29.89L31.6272 29.89L31.6275 29.89L31.6278 29.89L31.628 29.89L31.6283 29.89L31.6286 29.89L31.6288 29.89L31.6291 29.89L31.6293 29.89L31.6296 29.89L31.6299 29.89L31.6301 29.89L31.6304 29.89L31.6307 29.89L31.6309 29.89L31.6312 29.89L31.6314 29.89L31.6317 29.89L31.6319 29.89L31.6322 29.89L31.6325 29.89L31.6327 29.89L31.633 29.89L31.6332 29.89L31.6335 29.89L31.6338 29.89L31.634 29.89L31.6343 29.89L31.6345 29.89L31.6348 29.89L31.635 29.89L31.6353 29.89L31.6355 29.89L31.6358 29.89L31.636 29.89L31.6363 29.89L31.6366 29.89L31.6368 29.89L31.6371 29.89L31.6373 29.89L31.6376 29.89L31.6378 29.89L31.6381 29.89L31.6383 29.89L31.6386 29.89L31.6388 29.89L31.6391 29.89L31.6393 29.89L31.6396 29.89L31.6398 29.89L31.6401 29.89L31.6403 29.89L31.6406 29.89L31.6408 29.89L31.6411 29.89L31.6413 29.89L31.6416 29.89L31.6418 29.89L31.6421 29.89L31.6423 29.89L31.6425 29.89L31.6428 29.89L31.643 29.89L31.6433 29.89L31.6435 29.89L31.6438 29.89L31.644 29.89L31.6443 29.89L31.6445 29.89L31.6448 29.89L31.645 29.89L31.6452 29.89L31.6455 29.89L31.6457 29.89L31.646 29.89L31.6462 29.89L31.6465 29.89L31.6467 29.89L31.6469 29.89L31.6472 29.89L31.6474 29.89L31.6477 29.89L31.6479 29.89L31.6482 29.89L31.6484 29.89L31.6486 29.89L31.6489 29.89L31.6491 29.89L31.6494 29.89L31.6496 29.89L31.6498 29.89L31.6501 29.89L31.6503 29.89L31.6506 29.89L31.6508 29.89L31.651 29.89L31.6513 29.89L31.6515 29.89L31.6518 29.89L31.652 29.89L31.6522 29.89L31.6525 29.89L31.6527 29.89L31.653 29.89L31.6532 29.89L31.6534 29.89L31.6537 29.89L31.6539 29.89L31.6541 29.89L31.6544 29.89L31.6546 29.89L31.6549 29.89L31.6551 29.89L31.6553 29.89L31.6556 29.89L31.6558 29.89L31.656 29.89L31.6563 29.89L31.6565 29.89L31.6568 29.89L31.657 29.89L31.6572 29.89L31.6575 29.89L31.6577 29.89L31.6579 29.89L31.6582 29.89L31.6584 29.89L31.6586 29.89L31.6589 29.89L31.6591 29.89L31.6593 29.89L31.6596 29.89L31.6598 29.89L31.6601 29.89L31.6603 29.89L31.6605 29.89L31.6608 29.89L31.661 29.89L31.6612 29.89L31.6615 29.89L31.6617 29.89L31.6619 29.89L31.6622 29.89L31.6624 29.89L31.6626 29.89L31.6629 29.89L31.6631 29.89L31.6633 29.89L31.6636 29.89L31.6638 29.89L31.664 29.89L31.6643 29.89L31.6645 29.89L31.6648 29.89L31.665 29.89L31.6652 29.89L31.6655 29.89L31.6657 29.89L31.6659 29.89L31.6662 29.89L31.6664 29.89L31.6666 29.89L31.6669 29.89L31.6671 29.89L31.6673 29.89L31.6676 29.89L31.6678 29.89L31.668 29.89L31.6683 29.89L31.6685 29.89L31.6687 29.89L31.669 29.89L31.6692 29.89L31.6694 29.89L31.6697 29.89L31.6699 29.89L31.6701 29.89L31.6704 29.89L31.6706 29.89L31.6708 29.89L31.6711 29.89L31.6713 29.89L31.6716 29.89L31.6718 29.89L31.672 29.89L31.6723 29.89L31.6725 29.89L31.6727 29.89L31.673 29.89L31.6732 29.89L31.6734 29.89L31.6737 29.89L31.6739 29.89L31.6741 29.89L31.6744 29.89L31.6746 29.89L31.6748 29.89L31.6751 29.89L31.6753 29.89L31.6756 29.89L31.6758 29.89L31.676 29.89L31.6763 29.89L31.6765 29.89L31.6767 29.89L31.677 29.89L31.6772 29.89L31.6774 29.89L31.6777 29.89L31.6779 29.89L31.6782 29.89L31.6784 29.89L31.6786 29.89L31.6788 29.89C31.8919 29.8622 32.1276 29.8651 32.3492 29.8885C38.9102 29.6351 43.9166 24.426 43.9166 18Z" fill="#FF6200" stroke="#FF6200" stroke-width="1.5"/>
<path d="M45.1286 54.284L45.1306 54.2826C48.3391 52.1437 50.0233 49.3143 50.0233 46.3466C50.0233 43.3785 48.3385 40.5228 45.1044 38.3577C41.5054 35.976 36.7514 34.7633 31.9666 34.7633C27.1809 34.7633 22.4407 35.9764 18.8693 38.3573C15.6663 40.4927 14.002 43.3216 13.9766 46.2961C13.9777 49.2902 15.6628 52.1194 18.8726 54.2848C22.4571 56.6911 27.2094 57.9166 32 57.9166C36.7911 57.9166 41.5439 56.6908 45.1286 54.284Z" fill="#FF6200" stroke="#FF6200" stroke-width="1.5"/>
</svg>
