<svg width="25" height="25" viewBox="0 0 25 25" fill="none" xmlns="http://www.w3.org/2000/svg">
<path d="M22.1667 4.58337L2.29166 24.4584C2.04166 24.7084 1.74999 24.8334 1.41666 24.8334C1.08332 24.8334 0.791656 24.7084 0.541656 24.4584C0.291656 24.2084 0.166656 23.9167 0.166656 23.5834C0.166656 23.25 0.291656 22.9584 0.541656 22.7084L20.4167 2.83337H9.41666C9.06249 2.83337 8.76562 2.71289 8.52603 2.47192C8.28645 2.23092 8.16666 1.93231 8.16666 1.57608C8.16666 1.21983 8.28645 0.923652 8.52603 0.687541C8.76562 0.45143 9.06249 0.333374 9.41666 0.333374H23.4167C23.7708 0.333374 24.0677 0.453166 24.3073 0.692749C24.5469 0.932332 24.6667 1.22921 24.6667 1.58337V15.5834C24.6667 15.9375 24.5462 16.2344 24.3052 16.474C24.0642 16.7136 23.7656 16.8334 23.4094 16.8334C23.0531 16.8334 22.7569 16.7136 22.5208 16.474C22.2847 16.2344 22.1667 15.9375 22.1667 15.5834V4.58337Z" fill="#989EBB"/>
</svg>
