<svg width="106" height="106" viewBox="0 0 106 106" fill="none" xmlns="http://www.w3.org/2000/svg">
<path fill-rule="evenodd" clip-rule="evenodd" d="M70.1366 92.3969C70.2691 93.1036 69.8715 93.8544 69.209 94.1194C64.2182 96.1069 58.7417 97.1669 53.0883 97.1669C43.3275 97.1669 34.3174 94.0311 27.0299 88.6427C26.4116 88.2011 26.2351 87.3177 26.6326 86.6552C29.0617 82.3268 38.5573 68.4144 59.5365 60.6411C60.3315 60.3319 61.2148 60.7293 61.4798 61.5243C66.7357 75.6135 69.2091 87.5386 70.1366 92.3969Z" fill="white"/>
<path fill-rule="evenodd" clip-rule="evenodd" d="M96.3719 61.3471C94.3402 72.2121 88.2451 81.6637 79.7209 88.112C78.7934 88.8187 77.4684 88.2886 77.2476 87.1844C76.3201 82.4144 74.0676 72.1236 69.7392 59.8895C69.4301 58.962 70.0486 57.9461 71.0202 57.8136C82.0177 56.4886 91.646 58.6086 95.2677 59.5803C96.0185 59.8453 96.5044 60.5962 96.3719 61.3471Z" fill="white"/>
<path fill-rule="evenodd" clip-rule="evenodd" d="M95.3562 52.2042C90.8512 51.4092 79.3677 49.7308 67.6194 51.0117C66.9128 51.1 66.2944 50.7025 65.9853 50.04C65.8086 49.6425 65.6762 49.245 65.4995 48.8475C64.7928 47.2134 64.042 45.5351 63.2912 43.9009C62.8937 43.1059 63.2911 42.1342 64.0861 41.7808C76.4528 36.4367 83.3427 29.5467 86.0368 26.455C86.6993 25.7042 87.8479 25.7484 88.4662 26.5434C93.5454 33.3009 96.6811 41.56 97.1669 50.4817C97.2111 51.5858 96.3279 52.3809 95.3562 52.2042Z" fill="white"/>
<path fill-rule="evenodd" clip-rule="evenodd" d="M81.4435 21.1553C79.1469 23.9378 72.6986 30.5627 60.4644 35.421C59.7577 35.7302 58.9185 35.421 58.521 34.7143C52.8677 24.4677 46.861 15.8552 44.0785 11.9685C43.416 11.041 43.9461 9.71609 45.0503 9.53943C47.6119 9.09776 50.3061 8.87695 53.0444 8.87695C63.7327 8.87695 73.5819 12.6752 81.2228 19.0352C81.8853 19.5211 81.9735 20.4928 81.4435 21.1553Z" fill="white"/>
<path fill-rule="evenodd" clip-rule="evenodd" d="M48.6718 39.0429C31.9326 43.2387 17.1366 43.8129 11.7482 43.9013C10.7324 43.9013 9.98171 42.9296 10.2467 41.9579C13.4267 29.5913 21.9066 19.2563 33.0808 13.5588C33.7433 13.2054 34.5825 13.4262 35.0241 14.0445C37.3208 17.2245 43.5483 26.1904 49.6433 36.7463C50.1291 37.6296 49.6876 38.7779 48.6718 39.0429Z" fill="white"/>
<path fill-rule="evenodd" clip-rule="evenodd" d="M57.0633 51.2329C57.4608 52.0721 56.9751 53.0879 56.0918 53.397C36.5259 59.7129 24.8218 75.3921 21.2884 80.7804C20.7143 81.6637 19.4776 81.7079 18.8151 80.9129C12.6318 73.3162 8.87759 64.6153 8.87759 54.0595V53.2645C8.87759 52.3812 9.5842 51.6745 10.4675 51.7187C16.0325 51.9395 34.1851 51.1886 53.0443 45.7561C53.7509 45.5353 54.5458 45.8887 54.855 46.5512C55.6058 48.0971 56.3566 49.6429 57.0633 51.2329Z" fill="white"/>
</svg>
