<svg width="20" height="20" viewBox="0 0 20 20" fill="none" xmlns="http://www.w3.org/2000/svg">
<path d="M6.04169 5.83317H13.9584V4.1665C13.9584 2.49984 13.3334 1.6665 11.4584 1.6665H8.54169C6.66669 1.6665 6.04169 2.49984 6.04169 4.1665V5.83317Z" stroke="#575E8D" stroke-width="1.2" stroke-miterlimit="10" stroke-linecap="round" stroke-linejoin="round"/>
<path d="M13.3334 12.5V15.8333C13.3334 17.5 12.5 18.3333 10.8334 18.3333H9.16669C7.50002 18.3333 6.66669 17.5 6.66669 15.8333V12.5H13.3334Z" stroke="#575E8D" stroke-width="1.2" stroke-miterlimit="10" stroke-linecap="round" stroke-linejoin="round"/>
<path d="M17.5 8.3335V12.5002C17.5 14.1668 16.6667 15.0002 15 15.0002H13.3333V12.5002H6.66667V15.0002H5C3.33333 15.0002 2.5 14.1668 2.5 12.5002V8.3335C2.5 6.66683 3.33333 5.8335 5 5.8335H15C16.6667 5.8335 17.5 6.66683 17.5 8.3335Z" stroke="#575E8D" stroke-width="1.2" stroke-miterlimit="10" stroke-linecap="round" stroke-linejoin="round"/>
<path d="M14.1666 12.5H13.1583H5.83331" stroke="#575E8D" stroke-width="1.2" stroke-miterlimit="10" stroke-linecap="round" stroke-linejoin="round"/>
<path d="M5.83331 9.1665H8.33331" stroke="#575E8D" stroke-width="1.2" stroke-miterlimit="10" stroke-linecap="round" stroke-linejoin="round"/>
</svg>
