<svg width="67" height="19" viewBox="0 0 67 19" fill="none" xmlns="http://www.w3.org/2000/svg">
<path d="M9.31214 18.6243C14.4551 18.6243 18.6243 14.4551 18.6243 9.31214C18.6243 4.16919 14.4551 0 9.31214 0C4.16919 0 0 4.16919 0 9.31214C0 14.4551 4.16919 18.6243 9.31214 18.6243Z" fill="#989EBB"/>
<path d="M13.9365 3.76166H7.48874V6.00485H13.9365V3.76166Z" fill="white"/>
<path d="M11.3424 8.34009H7.48874V10.5833H11.3424V8.34009Z" fill="white"/>
<path d="M7.48854 6.02795H4.99802V8.34592H7.48854V6.02795Z" fill="white"/>
<path d="M7.48854 10.5891H4.99802V14.8684H7.48854V10.5891Z" fill="white"/>
<path d="M24.6551 14.9341H22.4844V4.09517H29.7152V6.14855H24.6551V8.58329H29.0992V10.622H24.6551V14.9341Z" fill="#989EBB"/>
<path d="M36.9012 7.89393V6.94058H38.8666V14.9341H36.9012V14.0101C36.2167 14.7532 35.366 15.1248 34.3491 15.1248C33.1953 15.1248 32.2468 14.7239 31.5037 13.9221C30.7606 13.1203 30.389 12.1132 30.389 10.9007C30.389 9.69798 30.7655 8.70551 31.5184 7.92327C32.2713 7.13125 33.2149 6.73524 34.3491 6.73524C35.3465 6.73524 36.1972 7.12147 36.9012 7.89393ZM36.9305 10.93C36.9305 10.3042 36.7154 9.76154 36.2852 9.30197C35.8647 8.85218 35.3318 8.62729 34.6864 8.62729C34.0313 8.62729 33.4935 8.85218 33.0731 9.30197C32.6624 9.75176 32.4571 10.2944 32.4571 10.93C32.4571 11.5754 32.6673 12.1229 33.0877 12.5727C33.5082 13.0225 34.0411 13.2474 34.6864 13.2474C35.3318 13.2474 35.8647 13.0225 36.2852 12.5727C36.7154 12.1132 36.9305 11.5656 36.9305 10.93Z" fill="#989EBB"/>
<path d="M47.0329 8.34861L43.1021 13.2181H47.1796V14.9341H40.2567V13.5261L44.2608 8.67129H40.4621V6.95524H47.0329V8.34861Z" fill="#989EBB"/>
<path d="M50.9649 4.76985C50.9649 5.13164 50.8427 5.43476 50.5983 5.67921C50.3538 5.92366 50.0507 6.04589 49.6889 6.04589C49.3271 6.04589 49.024 5.92366 48.7795 5.67921C48.5351 5.43476 48.4129 5.13164 48.4129 4.76985C48.4129 4.40806 48.5351 4.10983 48.7795 3.87516C49.024 3.63071 49.3271 3.50848 49.6889 3.50848C50.0507 3.50848 50.3538 3.63071 50.5983 3.87516C50.8427 4.10983 50.9649 4.40806 50.9649 4.76985ZM50.7156 6.94058V14.9341H48.6475V6.94058H50.7156Z" fill="#989EBB"/>
<path d="M60.316 10.754C60.316 10.9985 60.2915 11.3016 60.2426 11.6634H54.2438C54.5372 12.7976 55.3145 13.3647 56.5759 13.3647C57.5048 13.3647 58.3653 13.0959 59.1573 12.5581L59.9786 14.0101C58.9617 14.7435 57.7981 15.1101 56.4879 15.1101C55.0896 15.1101 54.014 14.7043 53.2611 13.8928C52.518 13.091 52.1464 12.1034 52.1464 10.93C52.1464 9.70776 52.5327 8.70551 53.3051 7.92327C54.0776 7.13125 55.0798 6.73524 56.3119 6.73524C57.4755 6.73524 58.4337 7.09702 59.1866 7.8206C59.9395 8.54417 60.316 9.52198 60.316 10.754ZM56.3119 8.45128C55.7936 8.45128 55.3487 8.60284 54.9772 8.90596C54.6154 9.1993 54.3709 9.60509 54.2438 10.1233H58.3066C58.2088 9.60509 57.9839 9.1993 57.6319 8.90596C57.2799 8.60284 56.8399 8.45128 56.3119 8.45128Z" fill="#989EBB"/>
<path d="M63.8064 14.9341H61.7383V6.94058H63.7184V8.01127C64.1975 7.1508 64.9309 6.72057 65.9185 6.72057C66.2411 6.72057 66.5638 6.77924 66.8865 6.89657L66.7105 8.87663C66.3585 8.76907 66.0407 8.71529 65.7571 8.71529C65.1509 8.71529 64.6718 8.92063 64.3197 9.33131C63.9775 9.73221 63.8064 10.3336 63.8064 11.1354V14.9341Z" fill="#989EBB"/>
</svg>
