<svg width="230" height="32" viewBox="0 0 230 32" fill="none" xmlns="http://www.w3.org/2000/svg">
<path d="M33.5405 20.495L32.5431 12.1066V12.1V12.0934C32.5431 12.0868 32.5431 12.0802 32.5431 12.0802C32.5431 12.0802 32.5431 12.0802 32.5431 12.0735C32.5431 12.0669 32.5431 12.0603 32.5364 12.0603V12.0537C32.5364 12.0471 32.5297 12.0404 32.5297 12.0404C32.5297 12.0404 32.5297 12.0404 32.5297 12.0338C32.5297 12.0272 32.523 12.0272 32.523 12.0206C32.523 12.014 32.5163 12.014 32.5163 12.0073C32.5163 12.0073 32.5163 12.0007 32.5096 12.0007C32.5096 11.9941 32.5029 11.9941 32.5029 11.9875C32.5029 11.9875 32.5029 11.9875 32.5029 11.9809C32.5029 11.9742 32.4962 11.9742 32.4896 11.9676C32.4829 11.961 32.4829 11.961 32.4762 11.9544C32.4762 11.9544 32.4762 11.9544 32.4695 11.9477L32.4628 11.9411L25.6749 4.65185C25.6749 4.64523 25.6682 4.64523 25.6682 4.64523C25.6613 4.63199 25.648 4.62537 25.6346 4.61874C25.6279 4.61874 25.6279 4.61212 25.6212 4.61212H25.6145C25.6078 4.60551 25.6078 4.60551 25.6011 4.60551C25.5944 4.60551 25.5944 4.59889 25.5877 4.59889C25.581 4.59889 25.5744 4.59227 25.5677 4.59227C25.561 4.59227 25.5543 4.58565 25.5543 4.58565H25.5476C25.5409 4.58565 25.5409 4.58565 25.5342 4.58565C25.5342 4.58565 25.5342 4.58565 25.5275 4.58565L10.3651 1.46072H10.3584C10.345 1.4541 10.3249 1.4541 10.3048 1.4541C10.2981 1.4541 10.2915 1.4541 10.2848 1.4541C10.2781 1.4541 10.2714 1.4541 10.2714 1.4541C10.258 1.4541 10.2513 1.46072 10.2379 1.46072C10.2312 1.46072 10.2245 1.46734 10.2178 1.46734C10.2044 1.46734 10.1977 1.47396 10.1843 1.48059H10.1777C10.171 1.48059 10.1643 1.48721 10.1576 1.48721C10.1509 1.48721 10.1442 1.49383 10.1442 1.49383C10.1375 1.50044 10.1308 1.50044 10.1241 1.50706C10.1174 1.51368 10.1107 1.51368 10.1107 1.52031L10.104 1.52693L1.52872 9.50475C1.52202 9.51137 1.52202 9.51137 1.51533 9.51799C1.50863 9.52462 1.50863 9.52462 1.50863 9.53124C1.50863 9.53785 1.50194 9.53785 1.50194 9.54447C1.49524 9.55109 1.48855 9.55771 1.48855 9.56433C1.48855 9.57096 1.48186 9.57096 1.48186 9.57758C1.47517 9.5842 1.47517 9.59743 1.46846 9.60406C1.46846 9.61068 1.46177 9.61068 1.46177 9.6173C1.45508 9.62392 1.45508 9.63716 1.45508 9.64377C1.45508 9.65041 1.45508 9.65041 1.45508 9.65703C1.45508 9.66364 1.45508 9.66364 1.45508 9.67026C1.45508 9.67688 1.45508 9.6835 1.45508 9.69013C1.45508 9.69675 1.45508 9.70337 1.45508 9.70999C1.45508 9.7166 1.45508 9.72324 1.45508 9.72985C1.45508 9.73647 1.45508 9.74309 1.45508 9.74971C1.45508 9.75633 1.45508 9.76296 1.45508 9.76958C1.45508 9.7762 1.45508 9.78281 1.46177 9.78943V9.79605L3.54367 17.7408V17.754C3.54367 17.7606 3.55037 17.7673 3.55037 17.7738C3.57045 17.8269 3.59723 17.8666 3.6441 17.8996C3.65079 17.9063 3.65079 17.9063 3.65748 17.9129C3.66417 17.9196 3.67087 17.9196 3.67757 17.9261C3.68426 17.9261 3.69095 17.9328 3.69095 17.9328C3.70434 17.9393 3.71773 17.946 3.72442 17.946C3.73112 17.946 3.73781 17.9526 3.7445 17.9526C3.75119 17.9526 3.75789 17.9526 3.76459 17.9593H3.77128L7.17864 18.6279L10.5191 22.7393C10.5258 22.7459 10.5324 22.7526 10.5324 22.7591C10.5324 22.7591 10.5324 22.7591 10.5392 22.7658C10.5458 22.7724 10.5525 22.779 10.5592 22.779C10.5793 22.7923 10.5994 22.8055 10.6195 22.8188C10.6262 22.8188 10.6262 22.8254 10.6329 22.8254C10.6396 22.8254 10.6396 22.832 10.6462 22.832C10.6529 22.832 10.6529 22.832 10.6596 22.8387C10.6663 22.8387 10.6663 22.8387 10.673 22.8452C10.6797 22.8452 10.6864 22.8452 10.6931 22.8519C10.6998 22.8519 10.6998 22.8519 10.7065 22.8519C10.7132 22.8519 10.7132 22.8519 10.7199 22.8519L15.5397 23.4345L18.4986 28.0755C18.512 28.0954 18.5253 28.1152 18.5454 28.1284C18.5521 28.1351 18.5521 28.1351 18.5588 28.1351C18.5722 28.1484 18.5922 28.1616 18.6056 28.1683C18.6123 28.1683 18.6123 28.1748 18.619 28.1748C18.6325 28.1815 18.6392 28.1815 18.6526 28.1881C18.6593 28.1881 18.666 28.1948 18.6727 28.1948C18.6794 28.1948 18.6794 28.1948 18.6861 28.1948C18.7061 28.2013 18.7195 28.2013 18.7396 28.2013C18.7597 28.2013 18.7864 28.2013 18.8132 28.1948C18.84 28.1881 18.8667 28.1748 18.8868 28.1616L18.8935 28.1748L20.4667 30.4324C20.5202 30.5118 20.6072 30.5517 20.701 30.5517C20.7211 30.5517 20.7412 30.5517 20.7613 30.545L23.5058 29.9358C23.6331 29.9094 23.7201 29.8035 23.7268 29.6711L23.8539 26.9169L28.3191 25.7914H28.3258C28.3325 25.7914 28.3325 25.7914 28.3392 25.7914C28.3458 25.7914 28.3458 25.7914 28.3525 25.7849C28.3726 25.7782 28.3927 25.7716 28.4061 25.7582C28.4128 25.7582 28.4128 25.7517 28.4194 25.7517C28.4261 25.7517 28.4261 25.745 28.4328 25.745C28.4462 25.7385 28.4529 25.7252 28.4663 25.7185L28.473 25.712C28.4864 25.6988 28.4997 25.6788 28.5064 25.659C28.5064 25.659 28.5064 25.6524 28.5131 25.6524C28.5131 25.6458 28.5198 25.6391 28.5198 25.6326L29.4704 23.355L33.4267 20.7729C33.507 20.7068 33.5538 20.6009 33.5405 20.495ZM31.7464 12.0073L29.042 12.868C28.7943 12.431 28.3258 12.1397 27.7835 12.1397C27.7568 12.1397 27.73 12.1397 27.7031 12.1397L26.0363 5.87004L31.7464 12.0073ZM25.6078 18.6941C25.561 18.6876 25.5141 18.6876 25.4673 18.6876C25.0455 18.6876 24.6706 18.8993 24.443 19.2172L18.291 16.847C18.3044 16.7741 18.3111 16.7014 18.3111 16.622C18.3111 16.5888 18.3111 16.5556 18.3044 16.5292L26.5048 14.212C26.6254 14.4437 26.8128 14.6423 27.0337 14.7747L25.6078 18.6941ZM26.1835 19.919C26.1835 20.0977 26.1166 20.2566 26.0096 20.3824C25.8823 20.528 25.7016 20.6208 25.4941 20.634C25.4807 20.634 25.474 20.634 25.4606 20.634C25.3601 20.634 25.2731 20.6141 25.1861 20.5809C25.0053 20.5082 24.8581 20.3625 24.7912 20.1772C24.7643 20.1043 24.7509 20.0316 24.7442 19.952C24.7442 19.9454 24.7442 19.9322 24.7442 19.9255C24.7442 19.7335 24.8247 19.5548 24.9518 19.4224C25.0722 19.3033 25.2397 19.2238 25.4205 19.2106C25.4338 19.2106 25.4472 19.2106 25.4673 19.2106C25.6546 19.2106 25.8288 19.2833 25.9626 19.4026C26.0965 19.5283 26.1835 19.7137 26.1835 19.919ZM21.8055 23.0439C21.5511 22.8652 21.2365 22.7591 20.8951 22.7591C20.7412 22.7591 20.5872 22.779 20.4466 22.8254L17.7957 17.6944C17.9095 17.6084 18.0032 17.5024 18.0836 17.3833L24.2356 19.7534C24.2289 19.8064 24.2222 19.866 24.2222 19.9255C24.2222 20.1572 24.2891 20.3692 24.3962 20.5545L21.8055 23.0439ZM21.8993 24.315C21.8993 24.4673 21.8658 24.6196 21.7988 24.752C21.6382 25.083 21.2901 25.3148 20.8884 25.3148C20.8014 25.3148 20.7211 25.3015 20.634 25.2816C20.44 25.2353 20.2725 25.1293 20.1454 24.9904C19.978 24.8116 19.8776 24.5732 19.8776 24.315C19.8776 24.0304 19.9981 23.7721 20.1922 23.5934C20.3328 23.4609 20.5069 23.375 20.701 23.3351C20.7613 23.3219 20.8215 23.3153 20.8884 23.3153C21.0692 23.3153 21.2365 23.3616 21.3838 23.4412C21.5511 23.5338 21.6917 23.6729 21.7787 23.8449C21.8322 23.9508 21.8725 24.0634 21.8859 24.1892C21.8993 24.2289 21.8993 24.2686 21.8993 24.315ZM17.769 16.6285C17.769 16.8404 17.6885 17.0257 17.5614 17.1713C17.5547 17.178 17.548 17.1846 17.5413 17.1913C17.4141 17.3236 17.2535 17.4164 17.066 17.4429L17.0593 17.4892L17.0392 17.4494C17.0058 17.4561 16.9723 17.4561 16.9322 17.4561C16.7781 17.4561 16.6309 17.4164 16.5037 17.3436C16.256 17.198 16.0887 16.9331 16.0887 16.6285C16.0887 16.3703 16.2091 16.1319 16.4033 15.9796C16.5438 15.8672 16.7313 15.7943 16.9322 15.7943C16.9389 15.7943 16.9389 15.7943 16.9456 15.7943C17.0192 15.7943 17.0861 15.8076 17.153 15.8208C17.3405 15.8737 17.5012 15.9863 17.6149 16.1386L17.635 16.1319L17.6216 16.1452C17.7086 16.2909 17.769 16.4564 17.769 16.6285ZM17.4744 15.3772C17.307 15.3044 17.1262 15.2647 16.9322 15.2647C16.8786 15.2647 16.8183 15.2713 16.7648 15.278L15.9213 12.8482C16.2493 12.6363 16.4702 12.2722 16.4702 11.8551C16.4702 11.7822 16.4635 11.7028 16.4501 11.63L21.337 9.40545C21.3972 9.49813 21.4708 9.57758 21.5444 9.65703L17.4744 15.3772ZM14.2344 12.431L11.4897 14.9799L14.4954 7.77016L14.5088 7.73705L14.5155 7.77016L14.857 10.7494C14.4017 10.9149 14.0804 11.3453 14.0804 11.8551C14.0804 12.0669 14.1406 12.2589 14.2344 12.431ZM21.096 8.89566L16.2091 11.1202C16.0218 10.8885 15.7473 10.7296 15.4327 10.6898L15.0912 7.71057C15.3656 7.61127 15.5933 7.40601 15.7272 7.14782L21.0491 8.35276C21.0491 8.38587 21.0491 8.41897 21.0491 8.45208C21.0357 8.60434 21.0558 8.75 21.096 8.89566ZM15.2452 6.81016C15.2184 6.88299 15.1783 6.9492 15.1314 7.00878C15.0978 7.0485 15.0644 7.07499 15.0242 7.10809C14.9239 7.1743 14.81 7.21403 14.6829 7.21403C14.4954 7.21403 14.3281 7.12795 14.2143 6.99554C14.1273 6.88961 14.0804 6.76382 14.0804 6.61817C14.0804 6.54535 14.0938 6.47913 14.1205 6.41292C14.1875 6.22756 14.3482 6.0819 14.549 6.04217C14.5959 6.02894 14.6427 6.02894 14.6896 6.02894C14.8837 6.02894 15.0577 6.12162 15.1649 6.26066C15.2117 6.32024 15.2452 6.39307 15.272 6.4659C15.2853 6.51886 15.292 6.57182 15.292 6.62479C15.272 6.68437 15.2653 6.75058 15.2452 6.81016ZM14.9239 11.2791C15.0242 11.2195 15.1515 11.1798 15.2786 11.1798C15.3522 11.1798 15.426 11.193 15.4929 11.2129C15.5799 11.2394 15.6602 11.2857 15.7272 11.3387C15.8744 11.4644 15.9681 11.6432 15.9681 11.8551C15.9681 12.0471 15.8878 12.2192 15.754 12.345C15.6334 12.4575 15.4661 12.5304 15.2853 12.5304C15.2653 12.5304 15.2385 12.5304 15.2184 12.5237C15.1515 12.5171 15.0912 12.5039 15.0309 12.4774C14.8503 12.4046 14.7029 12.2523 14.6427 12.0669C14.6226 12.0007 14.6093 11.9279 14.6093 11.8484C14.5892 11.6101 14.723 11.3916 14.9239 11.2791ZM22.013 9.98143C22.2407 10.0874 22.4884 10.1469 22.7562 10.1469C23.1176 10.1469 23.4523 10.0344 23.7335 9.84239L26.6053 12.7555C26.4446 12.9872 26.3509 13.2586 26.3509 13.5632C26.3509 13.6029 26.3509 13.636 26.3576 13.6757L18.1572 15.9929C18.1037 15.887 18.0299 15.7876 17.9496 15.7017L22.013 9.98143ZM21.6583 8.44545C21.6583 8.26008 21.7051 8.08793 21.7854 7.93567C21.9729 7.5914 22.3344 7.35967 22.7562 7.35967C23.3586 7.35967 23.8539 7.84297 23.8539 8.44545C23.8539 8.6507 23.8004 8.83607 23.7 9.00158C23.5995 9.16711 23.459 9.29951 23.2916 9.3922C23.131 9.47826 22.9502 9.53124 22.7562 9.53124C22.6222 9.53124 22.4951 9.51137 22.3812 9.46503C22.0197 9.33262 21.7453 9.01483 21.6784 8.63083C21.6717 8.58449 21.665 8.53815 21.665 8.4918C21.6583 8.47855 21.6583 8.46532 21.6583 8.44545ZM27.0337 14.073C26.9333 13.9273 26.8798 13.7552 26.8798 13.5632C26.8798 13.5499 26.8798 13.5367 26.8798 13.5301C26.8865 13.391 26.92 13.2652 26.9802 13.1461C27.0538 13.007 27.161 12.8879 27.2948 12.8084C27.3282 12.7886 27.355 12.7687 27.3885 12.7555C27.509 12.6959 27.6429 12.6628 27.7902 12.6628C27.8103 12.6628 27.8304 12.6628 27.8437 12.6628C28.1249 12.676 28.3726 12.8217 28.5265 13.0335C28.6337 13.1858 28.7006 13.3646 28.7006 13.5632V13.5698C28.7006 13.9207 28.493 14.2252 28.1985 14.3709C28.0781 14.4305 27.9374 14.4636 27.7902 14.4636C27.7835 14.4636 27.7701 14.4636 27.7634 14.4636C27.7165 14.4636 27.6763 14.457 27.6362 14.4503C27.4823 14.4239 27.3416 14.3643 27.2279 14.2716C27.1543 14.2186 27.0872 14.1458 27.0337 14.073ZM27.1543 12.2854C27.1006 12.3119 27.0538 12.3384 27.0069 12.3649L24.1418 9.45179C24.3493 9.17372 24.4765 8.82283 24.4765 8.44545C24.4765 7.50533 23.7067 6.74396 22.7562 6.74396C22.0398 6.74396 21.424 7.18092 21.1696 7.79663L16.1489 6.6579L25.2597 5.16164L27.1543 12.2854ZM23.9143 4.81074L15.7473 6.15473C15.5665 5.74425 15.1515 5.45294 14.6695 5.45294C14.4754 5.45294 14.2879 5.49928 14.1273 5.58536L11.0881 2.18236L23.9143 4.81074ZM10.4454 2.3214L13.6988 5.96273C13.5716 6.14811 13.4913 6.3732 13.4913 6.61817C13.4913 7.00216 13.6787 7.33982 13.9666 7.55167L10.8939 14.9204C10.8337 14.9137 10.7801 14.9072 10.7199 14.9072C10.6329 14.9072 10.5458 14.9137 10.4655 14.9337L8.95931 11.9411C9.34757 11.6564 9.60196 11.193 9.60196 10.6766C9.60196 10.041 9.22037 9.49151 8.67146 9.24655L10.4454 2.3214ZM8.69823 11.4115C8.55765 11.5373 8.3836 11.63 8.18946 11.6631C8.12922 11.6763 8.07568 11.6763 8.01541 11.6763C7.9284 11.6763 7.84138 11.6631 7.76104 11.6432C7.5669 11.5969 7.39954 11.4909 7.27236 11.3519C7.13178 11.2062 7.03806 11.0142 7.01128 10.8024C7.00459 10.7627 7.00459 10.7163 7.00459 10.67C7.00459 10.5177 7.03806 10.3721 7.09831 10.2463C7.25227 9.91522 7.58699 9.6835 7.97525 9.67026C7.98865 9.67026 8.00203 9.67026 8.01541 9.67026C8.20286 9.67026 8.37691 9.72322 8.53088 9.8093C8.82542 9.98143 9.02625 10.3058 9.02625 10.67C9.01956 10.9679 8.89906 11.2327 8.69823 11.4115ZM9.78939 2.60609L8.12253 9.11413C8.08906 9.11413 8.0489 9.10751 8.01541 9.10751C7.31922 9.10751 6.73013 9.55109 6.50922 10.1668L2.34541 9.52462L9.78939 2.60609ZM2.10442 10.0543L6.4155 10.7163C6.42888 11.1731 6.63642 11.5836 6.96443 11.8617L3.91186 16.9463L2.10442 10.0543ZM7.4531 12.1596C7.62715 12.2258 7.8146 12.2589 8.00872 12.2589C8.1627 12.2589 8.30997 12.2391 8.45054 12.1993L9.95675 15.1918C9.70237 15.4038 9.5417 15.7214 9.53501 16.0724L4.38715 17.2509L7.4531 12.1596ZM5.16367 17.6481L9.29402 16.7014L7.25898 18.0586L5.16367 17.6481ZM10.4387 21.7529L7.73426 18.4227L9.92997 16.9529C10.0706 17.0787 10.2446 17.1713 10.4387 17.2244V21.7529ZM10.7266 16.7146C10.6262 16.7146 10.5258 16.6881 10.4387 16.6484L10.412 16.6352C10.345 16.5953 10.2848 16.5491 10.2312 16.4894C10.1576 16.3968 10.104 16.2909 10.0906 16.1651C10.0839 16.1386 10.0839 16.1121 10.0839 16.0857C10.0839 16.0327 10.0906 15.9863 10.104 15.9399C10.1241 15.854 10.1643 15.7811 10.2111 15.7082C10.3182 15.5692 10.4856 15.47 10.673 15.4567L10.6931 15.4038L10.7199 15.4567C10.7935 15.4567 10.8672 15.47 10.9341 15.4964C11.0345 15.5361 11.1282 15.5956 11.1952 15.6752C11.2554 15.7414 11.2956 15.8208 11.3224 15.9069C11.3425 15.9664 11.3491 16.026 11.3491 16.0857C11.3491 16.1916 11.3224 16.2974 11.2688 16.3836C11.2086 16.4961 11.1148 16.5888 10.9944 16.6417C10.9341 16.6749 10.8672 16.6947 10.8002 16.7014C10.7868 16.7079 10.7534 16.7146 10.7266 16.7146ZM11.0144 22.3024V17.2244C11.0613 17.2112 11.1082 17.198 11.155 17.1846L15.0912 22.8055L11.0144 22.3024ZM11.6169 16.8602C11.8044 16.655 11.9115 16.3836 11.9115 16.0857C11.9115 15.8737 11.8579 15.6817 11.7575 15.5097L14.6226 12.8482C14.8101 12.9673 15.0309 13.0402 15.272 13.0402C15.3054 13.0402 15.3389 13.0402 15.379 13.0335L16.2225 15.4633C15.8209 15.7017 15.5531 16.1386 15.5531 16.6352C15.5531 17.2045 15.9012 17.6878 16.4033 17.8931L15.533 22.4414L11.6169 16.8602ZM18.7128 27.3738L15.9883 23.1034L16.9589 17.999C17.0727 17.999 17.1799 17.979 17.2869 17.9526L19.9378 23.0836C19.563 23.3683 19.322 23.8119 19.322 24.315C19.322 24.7785 19.5296 25.1956 19.8576 25.4803L18.7128 27.3738ZM23.1511 29.4262L20.8081 29.9491L19.4625 28.016L23.2648 27.056L23.1511 29.4262ZM19.322 27.4665L20.3461 25.7649C20.5136 25.8311 20.701 25.8643 20.8951 25.8643C21.578 25.8643 22.1537 25.4339 22.3745 24.8381L26.8597 25.5729L19.322 27.4665ZM22.4616 24.2819C22.4549 23.9708 22.3611 23.6861 22.2005 23.4477L24.7979 20.9517C24.992 21.071 25.2196 21.1437 25.4673 21.1437C25.561 21.1437 25.6546 21.1305 25.7418 21.1107L27.7434 25.136L22.4616 24.2819ZM28.2186 24.8249L26.2504 20.8657C26.5249 20.6406 26.7057 20.2963 26.7057 19.919C26.7057 19.4886 26.4781 19.1113 26.1434 18.8861L27.576 14.9734C27.6228 14.9799 27.6696 14.9866 27.7165 14.9866L28.9416 23.1166L28.2186 24.8249ZM29.4436 22.6797L28.2788 14.9072C28.8344 14.7085 29.2295 14.1855 29.2295 13.5632C29.2295 13.5102 29.2295 13.4572 29.2228 13.4043L32.0209 12.5105L32.9581 20.3824L29.4436 22.6797Z" fill="#7F35FD" stroke="#7F35FD" stroke-width="0.325758" stroke-linejoin="round"/>
<path d="M48.9722 14.4332H43.831V21.8483H42.4922V4.36328H48.9722C52.0248 4.36328 54.3075 6.17733 54.3075 9.39494C54.3075 12.5927 52.0248 14.4332 48.9722 14.4332ZM48.8182 5.54175H43.831V13.2547H48.8182C51.275 13.2547 52.962 12.0299 52.962 9.40156C52.9686 6.77318 51.2817 5.54175 48.8182 5.54175Z" fill="#1F0D3D" stroke="#1F0D3D" stroke-width="0.5"/>
<path d="M62.0518 20.8676C63.4643 20.8676 64.3346 20.4506 65.3522 19.4442L66.296 20.1792C65.0777 21.3842 63.9597 21.9932 61.9782 21.9932C58.678 21.9932 56.8906 19.8812 56.8906 15.9287C56.8906 12.0954 58.678 9.86426 61.6836 9.86426C64.6893 9.86426 66.4767 12.0027 66.4767 15.6374V16.2002H58.1558C58.1558 19.2192 59.4947 20.8676 62.0518 20.8676ZM64.7831 12.9561C64.261 11.7048 63.0694 10.9699 61.677 10.9699C60.2845 10.9699 59.093 11.7048 58.5708 12.9561C58.2964 13.7174 58.2227 14.0352 58.1491 15.1938H65.1981C65.1312 14.0617 65.1111 13.6711 64.7831 12.9561Z" fill="#1F0D3D" stroke="#1F0D3D" stroke-width="0.5"/>
<path d="M78.0141 20.6973C77.1438 21.5579 76.0526 22.0015 74.687 22.0015C73.3482 22.0015 72.2302 21.5579 71.36 20.6973C70.0948 19.4461 69.8672 17.6253 69.8672 15.9305C69.8672 14.2356 70.0881 12.4215 71.36 11.1636C72.2302 10.303 73.3482 9.85938 74.687 9.85938C76.0526 9.85938 77.1438 10.303 78.0141 11.1636C79.2793 12.4149 79.5069 14.2356 79.5069 15.9305C79.5069 17.6253 79.2793 19.4394 78.0141 20.6973ZM77.1706 11.978C76.5012 11.3159 75.6577 10.9716 74.687 10.9716C73.7164 10.9716 72.8729 11.3159 72.2035 11.978C71.2128 12.9578 71.139 14.5534 71.139 15.9305C71.139 17.3075 71.2128 18.9031 72.2035 19.883C72.8729 20.545 73.7164 20.8892 74.687 20.8892C75.6577 20.8892 76.5012 20.545 77.1706 19.883C78.1613 18.9031 78.235 17.3075 78.235 15.9305C78.235 14.5534 78.1613 12.9578 77.1706 11.978Z" fill="#1F0D3D" stroke="#1F0D3D" stroke-width="0.5"/>
<path d="M91.3684 20.9604C90.7458 21.5762 89.7081 21.9932 88.4363 21.9932C87.0706 21.9932 85.9526 21.6953 84.8884 20.3248V27.4948H83.623V10.0099H84.8884V11.5327C85.9526 10.1556 87.0706 9.86426 88.4363 9.86426C89.7014 9.86426 90.7458 10.2814 91.3684 10.8971C92.5867 12.102 92.908 14.0617 92.908 15.9287C92.908 17.7957 92.5867 19.762 91.3684 20.9604ZM88.2689 10.9699C85.3368 10.9699 84.895 13.4725 84.895 15.9287C84.895 18.385 85.3435 20.8876 88.2689 20.8876C91.2009 20.8876 91.6428 18.385 91.6428 15.9287C91.6428 13.4725 91.1942 10.9699 88.2689 10.9699Z" fill="#1F0D3D" stroke="#1F0D3D" stroke-width="0.5"/>
<path d="M96.9863 18.7763V4.36328H98.2515V18.7498C98.2515 20.1005 98.6733 20.736 100.086 20.736H100.956V21.8416H99.8649C97.9034 21.8483 96.9863 20.6433 96.9863 18.7763Z" fill="#1F0D3D" stroke="#1F0D3D" stroke-width="0.5"/>
<path d="M108.007 20.8676C109.419 20.8676 110.29 20.4506 111.307 19.4442L112.251 20.1792C111.033 21.3842 109.915 21.9932 107.933 21.9932C104.633 21.9932 102.846 19.8812 102.846 15.9287C102.846 12.0954 104.633 9.86426 107.639 9.86426C110.645 9.86426 112.432 12.0027 112.432 15.6374V16.2002H104.118C104.111 19.2192 105.45 20.8676 108.007 20.8676ZM110.738 12.9561C110.216 11.7048 109.024 10.9699 107.632 10.9699C106.24 10.9699 105.048 11.7048 104.526 12.9561C104.252 13.7174 104.178 14.0352 104.104 15.1938H111.153C111.086 14.0617 111.066 13.6711 110.738 12.9561Z" fill="#1F0D3D" stroke="#1F0D3D" stroke-width="0.5"/>
<path d="M133.529 20.2528C132.465 21.3054 130.972 21.8483 129.111 21.8483H123.18V4.36328H129.111C130.972 4.36328 132.465 4.90617 133.529 5.95884C135.316 7.72655 135.243 10.5006 135.243 12.8575C135.243 15.2144 135.316 18.4851 133.529 20.2528ZM132.585 6.89235C131.568 5.83967 130.202 5.54175 128.789 5.54175H124.518V20.6698H128.789C130.202 20.6698 131.568 20.3719 132.585 19.3193C133.978 17.8694 133.904 14.8238 133.904 12.8641C133.904 10.9044 133.978 8.34226 132.585 6.89235Z" fill="#1F0D3D" stroke="#1F0D3D" stroke-width="0.5"/>
<path d="M146.713 20.6708C145.695 21.6772 144.751 21.9949 143.064 21.9949C141.277 21.9949 140.306 21.697 139.536 20.9157C138.967 20.353 138.666 19.4923 138.666 18.6052C138.666 16.4469 140.233 15.1889 142.837 15.1889H146.713V13.8648C146.713 11.9713 145.795 10.965 143.339 10.965C141.652 10.965 140.808 11.3821 140.038 12.4613L139.121 11.6734C140.139 10.2765 141.384 9.85938 143.345 9.85938C146.525 9.85938 147.991 11.2563 147.991 13.739V21.8427H146.726V20.6708H146.713ZM142.991 16.2019C140.955 16.2019 139.938 16.9897 139.938 18.5853C139.938 20.1544 140.882 20.8959 143.064 20.8959C144.155 20.8959 145.173 20.7966 146.043 19.9889C146.492 19.5717 146.713 18.8104 146.713 17.7313V16.2085H142.991V16.2019Z" fill="#1F0D3D" stroke="#1F0D3D" stroke-width="0.5"/>
<path d="M152.995 18.7577V10.9453H151.355V10.0118H152.995V6.23145H154.261V10.0118H156.965V10.9453H154.261V18.7774C154.261 20.0288 154.83 20.7438 156.095 20.7438H156.965V21.8494H155.874C153.986 21.8494 152.995 20.5451 152.995 18.7577Z" fill="#1F0D3D" stroke="#1F0D3D" stroke-width="0.5"/>
<path d="M167.72 20.6708C166.703 21.6772 165.759 21.9949 164.072 21.9949C162.285 21.9949 161.314 21.697 160.544 20.9157C159.975 20.353 159.674 19.4923 159.674 18.6052C159.674 16.4469 161.24 15.1889 163.844 15.1889H167.72V13.8648C167.72 11.9713 166.803 10.965 164.346 10.965C162.659 10.965 161.816 11.3821 161.046 12.4613L160.129 11.6734C161.147 10.2765 162.392 9.85938 164.353 9.85938C167.533 9.85938 168.999 11.2563 168.999 13.739V21.8427H167.72V20.6708ZM163.998 16.2019C161.963 16.2019 160.946 16.9897 160.946 18.5853C160.946 20.1544 161.89 20.8959 164.072 20.8959C165.163 20.8959 166.181 20.7966 167.051 19.9889C167.499 19.5717 167.72 18.8104 167.72 17.7313V16.2085H163.998V16.2019Z" fill="#1F0D3D" stroke="#1F0D3D" stroke-width="0.5"/>
<path d="M180.355 4.36328H181.694V20.6698H191.08V21.8483H180.355V4.36328Z" fill="#1F0D3D" stroke="#1F0D3D" stroke-width="0.5"/>
<path d="M201.265 20.6708C200.247 21.6772 199.305 21.9949 197.617 21.9949C195.83 21.9949 194.859 21.697 194.089 20.9157C193.52 20.353 193.219 19.4923 193.219 18.6052C193.219 16.4469 194.785 15.1889 197.389 15.1889H201.265V13.8648C201.265 11.9713 200.347 10.965 197.891 10.965C196.205 10.965 195.361 11.3821 194.592 12.4613L193.674 11.6734C194.692 10.2765 195.937 9.85938 197.898 9.85938C201.078 9.85938 202.544 11.2563 202.544 13.739V21.8427H201.278V20.6708H201.265ZM197.537 16.2019C195.501 16.2019 194.484 16.9897 194.484 18.5853C194.484 20.1544 195.428 20.8959 197.61 20.8959C198.701 20.8959 199.719 20.7966 200.589 19.9889C201.038 19.5717 201.258 18.8104 201.258 17.7313V16.2085H197.537V16.2019Z" fill="#1F0D3D" stroke="#1F0D3D" stroke-width="0.5"/>
<path d="M214.994 20.9612C214.371 21.5769 213.327 21.9939 212.061 21.9939C210.697 21.9939 209.578 21.696 208.514 20.3255V21.8483H207.248V4.36328H208.514V11.5334C209.578 10.1563 210.697 9.86499 212.061 9.86499C213.327 9.86499 214.371 10.2821 214.994 10.8978C216.212 12.1028 216.534 14.0625 216.534 15.9295C216.534 17.7965 216.205 19.7628 214.994 20.9612ZM211.888 10.9706C208.956 10.9706 208.514 13.4732 208.514 15.9295C208.514 18.3857 208.963 20.8883 211.888 20.8883C214.82 20.8883 215.261 18.3857 215.261 15.9295C215.261 13.4732 214.82 10.9706 211.888 10.9706Z" fill="#1F0D3D" stroke="#1F0D3D" stroke-width="0.5"/>
<path d="M224.327 21.9933C222.238 21.9933 220.698 21.4505 219.486 20.2985L220.358 19.4379C221.274 20.3979 222.593 20.8877 224.281 20.8877C226.637 20.8877 227.882 20.08 227.882 18.4845C227.882 17.2332 227.185 16.6705 225.598 16.4983L223.61 16.3262C221.201 16.1276 220.009 15.1014 220.009 13.2344C220.009 11.1687 221.696 9.87109 224.307 9.87109C225.966 9.87109 227.433 10.3345 228.505 11.1224L227.661 11.9566C226.743 11.2945 225.626 10.9502 224.307 10.9502C222.318 10.9502 221.254 11.758 221.254 13.2344C221.254 14.4857 221.997 15.0484 223.684 15.2205L225.619 15.3927C227.607 15.5913 229.12 16.1805 229.12 18.4845C229.12 20.6428 227.278 21.9933 224.327 21.9933Z" fill="#1F0D3D" stroke="#1F0D3D" stroke-width="0.5"/>
</svg>
