<svg width="86" height="18" viewBox="0 0 86 18" fill="none" xmlns="http://www.w3.org/2000/svg">
<path d="M7.15179 9.55923V11.7552C6.78918 11.7552 6.40872 11.777 6.03206 11.7516C4.29043 11.6342 2.84848 10.9419 1.72933 9.68713C0.832322 8.68155 0.355575 7.50764 0.329528 6.19345C0.293238 4.34292 1.04743 2.81089 2.54323 1.61635C3.49877 0.853641 4.6267 0.455094 5.87461 0.339849C6.80411 0.254033 7.70112 0.422088 8.59198 0.62425C10.1171 0.969987 11.5496 1.54126 12.926 2.24237C12.9547 2.25694 12.9811 2.27565 13.0255 2.30288C10.0746 2.1648 7.53606 2.98252 5.47776 5.02669C5.71335 4.06897 6.20415 3.25895 6.91561 2.56032C6.91181 2.54629 6.908 2.53199 6.9042 2.51796C6.64519 2.51549 6.38443 2.49349 6.12718 2.51384C3.43351 2.72673 1.83703 5.41534 3.09431 7.66194C3.75983 8.8507 4.84532 9.48799 6.28551 9.55703C6.56208 9.57023 6.83981 9.55895 7.15179 9.55895V9.55923Z" fill="#989EBB"/>
<path d="M14.7575 6.191C16.8062 6.06805 18.6116 6.62778 20.0263 8.10672C21.1069 9.23635 21.6184 10.578 21.5783 12.0971C21.5116 14.624 19.602 16.8508 16.9979 17.4592C15.9929 17.6941 14.9934 17.6608 13.9849 17.4697C12.2292 17.1369 10.5906 16.5188 9.01783 15.7294C8.98388 15.7124 8.95169 15.6918 8.91891 15.6722C8.91628 15.6706 8.91686 15.6645 8.91364 15.6499C11.8388 15.7875 14.3715 14.9665 16.4272 12.9289C16.1887 13.8841 15.6982 14.6936 14.9873 15.3917C14.9917 15.4054 14.9961 15.4189 15.0007 15.4327C15.2504 15.4371 15.5015 15.4615 15.7491 15.4426C17.7743 15.2861 19.2645 13.748 19.2423 11.8468C19.2209 9.99741 17.592 8.44008 15.6253 8.39057C15.3815 8.38452 15.1377 8.37874 14.8942 8.38232C14.7836 8.38397 14.7537 8.34794 14.7549 8.24699C14.7599 7.78408 14.7572 7.32118 14.7572 6.85827V6.191H14.7575Z" fill="#989EBB"/>
<path d="M9.49017 8.99509C9.49017 9.80593 9.49427 10.6165 9.48871 11.4273C9.48461 12.0206 9.01547 12.4591 8.41288 12.4464C7.84804 12.4346 7.3871 11.9937 7.38681 11.4623C7.38593 9.82711 7.38593 8.19167 7.38681 6.5565C7.38681 5.99925 7.85594 5.54789 8.43366 5.54597C9.00026 5.54377 9.47788 5.97642 9.48432 6.52184C9.49398 7.34617 9.48695 8.17076 9.48695 8.99509C9.48812 8.99509 9.4893 8.99509 9.49047 8.99509H9.49017Z" fill="#989EBB"/>
<path d="M12.4192 8.97476C12.4192 8.15044 12.4124 7.32584 12.4215 6.50152C12.4273 5.9737 12.9208 5.5383 13.4789 5.546C14.0405 5.55398 14.517 5.9957 14.5181 6.52242C14.5211 8.17602 14.5208 9.82962 14.5173 11.4829C14.5161 11.9989 14.0522 12.4313 13.5 12.4464C12.9436 12.4616 12.4613 12.0603 12.4218 11.544C12.4113 11.4073 12.4154 11.2692 12.4154 11.132C12.4148 10.4127 12.4154 9.69374 12.4154 8.97449C12.4168 8.97449 12.418 8.97449 12.4194 8.97449L12.4192 8.97476Z" fill="#989EBB"/>
<path d="M9.89493 8.99734C9.89493 8.18622 9.89493 7.37482 9.89493 6.5637C9.89493 6.0026 10.3287 5.5727 10.919 5.54794C11.4683 5.52511 11.9485 5.94704 11.991 6.49081C11.9954 6.54555 11.9971 6.60056 11.9971 6.65557C11.9974 8.22775 11.9977 9.79966 11.9971 11.3718C11.9971 11.9525 11.6427 12.3604 11.0761 12.4357C10.4671 12.5169 9.89962 12.0647 9.8964 11.486C9.89172 10.6564 9.89523 9.82689 9.89493 8.99734Z" fill="#989EBB"/>
<path d="M5.52196 6.18762H7.14799C7.14799 6.87112 7.14389 7.54747 7.1515 8.22381C7.15297 8.35666 7.10643 8.38444 6.97708 8.38252C6.54803 8.37591 6.11899 8.37977 5.68995 8.37977C5.63727 8.37977 5.58488 8.37977 5.52196 8.37977V6.18762Z" fill="#989EBB"/>
<path d="M16.3865 11.7659H14.7552V9.57819H16.3865V11.7659Z" fill="#989EBB"/>
<path d="M28.6896 13.177C28.2438 13.177 27.722 13.1141 27.1241 12.9882C26.5262 12.8676 25.868 12.642 25.1495 12.3116L25.7474 10.8484C26.3138 11.1158 26.8461 11.302 27.3444 11.4069C27.8426 11.5066 28.291 11.5564 28.6896 11.5564C29.2508 11.5564 29.7123 11.4095 30.0742 11.1158C30.4413 10.8221 30.6249 10.4708 30.6249 10.0617C30.6249 9.67881 30.4964 9.35102 30.2394 9.07829C29.9824 8.80033 29.652 8.54858 29.2482 8.32306C28.8443 8.0923 28.4143 7.85891 27.958 7.6229C27.5017 7.38689 27.0716 7.12203 26.6678 6.82833C26.264 6.53463 25.9335 6.18586 25.6765 5.78202C25.4196 5.37818 25.2911 4.89042 25.2911 4.31876C25.2911 3.6317 25.4484 3.0679 25.7631 2.62735C26.083 2.1868 26.5052 1.86163 27.0297 1.65184C27.5541 1.43681 28.1284 1.32929 28.7525 1.32929C29.2351 1.32929 29.7045 1.36338 30.1607 1.43156C30.617 1.4945 31.1756 1.63348 31.8364 1.84852L31.2543 3.28031C30.7927 3.14395 30.3705 3.04692 29.9877 2.98923C29.6048 2.93154 29.2403 2.90269 28.8942 2.90269C28.4221 2.90269 28.0445 3.01808 27.7613 3.24884C27.4781 3.47961 27.3365 3.77331 27.3365 4.12995C27.3365 4.48658 27.465 4.79864 27.722 5.06612C27.9842 5.32835 28.3172 5.57223 28.7211 5.79775C29.1302 6.02327 29.5628 6.25928 30.0191 6.50578C30.4754 6.75228 30.9055 7.03025 31.3093 7.33968C31.7184 7.64912 32.0514 8.02149 32.3084 8.4568C32.5707 8.88686 32.7018 9.40609 32.7018 10.0145C32.7018 10.691 32.534 11.2653 32.1983 11.7373C31.8626 12.2041 31.3932 12.5608 30.7901 12.8073C30.187 13.0538 29.4868 13.177 28.6896 13.177Z" fill="#989EBB"/>
<path d="M39.1317 12.9725V7.19808C39.1317 6.93585 39.0766 6.72081 38.9665 6.55298C38.8616 6.38516 38.6754 6.30124 38.4079 6.30124C38.3083 6.30124 38.2113 6.31435 38.1169 6.34058C38.0225 6.3668 37.8992 6.38515 37.7471 6.39564C37.4954 6.41138 37.283 6.30648 37.1099 6.08096C36.9421 5.8502 36.7821 5.60894 36.63 5.3572C37.1492 5.07923 37.6055 4.89042 37.9989 4.79078C38.3922 4.68588 38.7698 4.63344 39.1317 4.63344C39.4936 4.63344 39.8424 4.72522 40.178 4.90878C40.5137 5.09234 40.7864 5.37293 40.9962 5.75055C41.2112 6.12292 41.3187 6.59494 41.3187 7.16661V12.9725H39.1317ZM34.0496 12.9725V6.82046C34.0496 6.52676 34.0286 6.2147 33.9867 5.88429C33.95 5.55387 33.887 5.2051 33.7979 4.83798H35.623C35.8748 5.12119 36.0426 5.40178 36.1265 5.67975C36.2104 5.95771 36.2524 6.25404 36.2524 6.56872V12.9725H34.0496Z" fill="#989EBB"/>
<path d="M45.1679 13.177C44.6644 13.177 44.2291 13.0669 43.862 12.8466C43.5001 12.6211 43.2195 12.3274 43.0202 11.9655C42.8262 11.6036 42.7291 11.2155 42.7291 10.8012C42.7291 10.3659 42.8576 9.95415 43.1146 9.56605C43.3716 9.17794 43.8122 8.85015 44.4363 8.58267C45.0656 8.30995 45.9336 8.13163 47.0403 8.04772C47.0035 8.29421 46.9432 8.52236 46.8593 8.73214C46.7754 8.93669 46.66 9.10714 46.5132 9.2435C46.3716 9.37986 46.1906 9.46902 45.9704 9.51098C45.7081 9.55294 45.4931 9.62636 45.3253 9.73125C45.1574 9.83615 45.0342 9.96464 44.9555 10.1167C44.8768 10.2636 44.8375 10.4236 44.8375 10.5966C44.8375 10.8693 44.9345 11.0975 45.1286 11.2811C45.3226 11.4646 45.556 11.5564 45.8287 11.5564C46.1277 11.5564 46.4293 11.4541 46.7334 11.2496C47.0429 11.0398 47.334 10.7749 47.6067 10.455V8.07918C47.6067 7.53374 47.4546 7.09843 47.1504 6.77326C46.8515 6.44809 46.4266 6.28551 45.8759 6.28551C45.619 6.28551 45.341 6.31173 45.042 6.36418C44.7431 6.41662 44.4074 6.51103 44.0351 6.64739L43.5001 5.2628C43.9669 5.04776 44.4468 4.89567 44.9398 4.80651C45.438 4.71211 45.8707 4.6649 46.2378 4.6649C47.3549 4.6649 48.2151 4.95861 48.8182 5.54601C49.4266 6.13341 49.7308 6.9778 49.7308 8.07918V10.99C49.7308 11.2784 49.7491 11.5879 49.7858 11.9183C49.8226 12.2487 49.8881 12.6001 49.9825 12.9725H48.3619C48.2203 12.8938 48.1023 12.7837 48.0079 12.642C47.9187 12.4952 47.8427 12.3431 47.7798 12.1858L47.7326 11.8711L47.5438 12.1386C47.0717 12.5686 46.6574 12.8492 46.3008 12.9803C45.9494 13.1114 45.5718 13.177 45.1679 13.177Z" fill="#989EBB"/>
<path d="M54.5691 16.906C54.16 16.906 53.6906 16.8614 53.1609 16.7722C52.6364 16.6883 52.0674 16.5126 51.4538 16.2451L52.0045 14.7819C52.5342 14.9917 52.9905 15.1359 53.3733 15.2146C53.7562 15.2932 54.1128 15.3326 54.4432 15.3326C54.8313 15.3326 55.188 15.2513 55.5131 15.0887C55.8436 14.9261 56.1058 14.6822 56.2999 14.3571C56.4991 14.0319 56.5988 13.628 56.5988 13.1455V6.39564C56.3943 6.34844 56.2028 6.31697 56.0245 6.30124C55.8462 6.28026 55.702 6.26977 55.5918 6.26977C54.8785 6.26977 54.3357 6.5425 53.9634 7.08794C53.591 7.62814 53.4048 8.33093 53.4048 9.1963C53.4048 9.53196 53.4415 9.87811 53.5149 10.2347C53.5936 10.5914 53.73 10.8903 53.924 11.1316C54.1233 11.3728 54.4013 11.4882 54.7579 11.4777C55.0726 11.4672 55.3191 11.5721 55.4974 11.7924C55.681 12.0074 55.8593 12.2644 56.0324 12.5634C55.7439 12.7207 55.4423 12.8518 55.1277 12.9567C54.813 13.0616 54.5219 13.1141 54.2544 13.1141C53.7509 13.1141 53.2999 13.0013 52.9013 12.7758C52.508 12.545 52.1749 12.2408 51.9022 11.8632C51.6295 11.4804 51.4197 11.0582 51.2728 10.5966C51.1312 10.1298 51.0604 9.66307 51.0604 9.1963C51.0604 8.3624 51.2361 7.60192 51.5875 6.91487C51.9389 6.22257 52.445 5.67188 53.1058 5.2628C53.7667 4.85371 54.5639 4.64917 55.4974 4.64917C55.7964 4.64917 56.0953 4.66228 56.3943 4.6885C56.6932 4.70948 57.0289 4.75406 57.4012 4.82224C57.7736 4.89042 58.2194 4.99007 58.7386 5.12119V12.9725C58.7386 13.9322 58.5498 14.698 58.1722 15.2696C57.7998 15.8465 57.2963 16.2635 56.6617 16.5205C56.0324 16.7775 55.3348 16.906 54.5691 16.906Z" fill="#989EBB"/>
<path d="M63.6529 16.906C63.2438 16.906 62.7744 16.8614 62.2447 16.7722C61.7203 16.6883 61.1512 16.5126 60.5376 16.2451L61.0883 14.7819C61.618 14.9917 62.0743 15.1359 62.4571 15.2146C62.84 15.2932 63.1966 15.3326 63.527 15.3326C63.9152 15.3326 64.2718 15.2513 64.597 15.0887C64.9274 14.9261 65.1896 14.6822 65.3837 14.3571C65.583 14.0319 65.6826 13.628 65.6826 13.1455V6.39564C65.4781 6.34844 65.2866 6.31697 65.1083 6.30124C64.93 6.28026 64.7858 6.26977 64.6756 6.26977C63.9624 6.26977 63.4195 6.5425 63.0472 7.08794C62.6748 7.62814 62.4886 8.33093 62.4886 9.1963C62.4886 9.53196 62.5253 9.87811 62.5987 10.2347C62.6774 10.5914 62.8138 10.8903 63.0078 11.1316C63.2071 11.3728 63.4851 11.4882 63.8417 11.4777C64.1564 11.4672 64.4029 11.5721 64.5812 11.7924C64.7648 12.0074 64.9431 12.2644 65.1162 12.5634C64.8277 12.7207 64.5262 12.8518 64.2115 12.9567C63.8968 13.0616 63.6057 13.1141 63.3382 13.1141C62.8348 13.1141 62.3837 13.0013 61.9851 12.7758C61.5918 12.545 61.2587 12.2408 60.986 11.8632C60.7133 11.4804 60.5035 11.0582 60.3566 10.5966C60.215 10.1298 60.1442 9.66307 60.1442 9.1963C60.1442 8.3624 60.3199 7.60192 60.6713 6.91487C61.0227 6.22257 61.5288 5.67188 62.1897 5.2628C62.8505 4.85371 63.6477 4.64917 64.5812 4.64917C64.8802 4.64917 65.1791 4.66228 65.4781 4.6885C65.777 4.70948 66.1127 4.75406 66.485 4.82224C66.8574 4.89042 67.3032 4.99007 67.8224 5.12119V12.9725C67.8224 13.9322 67.6336 14.698 67.256 15.2696C66.8836 15.8465 66.3801 16.2635 65.7455 16.5205C65.1162 16.7775 64.4186 16.906 63.6529 16.906Z" fill="#989EBB"/>
<path d="M73.4448 13.177C72.7262 13.177 72.1047 13.0511 71.5803 12.7994C71.0558 12.5424 70.6231 12.2015 70.2822 11.7767C69.9466 11.3466 69.6974 10.872 69.5349 10.3527C69.3723 9.82828 69.291 9.30119 69.291 8.77148C69.291 7.90611 69.4745 7.16399 69.8417 6.54512C70.214 5.92625 70.7123 5.45423 71.3364 5.12906C71.9605 4.79864 72.6528 4.63344 73.4133 4.63344C73.9954 4.63344 74.5225 4.74882 74.9946 4.97958C75.4718 5.2051 75.8599 5.52503 76.1589 5.93936C76.4631 6.35369 76.6466 6.84406 76.7096 7.41049C76.7777 7.97691 76.6965 8.59841 76.4657 9.27497H72.0602C72.1703 8.91309 72.3355 8.60889 72.5558 8.3624C72.7761 8.11065 73.0199 7.98478 73.2874 7.98478H74.6877C74.7297 7.66485 74.7009 7.36591 74.6012 7.08794C74.5016 6.80997 74.339 6.58707 74.1135 6.41925C73.8932 6.24617 73.6231 6.15963 73.3032 6.15963C73.0147 6.15963 72.7289 6.24617 72.4456 6.41925C72.1624 6.59232 71.9264 6.86504 71.7376 7.23741C71.5541 7.60979 71.4623 8.09492 71.4623 8.69281C71.4623 9.29595 71.5541 9.81255 71.7376 10.2426C71.9264 10.6674 72.186 10.9926 72.5165 11.2181C72.8521 11.4436 73.2402 11.5564 73.6808 11.5564C74.0427 11.5564 74.4019 11.5118 74.7585 11.4227C75.1152 11.3283 75.5216 11.1788 75.9779 10.9742L76.5286 12.4375C75.9622 12.705 75.4272 12.8938 74.9238 13.0039C74.4255 13.1193 73.9325 13.177 73.4448 13.177Z" fill="#989EBB"/>
<path d="M81.3585 13.177C80.598 13.177 79.9477 12.9908 79.4075 12.6184C78.8725 12.2408 78.4634 11.7269 78.1802 11.0765C77.897 10.4209 77.7554 9.67881 77.7554 8.85015C77.7554 8.29421 77.8498 7.76713 78.0386 7.26888C78.2274 6.77064 78.4844 6.33009 78.8096 5.94723C79.1347 5.55912 79.5045 5.25493 79.9188 5.03465C80.3331 4.80913 80.7658 4.69637 81.2169 4.69637C81.4843 4.69637 81.7466 4.71473 82.0036 4.75144C82.2658 4.78291 82.6015 4.85896 83.0105 4.97958C82.8689 5.34147 82.7011 5.63517 82.5071 5.86069C82.3183 6.08621 82.0927 6.21208 81.8305 6.2383C81.4004 6.26453 81.0569 6.39302 80.7999 6.62379C80.5482 6.84931 80.3646 7.1535 80.2492 7.53636C80.1391 7.91922 80.084 8.35715 80.084 8.85015C80.084 9.3379 80.1496 9.78632 80.2807 10.1954C80.4118 10.6045 80.6006 10.9349 80.8471 11.1867C81.0989 11.4331 81.4004 11.5564 81.7518 11.5564C82.0508 11.5564 82.3471 11.4672 82.6408 11.2889C82.9345 11.1106 83.2466 10.8326 83.577 10.455V1.04608H85.764V10.99C85.764 11.2784 85.7824 11.5879 85.8191 11.9183C85.8558 12.2487 85.9161 12.6001 86 12.9725H84.3165C84.1854 12.899 84.0752 12.7941 83.9861 12.6578C83.8969 12.5214 83.8235 12.3798 83.7658 12.233L83.6871 11.8711L83.4196 12.2172C83.0105 12.5844 82.6408 12.8361 82.3104 12.9725C81.9852 13.1088 81.6679 13.177 81.3585 13.177Z" fill="#989EBB"/>
</svg>
