<svg width="32" height="33" viewBox="0 0 32 33" fill="none" xmlns="http://www.w3.org/2000/svg">
<g clip-path="url(#clip0_1522_2498)">
<path d="M26.6754 21.4993L26.2588 21.291L16.8713 25.9848C16.3325 26.2577 15.6686 26.2577 15.1298 25.9848L5.7422 21.291L5.32565 21.4993C5.21782 21.5532 5.12714 21.636 5.06375 21.7385C5.00037 21.8411 4.9668 21.9592 4.9668 22.0798C4.9668 22.2003 5.00037 22.3185 5.06375 22.421C5.12714 22.5235 5.21782 22.6064 5.32565 22.6603L15.7103 27.8526C15.8004 27.8976 15.8998 27.9211 16.0005 27.9211C16.1013 27.9211 16.2006 27.8976 16.2908 27.8526L26.6754 22.6603C26.7832 22.6064 26.8739 22.5235 26.9373 22.421C27.0007 22.3185 27.0342 22.2003 27.0342 22.0798C27.0342 21.9592 27.0007 21.8411 26.9373 21.7385C26.8739 21.636 26.7832 21.5532 26.6754 21.4993Z" fill="#FF6200"/>
<path opacity="0.4" d="M26.6754 18.4698L26.2588 18.2615L16.8713 22.9553C16.3325 23.2282 15.6686 23.2282 15.1298 22.9553L5.7422 18.2615L5.32565 18.4698C5.21782 18.5236 5.12714 18.6065 5.06375 18.709C5.00037 18.8116 4.9668 18.9297 4.9668 19.0503C4.9668 19.1708 5.00037 19.289 5.06375 19.3915C5.12714 19.494 5.21782 19.5769 5.32565 19.6308L15.7103 24.8231C15.8004 24.8681 15.8998 24.8916 16.0005 24.8916C16.1013 24.8916 16.2006 24.8681 16.2908 24.8231L26.6754 19.6308C26.7832 19.5769 26.8739 19.494 26.9373 19.3915C27.0007 19.289 27.0342 19.1708 27.0342 19.0503C27.0342 18.9297 27.0007 18.8116 26.9373 18.709C26.8739 18.6065 26.7832 18.5236 26.6754 18.4698ZM10.2927 13.4044L11.5908 15.6528C11.77 15.9632 12.167 16.0696 12.4774 15.8903L13.0119 15.5817C13.336 15.8275 13.6841 16.03 14.0534 16.1875V16.8003C14.0534 17.1587 14.344 17.4493 14.7024 17.4493H17.2986C17.657 17.4493 17.9476 17.1587 17.9476 16.8003V16.1875C18.3169 16.03 18.665 15.8275 18.9891 15.5817L19.5236 15.8903C19.834 16.0696 20.2309 15.9632 20.4102 15.6528L21.7082 13.4044C21.8875 13.094 21.7811 12.6971 21.4707 12.5179L20.9385 12.2106C20.9638 12.0084 20.9765 11.807 20.9765 11.6079C20.9765 11.4089 20.9638 11.2074 20.9385 11.0053L21.4707 10.698C21.7812 10.5188 21.8875 10.1219 21.7083 9.81145L20.4102 7.5631C20.231 7.25268 19.834 7.14628 19.5236 7.32555L18.9891 7.6341C18.6682 7.39017 18.3184 7.18671 17.9476 7.02833V6.41564C17.9476 6.0572 17.657 5.7666 17.2986 5.7666H14.7024C14.344 5.7666 14.0534 6.0572 14.0534 6.41564V7.02833C13.6827 7.18671 13.3329 7.39017 13.0119 7.6341L12.4774 7.32551C12.167 7.14628 11.7701 7.25264 11.5909 7.56305L10.2928 9.81141C10.1136 10.1218 10.2199 10.5188 10.5303 10.698L11.0625 11.0053C11.0373 11.2074 11.0246 11.4089 11.0246 11.6079C11.0246 11.807 11.0373 12.0084 11.0625 12.2106L10.5303 12.5179C10.2199 12.6971 10.1135 13.094 10.2927 13.4044ZM16.0005 9.66083C17.0742 9.66083 17.9476 10.5343 17.9476 11.6079C17.9476 12.6816 17.0742 13.5551 16.0005 13.5551C14.9269 13.5551 14.0534 12.6816 14.0534 11.6079C14.0534 10.5343 14.9269 9.66083 16.0005 9.66083Z" fill="#FF6200"/>
<path d="M5.32565 16.6016L15.7103 21.7939C15.8004 21.839 15.8998 21.8624 16.0005 21.8624C16.1013 21.8624 16.2006 21.839 16.2908 21.7939L26.6754 16.6016C26.7832 16.5477 26.8739 16.4649 26.9373 16.3623C27.0007 16.2598 27.0342 16.1416 27.0342 16.0211C27.0342 15.9006 27.0007 15.7824 26.9373 15.6799C26.8739 15.5773 26.7832 15.4945 26.6754 15.4406L23.0188 13.6123C22.9751 13.7663 22.9125 13.9144 22.8325 14.0531L21.5344 16.3015C21.1877 16.902 20.5413 17.2752 19.8475 17.2752H19.8475C19.6308 17.2751 19.4156 17.2388 19.2109 17.1678C19.0384 18.0662 18.2465 18.7471 17.2986 18.7471H14.7024C13.7545 18.7471 12.9627 18.0662 12.7902 17.1678C12.5854 17.2388 12.3703 17.2751 12.1535 17.2752C11.4597 17.2752 10.8133 16.9021 10.4666 16.3014L9.16856 14.0532C9.08838 13.9146 9.02549 13.7667 8.98129 13.6128L5.32565 15.4406C5.21782 15.4945 5.12714 15.5773 5.06375 15.6799C5.00037 15.7824 4.9668 15.9006 4.9668 16.0211C4.9668 16.1416 5.00037 16.2598 5.06375 16.3623C5.12714 16.4649 5.21782 16.5477 5.32565 16.6016Z" fill="#FF6200"/>
</g>
<defs>
<clipPath id="clip0_1522_2498">
<rect width="22.1538" height="22.1538" fill="white" transform="translate(4.92383 5.7666)"/>
</clipPath>
</defs>
</svg>
