<svg width="267" height="233" viewBox="0 0 267 233" fill="none" xmlns="http://www.w3.org/2000/svg">
<g clip-path="url(#clip0_1398_10288)">
<path d="M301 202.579H-36V202.748H301V202.579Z" fill="#EBEBEB"/>
<path d="M257.642 213.417H244.91V213.586H257.642V213.417Z" fill="#EBEBEB"/>
<path d="M181.378 212.246H161.516V212.414H181.378V212.246Z" fill="#EBEBEB"/>
<path d="M244.236 207.167H212.484V207.335H244.236V207.167Z" fill="#EBEBEB"/>
<path d="M6.75193 208.298H-0.641846V208.467H6.75193V208.298Z" fill="#EBEBEB"/>
<path d="M38.7399 208.298H12.7505V208.467H38.7399V208.298Z" fill="#EBEBEB"/>
<path d="M115.751 211.141H79.2539V211.309H115.751V211.141Z" fill="#EBEBEB"/>
<path d="M123.745 172.535H-6.39804C-8.52114 172.535 -10.2466 170.811 -10.2466 168.689V-14.1536C-10.2466 -16.2755 -8.52114 -18 -6.39804 -18H123.751C125.874 -18 127.6 -16.2755 127.6 -14.1536V168.689C127.6 170.811 125.874 172.535 123.751 172.535H123.745ZM-6.39804 -17.8316C-8.42678 -17.8316 -10.0781 -16.1812 -10.0781 -14.1536V168.689C-10.0781 170.717 -8.42678 172.367 -6.39804 172.367H123.751C125.78 172.367 127.431 170.717 127.431 168.689V-14.1536C127.431 -16.1812 125.78 -17.8316 123.751 -17.8316H-6.39804Z" fill="#EBEBEB"/>
<path d="M269.531 172.535H139.381C137.258 172.535 135.533 170.811 135.533 168.689V-14.1536C135.533 -16.2755 137.258 -18 139.381 -18H269.531C271.654 -18 273.379 -16.2755 273.379 -14.1536V168.689C273.379 170.811 271.654 172.535 269.531 172.535ZM139.381 -17.8316C137.353 -17.8316 135.701 -16.1812 135.701 -14.1536V168.689C135.701 170.717 137.353 172.367 139.381 172.367H269.531C271.56 172.367 273.211 170.717 273.211 168.689V-14.1536C273.211 -16.1812 271.56 -17.8316 269.531 -17.8316H139.381Z" fill="#EBEBEB"/>
<path d="M257.642 213.418H244.91V213.586H257.642V213.418Z" fill="#EBEBEB"/>
<path d="M181.379 212.246H161.516V212.414H181.379V212.246Z" fill="#EBEBEB"/>
<path d="M244.236 207.167H212.484V207.335H244.236V207.167Z" fill="#EBEBEB"/>
<path d="M6.75193 208.298H-0.641846V208.467H6.75193V208.298Z" fill="#EBEBEB"/>
<path d="M38.7399 208.298H12.7505V208.467H38.7399V208.298Z" fill="#EBEBEB"/>
<path d="M115.751 211.141H79.2542V211.31H115.751V211.141Z" fill="#EBEBEB"/>
<path d="M96.7377 2.66016H56.7156V93.6267H96.7377V2.66016Z" fill="#E6E6E6"/>
<path d="M99.1842 2.66016H59.1621V93.6267H99.1842V2.66016Z" fill="#F5F5F5"/>
<path d="M94.7898 89.5311V6.75586L63.5432 6.75586V89.5311H94.7898Z" fill="white"/>
<path d="M94.7898 89.5243V6.74902H92.943V89.5243H94.7898Z" fill="#E6E6E6"/>
<path d="M97.3646 64.9502H60.9753V70.447H97.3646V64.9502Z" fill="#F5F5F5"/>
<path d="M97.3646 13.9771H60.9753V19.4738H97.3646V13.9771Z" fill="#F5F5F5"/>
<path d="M150.698 2.66016H110.676V93.6267H150.698V2.66016Z" fill="#E6E6E6"/>
<path d="M153.138 2.66016H113.116V93.6267H153.138V2.66016Z" fill="#F5F5F5"/>
<path d="M148.75 89.5311V6.75586L117.504 6.75586V89.5311H148.75Z" fill="white"/>
<path d="M148.75 89.5243V6.74902H146.903V89.5243H148.75Z" fill="#E6E6E6"/>
<path d="M151.325 64.9502H114.936V70.447H151.325V64.9502Z" fill="#F5F5F5"/>
<path d="M151.325 13.9771H114.936V19.4738H151.325V13.9771Z" fill="#F5F5F5"/>
<path d="M42.7772 2.66016H2.75513V93.6267H42.7772V2.66016Z" fill="#E6E6E6"/>
<path d="M45.2238 2.66016H5.20166V93.6267H45.2238V2.66016Z" fill="#F5F5F5"/>
<path d="M40.8293 89.5311L40.8293 6.75586L9.58271 6.75586L9.58271 89.5311H40.8293Z" fill="white"/>
<path d="M40.8293 89.5243L40.8293 6.74902H38.9826L38.9826 89.5243H40.8293Z" fill="#E6E6E6"/>
<path d="M43.4042 64.9502H7.01489V70.447H43.4042V64.9502Z" fill="#F5F5F5"/>
<path d="M43.4042 13.9771H7.01489V19.4738H43.4042V13.9771Z" fill="#F5F5F5"/>
<path d="M185.894 111.707H179.35V202.572H185.894V111.707Z" fill="#E6E6E6"/>
<path d="M187.647 111.707H183.792V202.572H187.647V111.707Z" fill="#F0F0F0"/>
<path d="M95.9085 118.523L188.84 118.523V111.706L95.9085 111.706V118.523Z" fill="#F0F0F0"/>
<path d="M7.88414 111.707H1.3396V202.572H7.88414V111.707Z" fill="#E6E6E6"/>
<path d="M9.1109 111.707H5.25562V202.572H9.1109V111.707Z" fill="#F0F0F0"/>
<path d="M0.173607 118.523L93.1047 118.523V111.706L0.173607 111.706V118.523Z" fill="#E6E6E6"/>
<path d="M95.3492 111.707H88.8047V202.572H95.3492V111.707Z" fill="#E6E6E6"/>
<path d="M97.1016 111.707H93.2463V202.572H97.1016V111.707Z" fill="#F0F0F0"/>
<path d="M78.6946 81.4878H127.223L131.031 110.124H82.5094L78.6946 81.4878Z" fill="#E6E6E6"/>
<path d="M82.5095 110.124L82.705 111.707H131.233L131.038 110.124H82.5095Z" fill="#E6E6E6"/>
<path d="M80.1909 81.4878H128.719L132.527 110.124H83.999L80.1909 81.4878Z" fill="#F0F0F0"/>
<path d="M85.1717 108.817L81.7141 82.7944H127.539L131.004 108.817H85.1717Z" fill="white"/>
<path d="M96.6433 110.124L96.8388 111.707H150.28L150.078 110.124H96.6433Z" fill="#F0F0F0"/>
<path d="M184.331 87.1196H160.309C151.756 87.1196 144.699 93.2698 143.581 101.69L140.062 128.177L127.02 128.137H126.98C120.766 128.137 115.893 132.549 115.38 138.652L114.612 147.719C112.031 148.096 109.995 150.097 109.638 152.751H174.079C182.625 152.751 189.675 146.608 190.794 138.194L195.843 100.161C196.746 93.3507 191.246 87.1196 184.331 87.1196ZM127.694 147.652H118.056L118.777 139.292C119.162 134.799 122.761 131.525 127.337 131.525H127.371L139.611 131.566L138.755 138.019C138.013 143.59 133.349 147.652 127.694 147.652Z" fill="#E0E0E0"/>
<path d="M124.526 152.751H121.183L113.352 202.579H116.695L124.526 152.751Z" fill="#F0F0F0"/>
<path d="M137.076 152.751H133.733L125.895 202.579H129.238L137.076 152.751Z" fill="#F0F0F0"/>
<path d="M166.517 152.751H169.86L177.699 202.579H174.355L166.517 152.751Z" fill="#F0F0F0"/>
<path d="M153.974 152.751H157.317L165.149 202.579H161.806L153.974 152.751Z" fill="#F0F0F0"/>
<path d="M260.297 4.25684H195.128V140.336H260.297V4.25684Z" fill="#E6E6E6"/>
<path d="M264.827 4.25684H196.335V140.336H264.827V4.25684Z" fill="#F0F0F0"/>
<path d="M259.091 134.597V9.98926L202.07 9.98926V134.597H259.091Z" fill="#FAFAFA"/>
<path d="M222.284 134.597L229.347 9.98926H238.878L231.814 134.597H222.284Z" fill="white"/>
<path d="M233.614 134.597L240.677 9.98926H250.207L243.144 134.597H233.614Z" fill="white"/>
<path d="M132.5 233C204.674 233 263.182 229.586 263.182 225.374C263.182 221.163 204.674 217.749 132.5 217.749C60.3264 217.749 1.81812 221.163 1.81812 225.374C1.81812 229.586 60.3264 233 132.5 233Z" fill="#F5F5F5"/>
<path d="M126.306 26.8973L115.852 179.467H243.319L254.865 10.9121H143.399L126.306 26.8973Z" fill="#0E0E2F"/>
<path opacity="0.8" d="M126.306 26.8973L115.852 179.467H243.319L254.865 10.9121H143.399L126.306 26.8973Z" fill="white"/>
<path d="M232.892 62.4255C241.479 54.1318 242.157 40.911 234.407 32.8958C226.658 24.8806 213.414 25.1064 204.827 33.4C196.24 41.6937 195.561 54.9146 203.311 62.9297C211.061 70.9449 224.304 70.7191 232.892 62.4255Z" fill="#0E0E2F"/>
<path d="M232.151 61.6605C240.286 53.8037 240.929 41.2797 233.588 33.6873C226.247 26.0948 213.702 26.309 205.567 34.1657C197.432 42.0225 196.789 54.5465 204.13 62.139C211.471 69.7314 224.017 69.5172 232.151 61.6605Z" fill="white"/>
<mask id="mask0_1398_10288" style="mask-type:luminance" maskUnits="userSpaceOnUse" x="199" y="28" width="40" height="40">
<path d="M232.151 61.6605C240.286 53.8037 240.929 41.2797 233.588 33.6873C226.247 26.0948 213.702 26.309 205.567 34.1657C197.432 42.0225 196.789 54.5465 204.13 62.139C211.471 69.7314 224.017 69.5172 232.151 61.6605Z" fill="white"/>
</mask>
<g mask="url(#mask0_1398_10288)">
<path d="M213.657 54.8058L209.761 54.5498C209.761 54.5498 207.948 63.8728 206.788 64.6811C205.205 65.7792 202.07 68.4265 199.995 69.3898C199.813 69.8074 199.685 70.993 199.86 71.3501C203.095 71.3703 209.08 68.1301 210.118 66.729C212.477 63.536 213.663 54.8058 213.663 54.8058H213.657Z" fill="#FFC3BD"/>
<path d="M215.517 48.9386C216.696 51.1346 213.023 59.07 213.023 59.07L208.022 57.4735C208.022 57.4735 208.197 53.526 209.693 50.4138C210.934 47.8339 214.23 46.527 215.524 48.9386H215.517Z" fill="#263238"/>
<path opacity="0.2" d="M211.695 52.9805C212.39 54.5635 211.486 58.4032 210.792 60.835C209.1 57.9384 208.871 55.2439 211.695 52.9805Z" fill="black"/>
<path d="M211.675 49.329C210.907 52.138 209.404 59.5143 210.63 71.0939H223.794C224.097 68.8911 223.713 58.1401 226.806 47.7527C226.806 47.7527 224.387 47.261 222.055 47.1465C220.228 47.0589 217.573 46.9983 215.948 47.1465C214.964 47.234 214.068 47.4294 213.38 47.618C212.551 47.847 211.897 48.5005 211.668 49.329H211.675Z" fill="#263238"/>
<path opacity="0.2" d="M223.45 50.3127C223.052 52.0237 223.214 56.1127 224.4 60.8348C224.744 57.1972 225.357 52.9803 226.517 48.7836V48.7634C225.58 48.6691 223.834 48.7095 223.45 50.3127Z" fill="black"/>
<path d="M221.785 41.4341C221.219 43.4011 220.801 45.8329 222.054 47.1397C222.054 47.1397 221.077 49.1336 217.431 49.1336C214.095 49.1336 215.948 47.1397 215.948 47.1397C218.186 46.6143 218.327 43.9063 218.085 42.3839L221.785 41.4341Z" fill="#FFC3BD"/>
<path d="M217.431 49.134C218.011 50.1108 217.957 51.0202 217.957 51.0202C217.957 51.0202 222.681 49.4102 222.688 47.0458C222.688 47.0458 222.075 46.6618 221.691 46.3452C221.691 46.3452 221.367 48.1842 217.431 49.134Z" fill="white"/>
<path d="M217.296 49.134C216.535 50.1107 216.366 50.8787 216.366 50.8787C216.366 50.8787 214.425 49.4775 215.261 47.14C215.261 47.14 215.867 46.8975 216.467 46.7695C216.467 46.7695 215.894 48.6287 217.289 49.134H217.296Z" fill="white"/>
<path opacity="0.2" d="M218.085 42.3907C218.226 43.2867 218.24 44.5868 217.768 45.6174C218.098 45.5703 218.435 45.4692 218.772 45.3143C220.059 44.735 220.754 43.8188 221.515 42.4581C221.596 42.1078 221.684 41.771 221.785 41.4409L218.085 42.3907Z" fill="black"/>
<path d="M214.897 40.5721C215.106 41.239 215.611 41.7241 216.13 41.9463C216.919 42.2832 217.492 41.5691 217.424 40.7338C217.363 39.9861 216.878 38.9083 216.015 38.9285C215.166 38.9487 214.661 39.811 214.897 40.5721Z" fill="#FFC3BD"/>
<path opacity="0.2" d="M214.897 40.5721C215.106 41.239 215.611 41.7241 216.13 41.9463C216.919 42.2832 217.492 41.5691 217.424 40.7338C217.363 39.9861 216.878 38.9083 216.015 38.9285C215.166 38.9487 214.661 39.811 214.897 40.5721Z" fill="black"/>
<path d="M218.422 35.0684C218.166 33.5123 215.874 36.2472 216.359 37.6888C216.845 39.1303 218.705 36.8198 218.422 35.0684Z" fill="#263238"/>
<path d="M223.342 39.0161C222.5 41.623 222.129 43.1791 220.484 44.304C218.004 45.9948 215.146 44.2367 215.214 41.5018C215.281 39.043 216.649 35.1899 219.44 34.5836C222.189 33.9841 224.191 36.4159 223.342 39.0228V39.0161Z" fill="#FFC3BD"/>
<path d="M222.574 37.4733C219.729 37.0692 215.645 36.5505 217.128 34.2265C218.536 32.0102 224.157 32.4144 222.452 33.3979C224.663 33.5259 227.46 34.5835 225.344 35.311C227.049 36.5235 226.375 39.7704 223.119 40.9021C222.183 39.5414 221.441 38.9351 222.574 37.4733Z" fill="#263238"/>
<path d="M223.746 42.1215C223.221 42.6604 222.52 42.9366 221.933 42.9635C221.044 43.004 220.875 42.1619 221.354 41.4209C221.785 40.7608 222.762 39.939 223.544 40.2421C224.312 40.5452 224.346 41.5018 223.746 42.1215Z" fill="#FFC3BD"/>
<path d="M219.251 39.0631C219.197 39.2786 219.042 39.4336 218.9 39.4066C218.765 39.3797 218.698 39.1911 218.752 38.9755C218.806 38.7599 218.961 38.605 219.102 38.632C219.237 38.6589 219.305 38.8475 219.251 39.0631Z" fill="#263238"/>
<path d="M216.885 38.6524C216.831 38.868 216.676 39.0229 216.535 38.996C216.4 38.969 216.332 38.7804 216.386 38.5649C216.44 38.3493 216.595 38.1944 216.737 38.2213C216.872 38.2483 216.939 38.4369 216.885 38.6524Z" fill="#263238"/>
<path d="M217.613 38.8882C217.613 38.8882 216.818 40.0401 216.137 40.5453C216.413 40.963 217.087 40.9158 217.087 40.9158L217.613 38.8882Z" fill="#ED847E"/>
<path d="M217.539 41.616C217.505 41.616 217.485 41.5756 217.492 41.5419C217.498 41.5083 217.539 41.4813 217.572 41.488C218.489 41.6497 219.089 41.0637 219.096 41.0637C219.123 41.0367 219.163 41.0367 219.183 41.0637C219.203 41.0906 219.203 41.131 219.183 41.1512C219.163 41.1714 218.523 41.7912 217.539 41.616Z" fill="#263238"/>
<path d="M220.167 38.4099C220.127 38.4099 220.1 38.3829 220.08 38.3425C219.864 37.8373 219.406 37.7834 219.399 37.7834C219.332 37.7834 219.284 37.716 219.298 37.6419C219.311 37.5746 219.379 37.5207 219.446 37.5274C219.473 37.5274 220.046 37.5948 220.309 38.2213C220.336 38.2819 220.309 38.3627 220.242 38.3964C220.215 38.4099 220.188 38.4166 220.161 38.4099H220.167Z" fill="#263238"/>
<path d="M216.049 37.608C216.049 37.608 216.016 37.5946 216.002 37.5811C215.955 37.5339 215.948 37.4531 216.002 37.3992C216.494 36.8536 217.074 36.9075 217.094 36.9142C217.161 36.9142 217.209 36.9816 217.195 37.0557C217.182 37.123 217.114 37.1769 217.047 37.1702C217.047 37.1702 216.575 37.1298 216.184 37.5676C216.15 37.608 216.096 37.6215 216.056 37.608H216.049Z" fill="#263238"/>
<path d="M227.966 51.3569L224.393 53.2431C224.393 53.2431 227.838 61.7375 227.251 63.0107C226.449 64.7419 225.128 68.5681 223.821 70.461C223.888 70.8921 224.414 71.916 224.764 72.1181C227.622 70.3936 231.14 64.5668 231.288 62.8827C231.639 59.0363 227.959 51.3637 227.959 51.3637L227.966 51.3569Z" fill="#FFC3BD"/>
<path d="M226.806 47.7527C229.293 48.1973 231.127 57.069 231.127 57.069L224.98 58.8272C224.98 58.8272 223.598 55.6746 222.823 52.5355C222.007 49.2482 224.137 47.2745 226.806 47.746V47.7527Z" fill="#263238"/>
</g>
<path d="M226.108 161.483C234.695 153.189 235.374 139.969 227.624 131.953C219.874 123.938 206.63 124.164 198.043 132.458C189.456 140.751 188.777 153.972 196.527 161.987C204.277 170.002 217.521 169.777 226.108 161.483Z" fill="#0E0E2F"/>
<path d="M225.368 160.718C233.502 152.861 234.146 140.337 226.805 132.745C219.463 125.152 206.918 125.367 198.783 133.223C190.648 141.08 190.005 153.604 197.346 161.197C204.687 168.789 217.233 168.575 225.368 160.718Z" fill="white"/>
<mask id="mask1_1398_10288" style="mask-type:luminance" maskUnits="userSpaceOnUse" x="192" y="127" width="40" height="40">
<path d="M225.368 160.718C233.502 152.861 234.146 140.337 226.805 132.745C219.463 125.152 206.918 125.367 198.783 133.223C190.648 141.08 190.005 153.604 197.346 161.197C204.687 168.789 217.233 168.575 225.368 160.718Z" fill="white"/>
</mask>
<g mask="url(#mask1_1398_10288)">
<path d="M205.184 154.038L201.524 152.846C201.524 152.846 197.541 161.616 196.234 162.128C194.461 162.829 190.821 164.695 188.611 165.146C188.334 165.517 187.93 166.655 188.011 167.052C191.098 167.847 197.588 166.096 198.916 164.958C201.942 162.371 205.184 154.038 205.184 154.038Z" fill="#FFB573"/>
<path d="M208.372 148.696C208.965 151.148 203.546 158.093 203.546 158.093L199.159 155.318C199.159 155.318 200.284 151.464 202.455 148.756C204.261 146.507 207.719 146.008 208.372 148.703V148.696Z" fill="#0E0E2F"/>
<path opacity="0.3" d="M208.372 148.696C208.965 151.148 203.546 158.093 203.546 158.093L199.159 155.318C199.159 155.318 200.284 151.464 202.455 148.756C204.261 146.507 207.719 146.008 208.372 148.703V148.696Z" fill="black"/>
<path opacity="0.2" d="M204.948 151.748C205.359 153.445 204.989 156.153 203.897 158.464C202.94 157.022 201.807 153.533 204.948 151.748Z" fill="black"/>
<path d="M204.888 148.386C204.119 151.195 202.616 158.571 203.843 170.151H217.006C217.31 167.948 216.925 157.197 220.019 146.81C220.019 146.81 217.599 146.318 215.267 146.204C213.441 146.116 210.785 146.055 209.161 146.204C208.177 146.291 207.28 146.487 206.593 146.675C205.764 146.904 205.11 147.558 204.881 148.386H204.888Z" fill="#0E0E2F"/>
<path opacity="0.3" d="M204.888 148.386C204.119 151.195 202.616 158.571 203.843 170.151H217.006C217.31 167.948 216.925 157.197 220.019 146.81C220.019 146.81 217.599 146.318 215.267 146.204C213.441 146.116 210.785 146.055 209.161 146.204C208.177 146.291 207.28 146.487 206.593 146.675C205.764 146.904 205.11 147.558 204.881 148.386H204.888Z" fill="black"/>
<path opacity="0.2" d="M216.71 151.579C216.312 153.29 215.961 157.345 217.613 159.892C217.956 156.254 218.57 152.037 219.729 147.84V147.82C218.792 147.726 217.087 149.976 216.71 151.579Z" fill="black"/>
<g opacity="0.95">
<path d="M210.475 151.485L209.754 151.801L209.201 151.303C207.348 149.619 207.375 147.645 207.793 146.392C208.217 146.311 208.682 146.237 209.167 146.197C210.792 146.049 213.447 146.109 215.274 146.197C215.746 146.217 216.218 146.257 216.676 146.305L216.218 146.897C216.116 147.025 213.737 150.057 210.482 151.485H210.475Z" fill="white"/>
</g>
<path d="M215.004 140.491C214.438 142.458 214.02 144.89 215.274 146.197C215.274 146.197 213.036 149.073 210.057 150.387C207.84 148.373 209.168 146.197 209.168 146.197C211.405 145.671 211.547 142.963 211.304 141.441L215.004 140.491Z" fill="#FFB573"/>
<path opacity="0.2" d="M211.297 141.441C211.439 142.337 211.453 143.637 210.981 144.668C211.311 144.621 211.648 144.519 211.985 144.365C213.272 143.785 213.967 142.869 214.728 141.508C214.809 141.158 214.897 140.821 214.998 140.491L211.297 141.441Z" fill="black"/>
<path d="M208.11 139.622C208.318 140.289 208.824 140.774 209.343 140.997C210.132 141.333 210.704 140.619 210.637 139.784C210.576 139.036 210.091 137.959 209.228 137.979C208.379 137.999 207.874 138.861 208.11 139.622Z" fill="#FFB573"/>
<path opacity="0.2" d="M208.11 139.622C208.318 140.289 208.824 140.774 209.343 140.997C210.132 141.333 210.704 140.619 210.637 139.784C210.576 139.036 210.091 137.959 209.228 137.979C208.379 137.999 207.874 138.861 208.11 139.622Z" fill="black"/>
<path d="M211.23 135.015C210.974 133.256 209.013 135.271 208.797 136.557C208.581 137.844 209.653 139.144 210.381 137.871C211.109 136.598 211.372 135.964 211.23 135.015Z" fill="#263238"/>
<path d="M216.555 138.073C215.712 140.68 215.341 142.236 213.697 143.361C211.217 145.052 208.359 143.294 208.426 140.559C208.494 138.093 209.862 134.247 212.652 133.641C215.402 133.041 217.404 135.473 216.555 138.08V138.073Z" fill="#FFB573"/>
<path d="M215.281 140.801C214.27 140.107 214.088 139.872 214.627 139.265C215.503 138.282 214.202 138.14 214.89 136.921C215.847 135.224 212.794 136.416 212.74 135.183C212.693 134.179 210.024 135.985 209.768 134.833C209.377 133.095 211.918 133.411 212.369 132.563C212.821 131.714 215.429 131.586 215.847 132.825C216.265 134.058 217.579 133.075 218.428 134.59C219.278 136.106 217.512 136.207 218.368 137.682C219.048 138.861 217.741 139.676 216.824 140.639C216.245 141.246 215.908 141.239 215.281 140.808V140.801Z" fill="#263238"/>
<path d="M217.128 140.821C216.649 141.401 215.975 141.731 215.382 141.811C214.499 141.933 214.256 141.111 214.667 140.336C215.038 139.642 215.948 138.746 216.757 138.975C217.552 139.205 217.667 140.154 217.128 140.814V140.821Z" fill="#FFB573"/>
<path d="M212.463 138.12C212.41 138.336 212.254 138.491 212.113 138.464C211.978 138.437 211.911 138.248 211.965 138.033C212.019 137.817 212.174 137.662 212.315 137.689C212.45 137.716 212.517 137.905 212.463 138.12Z" fill="#263238"/>
<path d="M210.105 137.709C210.051 137.925 209.896 138.08 209.754 138.053C209.619 138.026 209.552 137.837 209.606 137.622C209.66 137.406 209.815 137.251 209.956 137.278C210.091 137.305 210.158 137.494 210.105 137.709Z" fill="#263238"/>
<path d="M210.826 137.945C210.826 137.945 210.03 139.097 209.35 139.602C209.626 140.02 210.3 139.972 210.3 139.972L210.826 137.945Z" fill="#ED893E"/>
<path d="M210.752 140.673C210.718 140.673 210.698 140.633 210.704 140.599C210.711 140.565 210.752 140.538 210.785 140.545C211.702 140.707 212.302 140.121 212.309 140.121C212.335 140.094 212.376 140.094 212.396 140.121C212.416 140.148 212.416 140.188 212.396 140.208C212.369 140.235 211.736 140.848 210.752 140.673Z" fill="#263238"/>
<path d="M213.38 137.467C213.34 137.467 213.313 137.44 213.292 137.399C213.077 136.894 212.618 136.84 212.612 136.84C212.544 136.84 212.497 136.773 212.511 136.699C212.524 136.631 212.591 136.577 212.659 136.584C212.686 136.584 213.259 136.651 213.522 137.278C213.549 137.339 213.522 137.419 213.454 137.453C213.427 137.467 213.4 137.473 213.373 137.467H213.38Z" fill="#263238"/>
<path d="M209.262 136.665C209.262 136.665 209.228 136.652 209.215 136.638C209.168 136.591 209.161 136.51 209.215 136.456C209.707 135.911 210.286 135.965 210.307 135.971C210.374 135.971 210.421 136.039 210.408 136.113C210.394 136.18 210.327 136.234 210.259 136.227C210.259 136.227 209.788 136.187 209.397 136.625C209.363 136.665 209.309 136.679 209.269 136.665H209.262Z" fill="#263238"/>
<path d="M221.455 150.717L217.7 152.145C217.7 152.145 219.992 161.084 219.244 162.283C218.233 163.913 216.433 167.571 214.903 169.295C214.917 169.74 215.301 170.831 215.618 171.074C218.651 169.713 222.857 164.338 223.227 162.674C224.07 158.874 221.448 150.717 221.448 150.717H221.455Z" fill="#FFB573"/>
<path d="M220.781 146.958C223.173 147.719 223.827 156.834 223.827 156.834L217.559 157.804C217.559 157.804 216.609 154.476 216.251 151.236C215.874 147.841 218.219 146.143 220.787 146.958H220.781Z" fill="#0E0E2F"/>
<path opacity="0.3" d="M220.781 146.958C223.173 147.719 223.827 156.834 223.827 156.834L217.559 157.804C217.559 157.804 216.609 154.476 216.251 151.236C215.874 147.841 218.219 146.143 220.787 146.958H220.781Z" fill="black"/>
</g>
<path d="M167.17 111.949C175.757 103.656 176.436 90.4349 168.686 82.4197C160.936 74.4046 147.692 74.6303 139.105 82.924C130.518 91.2176 129.84 104.438 137.589 112.454C145.339 120.469 158.583 120.243 167.17 111.949Z" fill="#0E0E2F"/>
<path d="M166.43 111.184C174.565 103.328 175.208 90.8036 167.867 83.2112C160.526 75.6187 147.98 75.833 139.845 83.6897C131.711 91.5464 131.067 104.07 138.409 111.663C145.75 119.255 158.295 119.041 166.43 111.184Z" fill="white"/>
<mask id="mask2_1398_10288" style="mask-type:luminance" maskUnits="userSpaceOnUse" x="133" y="77" width="40" height="41">
<path d="M166.43 111.184C174.565 103.328 175.208 90.8036 167.867 83.2112C160.526 75.6187 147.98 75.833 139.845 83.6897C131.711 91.5464 131.067 104.07 138.409 111.663C145.75 119.255 158.295 119.041 166.43 111.184Z" fill="white"/>
</mask>
<g mask="url(#mask2_1398_10288)">
<path d="M161.421 102.101C161.529 103.711 161.603 105.321 161.671 106.931L161.866 111.741L161.9 112.327L161.947 112.839C162.001 113.189 162.041 113.553 162.115 113.93C162.257 114.671 162.439 115.425 162.655 116.18C163.059 117.696 163.551 119.225 164.03 120.74L162.634 121.387C161.778 119.959 161.057 118.49 160.403 116.955C160.093 116.18 159.804 115.392 159.554 114.563C159.426 114.152 159.312 113.721 159.224 113.283L159.116 112.596L159.042 111.976C158.692 108.716 158.456 105.51 158.321 102.263L161.428 102.108L161.421 102.101Z" fill="#FF8B7B"/>
<path d="M160.68 98.5783C161.913 98.8949 162.432 104.055 162.432 104.055L157.418 107.315C157.418 107.315 155.861 101.205 156.926 99.8245C158.031 98.3897 158.887 98.1135 160.68 98.5783Z" fill="#0E0E2F"/>
<path opacity="0.2" d="M160.484 99.73L161.091 104.924L159.062 106.237L160.484 99.73Z" fill="black"/>
<path d="M146.991 85.2875C144.888 85.5906 140.467 95.6681 147.672 100.37C154.877 105.072 160.181 99.7301 160.181 99.7301C160.181 99.7301 155.8 94.5229 156.434 91.1346C157.067 87.7462 159.804 83.462 154.196 82.0339C150.24 81.0234 144.929 82.0002 146.991 85.2942V85.2875Z" fill="#263238"/>
<path d="M160.68 98.5783C160.68 98.5783 162.095 99.0903 157.97 116.928H145.616C146.169 111.903 146.384 108.804 144.686 98.4907C144.686 98.4907 147.314 97.9249 149.977 97.7969C152.059 97.6959 153.771 97.6285 155.584 97.7969C157.977 98.0192 160.673 98.5783 160.673 98.5783H160.68Z" fill="#0E0E2F"/>
<path opacity="0.2" d="M145.427 102.573C146.526 102.849 147.476 104.075 147.2 106.318C147.031 107.665 146.344 108.683 145.973 109.147C145.892 107.416 145.697 105.415 145.353 102.842L145.427 102.573Z" fill="black"/>
<path d="M154.668 101.751C154.668 101.751 152.531 103.415 152.41 105.186C150.813 103.954 148.777 100.599 148.683 98.4567C148.669 98.093 148.979 97.7764 149.343 97.7562C149.532 97.7427 149.687 97.7225 149.795 97.6955C149.923 97.6686 150.058 97.6956 150.152 97.7831L154.668 101.744V101.751Z" fill="#FAFAFA"/>
<path d="M154.668 101.751C154.668 101.751 156.454 102.708 156.629 105.052C158.415 103.806 157.802 100.08 156.98 98.2549C156.851 97.9652 156.575 97.7699 156.258 97.7362C156.009 97.7092 155.82 97.6756 155.699 97.6486C155.605 97.6284 155.51 97.6958 155.49 97.7901L154.668 101.744V101.751Z" fill="#FAFAFA"/>
<path d="M150.968 91.4849C151.197 93.2902 151.325 96.591 149.977 97.7967C149.977 97.7967 151.493 100.02 154.668 101.751C157.31 99.7503 155.591 97.7967 155.591 97.7967C153.61 97.3185 153.765 95.823 154.21 94.4219L150.968 91.4849Z" fill="#FF8B7B"/>
<path opacity="0.2" d="M152.289 92.6841L154.21 94.422C154.102 94.7521 154.014 95.0889 153.967 95.419C153.205 95.3112 152.039 94.6511 151.931 93.8158C151.878 93.4183 152.208 92.8727 152.289 92.6841Z" fill="black"/>
<path d="M148.144 88.5882C148.777 91.4848 148.986 92.7311 150.725 93.9099C153.34 95.6815 156.838 94.0244 157.101 90.9325C157.337 88.1504 156.259 83.8796 153.151 83.3474C150.091 82.822 147.51 85.6849 148.144 88.5882Z" fill="#FF8B7B"/>
<path d="M148.973 91.2021C150.84 89.4237 150.907 87.2209 150.435 86.5338C152.039 86.3991 156.191 85.3887 155.524 83.8461C154.857 82.3035 148.393 81.4614 147.503 85.4223C145.367 87.2007 146.735 90.7979 148.973 91.2021Z" fill="#263238"/>
<path d="M153.023 88.3257C153.057 88.5682 153.219 88.7298 153.381 88.6962C153.542 88.6625 153.637 88.4402 153.603 88.1977C153.569 87.9552 153.408 87.7935 153.246 87.8272C153.084 87.8609 152.99 88.0832 153.023 88.3257Z" fill="#263238"/>
<path d="M155.773 87.7261C155.807 87.9686 155.969 88.1302 156.13 88.0966C156.292 88.0629 156.387 87.8406 156.353 87.5981C156.319 87.3556 156.157 87.1939 155.996 87.2276C155.834 87.2613 155.739 87.4835 155.773 87.7261Z" fill="#263238"/>
<path d="M155.921 87.2544L156.481 86.958C156.481 86.958 156.252 87.47 155.921 87.2544Z" fill="#263238"/>
<path d="M154.991 88.3389C154.991 88.3389 155.564 89.2819 156.09 89.6794C155.814 90.0431 155.247 90.0297 155.247 90.0297L154.985 88.3389H154.991Z" fill="#FF5652"/>
<path d="M154.068 91.2561C154.183 91.2493 154.304 91.2291 154.432 91.2022C154.472 91.1954 154.499 91.155 154.493 91.1146C154.493 91.0742 154.452 91.0472 154.412 91.0607C153.347 91.2897 152.733 90.67 152.727 90.6633C152.7 90.6363 152.653 90.6363 152.626 90.6633C152.599 90.6902 152.592 90.7374 152.626 90.7643C152.653 90.7913 153.158 91.31 154.075 91.2493L154.068 91.2561Z" fill="#263238"/>
<path d="M147.753 91.4781C148.063 91.9968 148.595 92.3134 149.094 92.401C149.842 92.5425 150.206 91.8419 149.984 91.1615C149.781 90.5485 149.148 89.7334 148.4 89.9018C147.665 90.0702 147.395 90.8719 147.753 91.4714V91.4781Z" fill="#FF8B7B"/>
<path d="M151.736 87.8003C151.797 87.7936 151.85 87.7465 151.864 87.6858C152.026 87.0324 152.828 86.6619 152.834 86.6619C152.909 86.6282 152.949 86.5407 152.915 86.4733C152.888 86.3992 152.801 86.3723 152.727 86.4059C152.686 86.4261 151.776 86.8438 151.581 87.6454C151.561 87.7262 151.608 87.8003 151.689 87.8138C151.702 87.8138 151.722 87.8138 151.736 87.8138V87.8003Z" fill="#263238"/>
<path d="M156.44 85.8061C156.488 85.8061 156.542 85.7859 156.575 85.7388C156.622 85.6714 156.609 85.5838 156.548 85.5367C155.915 85.0988 155.281 85.3548 155.254 85.3683C155.18 85.402 155.14 85.4828 155.167 85.5569C155.194 85.631 155.274 85.6647 155.349 85.631C155.376 85.6175 155.868 85.4289 156.366 85.7792C156.387 85.7927 156.413 85.7994 156.44 85.7994V85.8061Z" fill="#263238"/>
<path d="M153.178 87.8608L153.738 87.5645C153.738 87.5645 153.508 88.0764 153.178 87.8608Z" fill="#263238"/>
<path d="M145.481 116.2L145.09 117.305C145.043 117.393 145.137 117.48 145.279 117.48H157.991C158.105 117.48 158.199 117.426 158.213 117.359L158.402 116.254C158.415 116.18 158.321 116.113 158.199 116.113H145.69C145.596 116.113 145.515 116.153 145.481 116.207V116.2Z" fill="#0E0E2F"/>
<path opacity="0.2" d="M145.481 116.2L145.09 117.305C145.043 117.393 145.137 117.48 145.279 117.48H157.991C158.105 117.48 158.199 117.426 158.213 117.359L158.402 116.254C158.415 116.18 158.321 116.113 158.199 116.113H145.69C145.596 116.113 145.515 116.153 145.481 116.207V116.2Z" fill="white"/>
<path d="M147.106 117.595H146.769C146.701 117.595 146.654 117.561 146.661 117.521L146.917 116.086C146.924 116.045 146.984 116.012 147.052 116.012H147.389C147.456 116.012 147.503 116.045 147.497 116.086L147.24 117.521C147.234 117.561 147.173 117.595 147.106 117.595Z" fill="#0E0E2F"/>
<path opacity="0.4" d="M147.106 117.595H146.769C146.701 117.595 146.654 117.561 146.661 117.521L146.917 116.086C146.924 116.045 146.984 116.012 147.052 116.012H147.389C147.456 116.012 147.503 116.045 147.497 116.086L147.24 117.521C147.234 117.561 147.173 117.595 147.106 117.595Z" fill="black"/>
<path d="M157.04 117.595H156.703C156.636 117.595 156.589 117.561 156.596 117.521L156.852 116.086C156.858 116.045 156.919 116.012 156.987 116.012H157.324C157.391 116.012 157.438 116.045 157.431 116.086L157.175 117.521C157.169 117.561 157.108 117.595 157.04 117.595Z" fill="#0E0E2F"/>
<path opacity="0.4" d="M157.04 117.595H156.703C156.636 117.595 156.589 117.561 156.596 117.521L156.852 116.086C156.858 116.045 156.919 116.012 156.987 116.012H157.324C157.391 116.012 157.438 116.045 157.431 116.086L157.175 117.521C157.169 117.561 157.108 117.595 157.04 117.595Z" fill="black"/>
<path d="M152.093 117.595H151.756C151.689 117.595 151.642 117.561 151.648 117.521L151.904 116.086C151.911 116.045 151.972 116.012 152.039 116.012H152.376C152.444 116.012 152.491 116.045 152.484 116.086L152.228 117.521C152.221 117.561 152.161 117.595 152.093 117.595Z" fill="#0E0E2F"/>
<path opacity="0.4" d="M152.093 117.595H151.756C151.689 117.595 151.642 117.561 151.648 117.521L151.904 116.086C151.911 116.045 151.972 116.012 152.039 116.012H152.376C152.444 116.012 152.491 116.045 152.484 116.086L152.228 117.521C152.221 117.561 152.161 117.595 152.093 117.595Z" fill="black"/>
<path d="M146.061 102.6C145.717 104.654 145.319 106.702 144.908 108.75C144.713 109.774 144.49 110.791 144.275 111.815L143.951 113.344L143.81 114.004C143.796 114.038 143.796 114.078 143.816 114.159C143.857 114.314 144.039 114.617 144.329 114.893C144.612 115.176 144.976 115.453 145.36 115.715C146.142 116.241 147.031 116.679 147.941 117.11C148.851 117.534 149.795 117.918 150.752 118.275C151.702 118.646 152.686 118.982 153.643 119.306L153.293 120.808C151.17 120.458 149.128 119.946 147.072 119.232C146.047 118.875 145.036 118.443 144.032 117.884C143.533 117.595 143.028 117.278 142.543 116.86C142.064 116.436 141.545 115.924 141.222 115.096C141.067 114.685 140.979 114.193 141.033 113.715C141.067 113.425 141.08 113.371 141.1 113.223L141.161 112.839L141.403 111.296C141.565 110.266 141.714 109.235 141.896 108.204C142.239 106.15 142.59 104.095 142.994 102.047L146.054 102.606L146.061 102.6Z" fill="#FF8B7B"/>
<path d="M144.686 98.4905C143.426 98.8678 141.646 103.125 141.646 103.125L145.67 107.585C145.67 107.585 148.204 103.004 147.793 101.407C147.368 99.7435 146.128 98.0662 144.686 98.4973V98.4905Z" fill="#0E0E2F"/>
</g>
<path opacity="0.3" d="M137.434 45.9207H185.733C186.649 45.9207 187.445 45.1797 187.505 44.2636C187.566 43.3474 186.878 42.6064 185.955 42.6064H137.656C136.74 42.6064 135.944 43.3474 135.884 44.2636C135.823 45.1797 136.51 45.9207 137.434 45.9207Z" fill="#0E0E2F"/>
<path opacity="0.3" d="M150.779 53.2229H185.227C186.144 53.2229 186.939 52.4819 187 51.5658C187.06 50.6497 186.373 49.9087 185.45 49.9087H151.001C150.085 49.9087 149.289 50.6497 149.229 51.5658C149.168 52.4819 149.856 53.2229 150.779 53.2229Z" fill="#0E0E2F"/>
<path d="M158.827 38.6184H186.225C187.141 38.6184 187.937 37.8775 187.997 36.9613C188.058 36.0452 187.371 35.3042 186.447 35.3042H159.049C158.132 35.3042 157.337 36.0452 157.276 36.9613C157.216 37.8775 157.903 38.6184 158.827 38.6184Z" fill="white"/>
<path opacity="0.3" d="M158.887 152.616H178.426C179.343 152.616 180.037 153.357 179.977 154.273C179.916 155.189 179.121 155.93 178.204 155.93H158.665C157.748 155.93 157.054 155.189 157.115 154.273C157.175 153.357 157.971 152.616 158.887 152.616Z" fill="#0E0E2F"/>
<path opacity="0.3" d="M132.419 152.616H151.958C152.875 152.616 153.569 153.357 153.509 154.273C153.448 155.189 152.653 155.93 151.736 155.93H132.197C131.28 155.93 130.586 155.189 130.647 154.273C130.707 153.357 131.502 152.616 132.419 152.616Z" fill="#0E0E2F"/>
<path opacity="0.3" d="M144.47 145.308H178.918C179.835 145.308 180.529 146.049 180.469 146.965C180.408 147.881 179.613 148.622 178.696 148.622H144.248C143.331 148.622 142.637 147.881 142.698 146.965C142.758 146.049 143.554 145.308 144.47 145.308Z" fill="#0E0E2F"/>
<path d="M139.927 138.005H179.417C180.334 138.005 181.028 138.746 180.967 139.662C180.907 140.579 180.111 141.32 179.195 141.32H139.705C138.788 141.32 138.094 140.579 138.155 139.662C138.215 138.746 139.011 138.005 139.927 138.005Z" fill="white"/>
<path opacity="0.3" d="M222.007 103.084H186.016C185.099 103.084 184.304 103.825 184.243 104.742C184.182 105.658 184.87 106.399 185.793 106.399H221.785C222.701 106.399 223.497 105.658 223.557 104.742C223.618 103.825 222.931 103.084 222.007 103.084Z" fill="#0E0E2F"/>
<path opacity="0.3" d="M203.499 95.7822H186.514C185.598 95.7822 184.802 96.5232 184.742 97.4393C184.681 98.3555 185.369 99.0965 186.292 99.0965H203.277C204.193 99.0965 204.989 98.3555 205.049 97.4393C205.11 96.5232 204.423 95.7822 203.499 95.7822Z" fill="#0E0E2F"/>
<path d="M213.441 88.48H187.013C186.097 88.48 185.301 89.221 185.241 90.1371C185.18 91.0532 185.867 91.7942 186.791 91.7942H213.218C214.135 91.7942 214.93 91.0532 214.991 90.1371C215.052 89.221 214.364 88.48 213.441 88.48Z" fill="white"/>
<path opacity="0.3" d="M234.813 95.7822H210.684C209.767 95.7822 208.972 96.5232 208.911 97.4393C208.851 98.3555 209.538 99.0965 210.462 99.0965H234.591C235.507 99.0965 236.303 98.3555 236.363 97.4393C236.424 96.5232 235.737 95.7822 234.813 95.7822Z" fill="#0E0E2F"/>
<path opacity="0.3" d="M126.306 26.8973H144.356L143.399 10.9121L126.306 26.8973Z" fill="#0E0E2F"/>
<path d="M126.306 26.8973L145.63 24.58L143.399 10.9121L126.306 26.8973Z" fill="#0E0E2F"/>
<path d="M53.4937 74.2534C52.9208 75.6074 52.2872 77.0962 51.721 78.5377C51.1549 79.9927 50.5887 81.4478 50.0765 82.9163C49.0251 85.8398 48.1084 88.7903 47.4816 91.6936C47.3872 92.0574 47.3401 92.4144 47.2727 92.7714L47.1716 93.3103L47.0974 93.7347C47.03 94.2063 47.0233 94.8597 47.057 95.5401C47.1446 96.9143 47.3805 98.4164 47.6568 99.9254C48.2365 102.95 49.0048 106.082 49.7665 109.154L46.3425 110.602C44.6441 107.679 43.2219 104.695 42.0559 101.475C41.4763 99.858 40.9707 98.2009 40.6337 96.3551C40.4652 95.4255 40.3372 94.4555 40.3709 93.3103L40.3911 92.8725C40.3978 92.731 40.4113 92.6435 40.4248 92.5222L40.4922 91.8553C40.5394 91.4107 40.5731 90.9594 40.6405 90.535C41.1258 87.0456 41.975 83.7381 42.9927 80.5249C43.5117 78.9217 44.0577 77.3252 44.6845 75.7691C45.3113 74.1928 45.9179 72.6839 46.693 71.0874L53.5004 74.2534H53.4937Z" fill="#7F3E3B"/>
<path d="M49.6587 108.292L52.2873 110.858L46.5515 113.526C46.5515 113.526 45.1563 111.094 46.1202 108.898L49.6587 108.292Z" fill="#7F3E3B"/>
<path d="M54.4036 114.678L49.5643 116.658L46.5515 113.526L52.2873 110.858L54.4036 114.678Z" fill="#7F3E3B"/>
<path d="M179.538 99.9326C187.111 81.6607 178.429 60.713 160.147 53.1445C141.866 45.5761 120.906 54.2529 113.334 72.5248C105.761 90.7966 114.443 111.744 132.725 119.313C151.007 126.881 171.966 118.204 179.538 99.9326Z" fill="#0E0E2F"/>
<path d="M146.438 120.154C165.184 120.154 180.381 104.966 180.381 86.2305C180.381 67.4949 165.184 52.3066 146.438 52.3066C127.692 52.3066 112.496 67.4949 112.496 86.2305C112.496 104.966 127.692 120.154 146.438 120.154Z" fill="white"/>
<mask id="mask3_1398_10288" style="mask-type:luminance" maskUnits="userSpaceOnUse" x="112" y="52" width="69" height="69">
<path d="M146.438 120.154C165.184 120.154 180.381 104.966 180.381 86.2305C180.381 67.4949 165.184 52.3066 146.438 52.3066C127.692 52.3066 112.496 67.4949 112.496 86.2305C112.496 104.966 127.692 120.154 146.438 120.154Z" fill="white"/>
</mask>
<g mask="url(#mask3_1398_10288)">
<path d="M161.172 94.0444C161.543 96.8198 161.873 99.6086 162.169 102.391L163.086 110.71L163.207 111.707L163.349 112.603L163.544 113.532L163.78 114.482C164.131 115.755 164.528 117.049 164.966 118.342C165.829 120.936 166.847 123.543 167.831 126.123L165.499 127.362C163.881 124.964 162.493 122.485 161.199 119.898C160.572 118.591 159.972 117.264 159.46 115.863L159.082 114.799L158.745 113.694C158.644 113.31 158.557 112.913 158.462 112.522L158.253 111.444C157.741 108.628 157.317 105.853 156.926 103.064C156.521 100.275 156.164 97.4867 155.867 94.6844L161.165 94.0512L161.172 94.0444Z" fill="#FF8B7B"/>
<path d="M159.493 88.1772C161.644 88.7228 163.147 97.5676 163.147 97.5676L154.924 103.152C154.924 103.152 151.54 92.6703 153.198 90.3126C154.917 87.8539 156.359 87.3823 159.493 88.1772Z" fill="#0E0E2F"/>
<path opacity="0.2" d="M159.305 90.1509L160.956 99.063L157.627 101.32L159.305 90.1509Z" fill="black"/>
<path d="M134.461 65.3953C130.889 65.914 124.493 83.1925 137.4 91.2558C150.307 99.3191 158.779 90.1645 158.779 90.1645C158.779 90.1645 150.651 81.239 151.345 75.4188C152.039 69.5987 156.225 62.2629 146.438 59.8109C139.537 58.0864 130.545 59.7503 134.461 65.3953Z" fill="#263238"/>
<path d="M159.494 88.1774C159.494 88.1774 161.981 89.0532 157 119.636H135.816C136.173 111.02 136.18 105.705 132.062 88.0225C132.062 88.0225 136.497 87.0592 141.06 86.8369C144.625 86.6685 147.544 86.554 150.678 86.8369C154.809 87.2142 159.494 88.1707 159.494 88.1707V88.1774Z" fill="#0E0E2F"/>
<path opacity="0.2" d="M133.814 95.0283C135.735 95.5066 137.508 97.6016 137.292 101.448C137.164 103.759 136.106 105.503 135.526 106.298C135.189 103.334 134.616 99.8919 133.72 95.4931L133.814 95.0283Z" fill="black"/>
<path d="M149.566 93.62C149.566 93.62 146.094 96.4762 146.094 99.5143C143.21 97.3991 139.321 91.6463 138.916 87.9751C138.849 87.3553 139.341 86.8097 139.968 86.776C140.291 86.7558 140.554 86.7154 140.736 86.6749C140.959 86.6278 141.181 86.6884 141.356 86.8299L149.566 93.62Z" fill="#FAFAFA"/>
<path d="M149.566 93.6203C149.566 93.6203 152.74 95.2572 153.32 99.2855C156.238 97.1434 154.749 90.7574 153.124 87.6385C152.868 87.1467 152.376 86.8099 151.824 86.7493C151.399 86.7021 151.069 86.6415 150.853 86.6011C150.685 86.5674 150.529 86.6819 150.509 86.8503L149.566 93.627V93.6203Z" fill="#FAFAFA"/>
<path d="M142.017 76.0186C142.623 79.1105 143.23 84.7757 141.066 86.8437C141.066 86.8437 143.924 90.6497 149.572 93.6272C153.866 90.1984 150.684 86.8505 150.684 86.8505C147.234 86.0286 147.321 83.4689 147.921 81.064L142.017 76.0253V76.0186Z" fill="#FF8B7B"/>
<path opacity="0.2" d="M144.423 78.0731L147.914 81.0506C147.773 81.6164 147.658 82.1957 147.618 82.7549C146.297 82.5662 144.227 81.4413 143.944 80.0065C143.81 79.3261 144.308 78.3897 144.423 78.0664V78.0731Z" fill="black"/>
<path d="M136.827 71.047C138.256 76.0183 138.755 78.1537 141.882 80.1746C146.58 83.2127 152.376 80.37 152.457 75.0753C152.531 70.306 150.179 62.9769 144.8 62.0675C139.496 61.1716 135.398 66.0756 136.827 71.047Z" fill="#FF8B7B"/>
<path d="M138.552 75.5265C141.552 72.475 141.403 68.7027 140.514 67.5238C143.25 67.2948 150.253 65.5636 148.925 62.9162C147.598 60.2688 136.423 58.8273 135.358 65.6242C131.9 68.6757 134.663 74.8394 138.559 75.5332L138.552 75.5265Z" fill="#263238"/>
<path d="M145.164 70.6025C145.259 71.0135 145.548 71.2964 145.818 71.2358C146.088 71.1751 146.229 70.7979 146.142 70.387C146.047 69.9761 145.757 69.6932 145.488 69.7538C145.218 69.8144 145.077 70.1916 145.164 70.6025Z" fill="#263238"/>
<path d="M149.808 69.5718C149.902 69.9827 150.192 70.2656 150.462 70.205C150.731 70.1444 150.873 69.7671 150.785 69.3562C150.691 68.9453 150.401 68.6624 150.132 68.723C149.862 68.7836 149.72 69.1609 149.808 69.5718Z" fill="#263238"/>
<path d="M150.017 68.7704L150.94 68.2651C150.94 68.2651 150.603 69.1476 150.017 68.7704Z" fill="#263238"/>
<path d="M148.541 70.6294C148.541 70.6294 149.633 72.2394 150.59 72.9265C150.159 73.5529 149.188 73.526 149.188 73.526L148.548 70.6294H148.541Z" fill="#FF5652"/>
<path d="M147.301 75.6278C147.496 75.6144 147.699 75.5874 147.914 75.5403C147.982 75.5268 148.022 75.4594 148.009 75.3921C147.995 75.3247 147.928 75.2775 147.86 75.2978C146.054 75.6952 144.935 74.6241 144.928 74.6174C144.881 74.5702 144.8 74.5702 144.753 74.6174C144.706 74.6646 144.706 74.7454 144.753 74.7925C144.8 74.833 145.737 75.7289 147.301 75.6278Z" fill="#263238"/>
<path d="M136.497 76.0117C137.09 76.9076 138.04 77.4398 138.91 77.6014C140.217 77.844 140.75 76.6449 140.285 75.4795C139.867 74.4287 138.687 73.0343 137.427 73.3239C136.187 73.6068 135.816 74.9945 136.497 76.0117Z" fill="#FF8B7B"/>
<path d="M142.893 69.6996C142.994 69.6861 143.082 69.6053 143.102 69.4975C143.304 68.3725 144.632 67.746 144.645 67.7393C144.767 67.6787 144.821 67.5372 144.767 67.4092C144.713 67.288 144.564 67.2341 144.436 67.288C144.369 67.3149 142.859 68.0357 142.61 69.4099C142.583 69.5446 142.677 69.6726 142.812 69.6996C142.839 69.6996 142.866 69.6996 142.886 69.6996H142.893Z" fill="#263238"/>
<path d="M150.725 66.2844C150.806 66.2844 150.893 66.2507 150.94 66.1766C151.015 66.0621 150.981 65.9072 150.873 65.8331C149.734 65.0786 148.683 65.5232 148.635 65.5434C148.507 65.5973 148.453 65.7455 148.507 65.8668C148.561 65.9948 148.71 66.0486 148.831 65.9948C148.871 65.9745 149.694 65.6445 150.597 66.244C150.637 66.2709 150.678 66.2844 150.718 66.2844H150.725Z" fill="#263238"/>
<path d="M145.373 69.8006L146.297 69.2954C146.297 69.2954 145.96 70.1779 145.373 69.8006Z" fill="#263238"/>
<path d="M135.506 118.396L134.967 120.289C134.893 120.437 135.068 120.585 135.31 120.585H157.108C157.296 120.585 157.458 120.491 157.471 120.37L157.66 118.477C157.674 118.349 157.505 118.234 157.296 118.234H135.85C135.695 118.234 135.553 118.302 135.506 118.396Z" fill="#0E0E2F"/>
<path opacity="0.2" d="M135.506 118.396L134.967 120.289C134.893 120.437 135.068 120.585 135.31 120.585H157.108C157.296 120.585 157.458 120.491 157.471 120.37L157.66 118.477C157.674 118.349 157.505 118.234 157.296 118.234H135.85C135.695 118.234 135.553 118.302 135.506 118.396Z" fill="white"/>
<path d="M138.458 120.787H137.885C137.77 120.787 137.683 120.727 137.69 120.659L137.959 118.201C137.966 118.127 138.067 118.073 138.182 118.073H138.754C138.869 118.073 138.957 118.133 138.95 118.201L138.68 120.659C138.674 120.734 138.573 120.787 138.458 120.787Z" fill="#0E0E2F"/>
<path opacity="0.4" d="M138.458 120.787H137.885C137.77 120.787 137.683 120.727 137.69 120.659L137.959 118.201C137.966 118.127 138.067 118.073 138.182 118.073H138.754C138.869 118.073 138.957 118.133 138.95 118.201L138.68 120.659C138.674 120.734 138.573 120.787 138.458 120.787Z" fill="black"/>
<path d="M155.497 120.787H154.924C154.809 120.787 154.722 120.727 154.728 120.659L154.998 118.201C155.005 118.127 155.106 118.073 155.22 118.073H155.793C155.908 118.073 155.996 118.133 155.989 118.201L155.719 120.659C155.712 120.734 155.611 120.787 155.497 120.787Z" fill="#0E0E2F"/>
<path opacity="0.4" d="M155.497 120.787H154.924C154.809 120.787 154.722 120.727 154.728 120.659L154.998 118.201C155.005 118.127 155.106 118.073 155.22 118.073H155.793C155.908 118.073 155.996 118.133 155.989 118.201L155.719 120.659C155.712 120.734 155.611 120.787 155.497 120.787Z" fill="black"/>
<path d="M147.011 120.787H146.438C146.323 120.787 146.236 120.727 146.243 120.659L146.512 118.201C146.519 118.127 146.62 118.073 146.735 118.073H147.307C147.422 118.073 147.51 118.133 147.503 118.201L147.233 120.659C147.227 120.734 147.125 120.787 147.011 120.787Z" fill="#0E0E2F"/>
<path opacity="0.4" d="M147.011 120.787H146.438C146.323 120.787 146.236 120.727 146.243 120.659L146.512 118.201C146.519 118.127 146.62 118.073 146.735 118.073H147.307C147.422 118.073 147.51 118.133 147.503 118.201L147.233 120.659C147.227 120.734 147.125 120.787 147.011 120.787Z" fill="black"/>
<path d="M134.899 94.9068C134.731 96.6986 134.502 98.4905 134.306 100.282L133.626 105.651C133.41 107.443 133.134 109.221 132.884 111.013L132.507 113.694L132.385 114.55C132.385 114.617 132.406 114.738 132.486 114.92C132.655 115.291 133.086 115.816 133.632 116.288C134.178 116.766 134.832 117.231 135.526 117.662C136.915 118.544 138.472 119.292 140.049 120.02C141.633 120.74 143.277 121.387 144.942 121.993C146.593 122.626 148.299 123.192 149.963 123.738L149.377 126.311C145.717 125.718 142.172 124.849 138.627 123.657C136.854 123.064 135.102 122.35 133.356 121.448C132.486 120.983 131.624 120.464 130.768 119.811C129.925 119.144 129.049 118.376 128.341 117.157C127.998 116.55 127.715 115.803 127.627 114.974C127.613 114.765 127.593 114.556 127.6 114.348C127.6 114.159 127.627 113.876 127.634 113.809L127.694 113.135L127.93 110.441C128.092 108.649 128.227 106.85 128.422 105.058L128.968 99.6828C129.184 97.8909 129.366 96.0991 129.602 94.314L134.899 94.9135V94.9068Z" fill="#FF8B7B"/>
<path d="M132.069 88.0226C129.945 88.6693 127.398 95.9714 127.398 95.9714L134.825 103.61C134.825 103.61 138.633 95.7558 137.744 93.0142C136.813 90.158 134.495 87.2883 132.069 88.0226Z" fill="#0E0E2F"/>
</g>
<path opacity="0.2" d="M113.978 94.9741C109.146 77.0624 119.761 58.6252 137.683 53.7953C155.611 48.9654 174.052 59.5751 178.885 77.4868C183.717 95.4053 173.102 113.842 155.18 118.672C137.252 123.502 118.811 112.893 113.978 94.9741Z" fill="#0E0E2F"/>
<path opacity="0.2" d="M170.797 63.0845L143.115 119.669C145.454 119.905 147.847 119.898 150.253 119.609L175.144 68.7497C173.89 66.6952 172.434 64.7955 170.797 63.0845ZM178.885 77.4867C178.824 77.2711 178.763 77.0488 178.703 76.8333L158.826 117.466C174.517 111.269 183.38 94.1522 178.885 77.4867ZM137.683 53.7952C119.761 58.6251 109.146 77.0623 113.978 94.974C115.764 101.603 119.418 107.227 124.216 111.444L152.706 53.2226C147.867 52.2998 142.758 52.4278 137.683 53.7952Z" fill="white"/>
<path d="M108.613 82.5863L107.939 82.519C108.054 81.3671 108.216 80.2084 108.431 79.0768L109.092 79.2047C108.883 80.3162 108.721 81.4547 108.613 82.5863ZM109.921 75.749L109.274 75.5604C110.137 72.583 111.37 69.6931 112.934 66.9717L113.52 67.3085C111.977 69.9828 110.77 72.8255 109.921 75.749Z" fill="#0E0E2F"/>
<path d="M181.473 76.7929C176.256 57.4531 156.339 46.0014 136.989 51.2153C117.638 56.4292 106.18 76.3348 111.397 95.6747C116.614 115.014 136.53 126.473 155.881 121.259C175.231 116.045 186.689 96.1395 181.473 76.7996V76.7929ZM113.978 94.9741C109.146 77.0624 119.761 58.6252 137.683 53.7953C155.611 48.9654 174.052 59.575 178.885 77.4867C183.717 95.4052 173.102 113.842 155.18 118.672C137.252 123.502 118.811 112.893 113.978 94.9741Z" fill="#0E0E2F"/>
<path d="M114.518 100.525C114.497 102.074 114.113 102.27 113.695 102.324L112.475 102.647L110.029 103.294L105.136 104.587L95.3356 107.1C88.7911 108.743 82.233 110.34 75.6683 111.903L55.974 116.598L46.1403 118.989C42.8647 119.804 39.5756 120.552 36.3336 121.502C34.9519 121.906 33.5028 121.111 33.0917 119.73C32.6806 118.349 33.4826 116.901 34.8643 116.49C34.898 116.483 34.9385 116.47 34.9722 116.463C38.2478 115.655 41.4695 114.651 44.7115 113.708L54.417 110.831L73.808 104.998C80.2717 103.051 86.7421 101.138 93.226 99.272L102.965 96.5236L107.845 95.1831L110.285 94.5095L111.505 94.1727C111.896 94.0043 112.327 93.9841 113.122 95.3111C114.093 96.9346 114.545 98.7668 114.531 100.532L114.518 100.525Z" fill="#0E0E2F"/>
<path d="M72.1096 50.2652C72.1096 50.6627 72.3186 50.986 72.5814 50.986C72.8443 50.986 73.0532 50.6627 73.0532 50.2652C73.0532 49.8678 72.8443 49.5444 72.5814 49.5444C72.3186 49.5444 72.1096 49.8678 72.1096 50.2652Z" fill="#263238"/>
<path d="M72.2847 50.9932C72.2847 50.9932 73.1878 53.297 74.1921 54.4085C73.4844 55.0686 72.2847 54.7655 72.2847 54.7655V50.9932Z" fill="#630F0F"/>
<path d="M70.6943 48.0559C70.6201 48.0559 70.5527 48.0222 70.5055 47.9616C70.4314 47.8538 70.4516 47.7123 70.5595 47.6315C71.6109 46.877 72.6286 47.2543 72.6691 47.2677C72.7904 47.3149 72.851 47.4496 72.8039 47.5709C72.7567 47.6921 72.6219 47.7528 72.5006 47.7056C72.5006 47.7056 71.6715 47.4025 70.8358 48.0087C70.7953 48.0357 70.7482 48.0559 70.701 48.0559H70.6943Z" fill="#263238"/>
<path d="M59.2496 52.8521C59.6001 56.7523 59.654 63.8456 56.8906 66.1696C56.8906 66.1696 57.5174 70.1508 64.217 70.7705C71.5838 71.4509 68.0992 67.207 68.0992 67.207C64.1698 65.8126 64.5675 62.6533 65.5448 59.7365L59.2429 52.8521H59.2496Z" fill="#7F3E3B"/>
<path d="M48.4723 212.623C47.8927 212.866 46.5649 212.28 46.1403 212.03C46.0998 212.01 46.0796 211.963 46.0796 211.916C46.0796 211.869 46.12 211.828 46.1605 211.815C46.2279 211.795 47.805 211.289 48.4521 211.66C48.6004 211.747 48.6947 211.869 48.7284 212.03C48.7958 212.333 48.6812 212.488 48.5734 212.562C48.5464 212.583 48.5127 212.603 48.4723 212.616V212.623ZM46.5109 211.963C47.1849 212.293 48.1488 212.583 48.4386 212.381C48.4655 212.36 48.5464 212.3 48.506 212.084C48.4858 211.99 48.4319 211.923 48.3442 211.869C47.9601 211.646 47.0569 211.821 46.5177 211.963H46.5109Z" fill="#0E0E2F"/>
<path d="M46.5716 211.929C46.4436 211.983 46.3222 212.023 46.2211 212.044C46.1807 212.05 46.1335 212.044 46.1065 212.003C46.0796 211.97 46.0729 211.922 46.0863 211.882C46.1066 211.828 46.6323 210.494 47.3198 210.211C47.495 210.137 47.677 210.137 47.8387 210.211C48.0948 210.326 48.1151 210.514 48.1083 210.616C48.0612 211.08 47.1849 211.673 46.5649 211.929H46.5716ZM46.4098 211.747C47.0164 211.518 47.8522 210.919 47.8859 210.589C47.8859 210.562 47.8994 210.488 47.7578 210.427C47.65 210.38 47.5422 210.38 47.4208 210.427C46.9827 210.609 46.5918 211.363 46.4166 211.74L46.4098 211.747Z" fill="#0E0E2F"/>
<path d="M79.0921 220.572C78.499 220.572 77.8924 220.498 77.5756 220.43C77.5284 220.424 77.488 220.383 77.4813 220.336C77.4745 220.289 77.4947 220.242 77.5352 220.215C77.6093 220.174 79.3348 219.184 80.1638 219.413C80.3323 219.46 80.4603 219.555 80.5345 219.689C80.676 219.932 80.6154 220.1 80.5412 220.201C80.3323 220.484 79.7189 220.572 79.0854 220.572H79.0921ZM77.9531 220.262C78.8764 220.39 80.1301 220.383 80.3592 220.067C80.3862 220.026 80.4199 219.952 80.339 219.811C80.2918 219.73 80.2177 219.676 80.1099 219.649C79.6044 219.514 78.5597 219.959 77.9598 220.269L77.9531 220.262Z" fill="#0E0E2F"/>
<path d="M77.5959 220.437C77.5959 220.437 77.5487 220.43 77.5285 220.417C77.4948 220.39 77.4745 220.35 77.4813 220.309C77.4813 220.255 77.6228 218.922 78.2496 218.403C78.4451 218.248 78.6608 218.174 78.9034 218.201C79.2269 218.234 79.3213 218.396 79.3415 218.531C79.4291 219.09 78.2496 220.161 77.6498 220.43C77.6363 220.437 77.6161 220.444 77.6026 220.444L77.5959 220.437ZM78.8023 218.43C78.654 218.43 78.5192 218.477 78.3979 218.585C77.9868 218.922 77.8048 219.723 77.7441 220.114C78.3507 219.75 79.1595 218.908 79.1056 218.571C79.1056 218.544 79.0854 218.463 78.8765 218.437C78.8495 218.437 78.8293 218.437 78.8091 218.437L78.8023 218.43Z" fill="#0E0E2F"/>
<path d="M72.1567 220.316H77.1039L77.5959 208.857H72.6488L72.1567 220.316Z" fill="#7F3E3B"/>
<path d="M40.6135 210.858L45.4798 211.774L50.9594 201.144L46.0931 200.228L40.6135 210.858Z" fill="#7F3E3B"/>
<path d="M46.0123 211.276L40.6877 209.672C40.4922 209.612 40.2833 209.699 40.1889 209.875L37.9849 213.802C37.7558 214.213 37.9782 214.725 38.423 214.853C40.29 215.378 41.2269 215.546 43.5724 216.247C45.0148 216.678 48.8026 218.254 50.7909 218.854C52.7388 219.44 53.6352 217.567 52.8736 217.143C49.4632 215.243 47.549 213.202 46.6998 211.794C46.5447 211.538 46.3021 211.357 46.019 211.269L46.0123 211.276Z" fill="#263238"/>
<path d="M77.0702 219.743H71.6648C71.4626 219.743 71.2873 219.885 71.2401 220.08L70.2628 224.479C70.1617 224.937 70.5055 225.368 70.9773 225.361C72.9251 225.328 75.7492 225.213 78.1958 225.213C81.0603 225.213 83.5406 225.368 86.8972 225.368C88.9326 225.368 89.4921 223.313 88.6428 223.125C84.7673 222.276 81.6063 222.188 78.2565 220.127C77.8925 219.905 77.4881 219.743 77.0635 219.743H77.0702Z" fill="#263238"/>
<path d="M47.603 67.4227C43.3096 69.4772 41.51 83.3001 41.51 83.3001L51.3841 87.1734C51.3841 87.1734 53.7431 81.5823 55.0979 75.6207C56.5133 69.3695 51.9974 65.3277 47.603 67.4294V67.4227Z" fill="#0E0E2F"/>
<path opacity="0.3" d="M47.603 67.4227C43.3096 69.4772 41.51 83.3001 41.51 83.3001L51.3841 87.1734C51.3841 87.1734 53.7431 81.5823 55.0979 75.6207C56.5133 69.3695 51.9974 65.3277 47.603 67.4294V67.4227Z" fill="black"/>
<path opacity="0.2" d="M53.9992 71.4914C54.3497 71.323 54.7002 71.195 55.0506 71.1074C55.4213 72.4008 55.4753 73.9299 55.0911 75.6207C53.7431 81.5823 51.3841 87.1734 51.3841 87.1734L48.1287 85.9003C48.7285 82.2829 50.5685 73.135 53.9992 71.4914Z" fill="black"/>
<path d="M76.2345 67.3215C76.2345 67.3215 81.5052 73.2696 76.5243 110.097H50.0429C49.8609 106.035 52.4154 86.21 48.4927 67.0655C48.4927 67.0655 53.0354 66.1562 57.3558 65.9473C60.7393 65.7857 65.6392 65.6779 68.6116 65.9473C72.5343 66.3043 76.2278 67.3215 76.2278 67.3215H76.2345Z" fill="#0E0E2F"/>
<path opacity="0.3" d="M76.2345 67.3215C76.2345 67.3215 81.5052 73.2696 76.5243 110.097H50.0429C49.8609 106.035 52.4154 86.21 48.4927 67.0655C48.4927 67.0655 53.0354 66.1562 57.3558 65.9473C60.7393 65.7857 65.6392 65.6779 68.6116 65.9473C72.5343 66.3043 76.2278 67.3215 76.2278 67.3215H76.2345Z" fill="black"/>
<path opacity="0.2" d="M70.9031 75.2166C72.1028 71.6194 74.9875 70.4675 77.9262 72.6029C78.5193 76.0923 78.9372 81.7171 78.4587 90.6359L73.2891 90.5887C73.2891 90.5887 69.117 80.5719 70.9031 75.2166Z" fill="black"/>
<path d="M79.2944 72.7578C79.5438 74.2937 79.8269 75.9777 80.1504 77.581C80.4807 79.1977 80.8109 80.8144 81.1951 82.4109C81.95 85.5971 82.8464 88.743 84.0394 91.5789C84.336 92.2795 84.6527 92.9666 84.9897 93.6066L85.4346 94.4014C85.4952 94.5294 85.6503 94.7113 85.8188 94.8999C86.5534 95.7083 87.861 96.5368 89.2022 97.2846C91.9454 98.7598 95.0997 100.053 98.1799 101.232L97.4385 104.876C93.8259 104.587 90.3615 103.96 86.8095 102.707C85.9199 102.384 85.0302 102.027 84.1338 101.569C83.2373 101.111 82.3274 100.579 81.404 99.8309C80.9457 99.4402 80.4874 99.009 80.0426 98.4499L79.719 98.0256L79.5101 97.7089C79.3753 97.5001 79.227 97.2913 79.099 97.0825C78.5733 96.2404 78.1082 95.3984 77.6768 94.5496C76.0053 91.1478 74.873 87.7191 73.9429 84.2634C73.4913 82.5321 73.0734 80.8077 72.7431 79.063C72.3994 77.3048 72.0894 75.614 71.8669 73.7548L79.3079 72.7713L79.2944 72.7578Z" fill="#7F3E3B"/>
<path d="M69.6157 70.9324C68.2205 75.4524 73.8754 88.9317 73.8754 88.9317L85.8052 85.9341C85.8052 85.9341 84.7133 79.0967 82.1453 73.5393C78.2766 65.1527 71.294 65.503 69.6157 70.9324Z" fill="#0E0E2F"/>
<path opacity="0.3" d="M69.6157 70.9324C68.2205 75.4524 73.8754 88.9317 73.8754 88.9317L85.8052 85.9341C85.8052 85.9341 84.7133 79.0967 82.1453 73.5393C78.2766 65.1527 71.294 65.503 69.6157 70.9324Z" fill="black"/>
<path d="M98.2473 101.232L103.363 103.529L98.409 107.618C98.409 107.618 96.2185 106.904 95.8681 103.32L95.1064 100.343L97.3509 100.915C97.6609 100.996 97.9642 101.097 98.254 101.232H98.2473Z" fill="#7F3E3B"/>
<path d="M106.079 106.042L101.098 109.012L98.4023 107.625L103.363 103.536L106.079 106.042Z" fill="#7F3E3B"/>
<path d="M70.8694 65.5095C68.7328 63.7041 63.543 62.404 57.7331 62.0807C54.417 61.8988 50.9998 62.4377 49.571 63.0777C48.1421 63.7109 49.8271 68.2915 51.6941 68.3859C50.71 69.9352 52.1389 72.9261 54.2755 73.5122C53.9385 76.0989 60.4628 76.3414 64.4124 74.2531C67.56 72.5893 73.4306 67.6718 70.8694 65.5095Z" fill="#263238"/>
<path opacity="0.2" d="M77.5961 208.864L77.3467 214.771H72.3928L72.6422 208.864H77.5961Z" fill="black"/>
<path opacity="0.2" d="M46.0865 200.235L50.9595 201.151L48.1287 206.628L43.2625 205.711L46.0865 200.235Z" fill="black"/>
<path d="M58.7913 49.4098C59.0878 54.3138 59.0137 57.1969 61.4873 59.7163C65.2077 63.5021 71.267 61.2656 72.4398 56.3751C73.4979 51.9696 72.8307 44.6944 68.0318 42.7409C63.3003 40.8143 58.488 44.5125 58.7845 49.4165L58.7913 49.4098Z" fill="#7F3E3B"/>
<path d="M67.9711 52.1248C69.8179 50.2521 72.8711 46.1766 71.7994 43.1049C70.229 38.5781 65.5447 40.114 66.2928 41.0099C63.5699 39.2315 58.1509 39.1507 59.29 41.5353C54.3833 42.209 53.9923 44.1894 55.3471 44.9439C51.8558 48.2716 52.0243 51.7206 54.6731 51.4579C52.6646 53.4787 56.3716 57.4801 60.5234 59.3932C61.9455 55.6882 69.5213 55.0146 67.9644 52.1315L67.9711 52.1248Z" fill="#263238"/>
<path d="M65.8212 53.903C65.8212 53.903 65.7538 53.8963 65.7268 53.8761C65.6527 53.8222 65.6325 53.7212 65.6797 53.6403C66.7446 52.0708 67.7825 50.8178 68.7059 49.7131C70.4583 47.5979 71.7254 46.0755 71.8333 43.994C71.9209 42.3167 70.9301 40.8414 69.1912 40.06C67.9376 39.4942 66.5895 39.4605 66.0571 39.9792C65.774 40.2554 65.7471 40.6663 65.9762 41.2052C66.0099 41.2927 65.9762 41.3871 65.8886 41.4275C65.801 41.4612 65.7066 41.4275 65.6662 41.3399C65.3022 40.4979 65.5516 40.0061 65.8212 39.7434C66.4548 39.1237 67.9308 39.1237 69.3327 39.7569C71.2064 40.5989 72.2646 42.1954 72.1703 44.0209C72.0557 46.2102 70.7616 47.773 68.9688 49.9354C68.0589 51.0334 67.0209 52.2796 65.9627 53.8357C65.929 53.8828 65.8751 53.9098 65.8212 53.9098V53.903Z" fill="#263238"/>
<path d="M66.0639 51.5722C66.138 52.8588 66.7379 54.0646 67.4523 54.8527C68.5307 56.0383 69.6563 55.3041 69.8517 53.8558C70.027 52.5557 69.6698 50.3664 68.3487 49.7062C67.0479 49.0595 65.9762 50.1037 66.0639 51.5722Z" fill="#7F3E3B"/>
<path d="M67.1355 110.097C67.1355 110.097 68.807 143.455 65.5516 157.588C60.3955 179.972 50.5349 205.921 50.5349 205.921L41.355 204.196C41.355 204.196 49.0858 178.208 50.764 159.575C52.267 142.842 50.0428 123.617 50.0428 110.097H67.1287H67.1355Z" fill="#263238"/>
<path opacity="0.2" d="M64.6484 119.979C65.3359 118.679 66.6367 122.553 67.5533 127.524C67.5803 134.382 67.432 142.182 66.8321 148.79C62.2489 140.336 63.2262 122.674 64.6484 119.979Z" fill="black"/>
<path d="M52.7725 203.105C52.8129 203.112 51.3368 206.291 51.3368 206.291L40.7146 204.216L41.8671 201.017L52.7657 203.105H52.7725Z" fill="#2C6BDB"/>
<path d="M76.5242 110.097C76.5242 110.097 83.9853 141.69 84.5043 156.779C85.0907 173.701 79.1865 213.627 79.1865 213.627H70.8019C70.8019 213.627 69.7707 173.398 69.3932 157.979C68.9888 141.172 59.1147 110.097 59.1147 110.097H76.5242Z" fill="#263238"/>
<path d="M80.8041 210.286C80.8445 210.286 80.3323 213.768 80.3323 213.768H70.1279L69.8516 210.663L80.8041 210.286Z" fill="#2C6BDB"/>
</g>
<defs>
<clipPath id="clip0_1398_10288">
<rect width="267" height="233" fill="white"/>
</clipPath>
</defs>
</svg>
