<svg width="32" height="33" viewBox="0 0 32 33" fill="none" xmlns="http://www.w3.org/2000/svg">
<path d="M11.9993 3.12695C8.50602 3.12695 5.66602 5.96695 5.66602 9.46029C5.66602 12.887 8.34602 15.6603 11.8393 15.7803C11.946 15.767 12.0527 15.767 12.1327 15.7803C12.1594 15.7803 12.1727 15.7803 12.1993 15.7803C12.2127 15.7803 12.2127 15.7803 12.226 15.7803C15.6393 15.6603 18.3194 12.887 18.3327 9.46029C18.3327 5.96695 15.4927 3.12695 11.9993 3.12695Z" fill="#FF6200"/>
<path d="M18.7733 19.3268C15.0533 16.8468 8.98661 16.8468 5.23995 19.3268C3.54661 20.4601 2.61328 21.9935 2.61328 23.6335C2.61328 25.2735 3.54661 26.7935 5.22661 27.9135C7.09328 29.1668 9.54661 29.7935 11.9999 29.7935C14.4533 29.7935 16.9066 29.1668 18.7733 27.9135C20.4533 26.7801 21.3866 25.2601 21.3866 23.6068C21.3733 21.9668 20.4533 20.4468 18.7733 19.3268Z" fill="#FF6200"/>
<path d="M26.6525 10.2471C26.8658 12.8338 25.0258 15.1004 22.4792 15.4071C22.4658 15.4071 22.4658 15.4071 22.4525 15.4071H22.4125C22.3325 15.4071 22.2525 15.4071 22.1858 15.4338C20.8925 15.5004 19.7058 15.0871 18.8125 14.3271C20.1858 13.1004 20.9725 11.2604 20.8125 9.26042C20.7192 8.18042 20.3458 7.19375 19.7858 6.35375C20.2925 6.10042 20.8792 5.94042 21.4792 5.88709C24.0925 5.66042 26.4258 7.60709 26.6525 10.2471Z" fill="#FF6200"/>
<path d="M29.321 22.5798C29.2143 23.8732 28.3876 24.9932 27.001 25.7532C25.6676 26.4865 23.9876 26.8332 22.321 26.7932C23.281 25.9265 23.841 24.8465 23.9476 23.6998C24.081 22.0465 23.2943 20.4598 21.721 19.1932C20.8276 18.4865 19.7876 17.9265 18.6543 17.5132C21.601 16.6598 25.3076 17.2332 27.5876 19.0732C28.8143 20.0598 29.441 21.2998 29.321 22.5798Z" fill="#FF6200"/>
</svg>
