<svg width="80" height="64" viewBox="0 0 80 64" fill="none" xmlns="http://www.w3.org/2000/svg">
<path opacity="0.2" d="M64.7114 32.8557C73.5265 32.8557 79.4669 39.0985 79.4669 48.3483C79.4669 56.6721 72.6394 63.6066 63.3919 63.6066C53.2629 63.6066 45.7784 55.2829 45.7784 42.5686C45.7784 13.67 66.4744 2.11051 79.4669 0.721313V13.4356C70.6574 15.0534 60.753 24.0689 60.3094 34.0162C60.753 33.7875 62.5104 32.8557 64.7114 32.8557ZM19.7989 32.8557C28.6029 32.8557 34.5489 39.0985 34.5489 48.3483C34.5489 56.6721 27.7213 63.6066 18.4738 63.6066C8.34482 63.6066 0.860352 55.2829 0.860352 42.5686C0.860352 13.67 21.5563 2.11051 34.5489 0.721313V13.4356C25.7393 15.0534 15.8349 24.0689 15.3913 34.0162C15.8349 33.7875 17.5923 32.8557 19.7989 32.8557Z" fill="#FF6200"/>
</svg>
