<svg width="1458" height="418" viewBox="0 0 1458 418" fill="none" xmlns="http://www.w3.org/2000/svg">
<mask id="path-1-inside-1_1470_7778" fill="white">
<path d="M416 210C416 154.835 394.086 101.929 355.078 62.9218C316.071 23.9142 263.165 2 208 2C152.835 2 99.9294 23.9142 60.9218 62.9218C21.9142 101.929 8.32969e-06 154.835 0 210L71.8413 210C71.8413 173.888 86.1865 139.256 111.721 113.721C137.256 88.1865 171.888 73.8413 208 73.8413C244.112 73.8413 278.744 88.1865 304.279 113.721C329.813 139.256 344.159 173.888 344.159 210H416Z"/>
</mask>
<path d="M416 210C416 154.835 394.086 101.929 355.078 62.9218C316.071 23.9142 263.165 2 208 2C152.835 2 99.9294 23.9142 60.9218 62.9218C21.9142 101.929 8.32969e-06 154.835 0 210L71.8413 210C71.8413 173.888 86.1865 139.256 111.721 113.721C137.256 88.1865 171.888 73.8413 208 73.8413C244.112 73.8413 278.744 88.1865 304.279 113.721C329.813 139.256 344.159 173.888 344.159 210H416Z" fill="#E6E8EE" stroke="#E6E8EE" stroke-width="2" mask="url(#path-1-inside-1_1470_7778)"/>
<mask id="path-2-inside-2_1470_7778" fill="white">
<path d="M1110 210C1110 154.835 1088.09 101.929 1049.08 62.9218C1010.07 23.9142 957.165 2 902 2C846.835 2 793.929 23.9142 754.922 62.9218C715.914 101.929 694 154.835 694 210L765.841 210C765.841 173.888 780.187 139.256 805.721 113.721C831.256 88.1865 865.888 73.8413 902 73.8413C938.112 73.8413 972.744 88.1865 998.279 113.721C1023.81 139.256 1038.16 173.888 1038.16 210H1110Z"/>
</mask>
<path d="M1110 210C1110 154.835 1088.09 101.929 1049.08 62.9218C1010.07 23.9142 957.165 2 902 2C846.835 2 793.929 23.9142 754.922 62.9218C715.914 101.929 694 154.835 694 210L765.841 210C765.841 173.888 780.187 139.256 805.721 113.721C831.256 88.1865 865.888 73.8413 902 73.8413C938.112 73.8413 972.744 88.1865 998.279 113.721C1023.81 139.256 1038.16 173.888 1038.16 210H1110Z" fill="#E6E8EE" stroke="#E6E8EE" stroke-width="2" mask="url(#path-2-inside-2_1470_7778)"/>
<mask id="path-3-inside-3_1470_7778" fill="white">
<path d="M348 208C348 263.165 369.914 316.071 408.922 355.078C447.929 394.086 500.835 416 556 416C611.165 416 664.071 394.086 703.078 355.078C742.086 316.071 764 263.165 764 208L692.159 208C692.159 244.112 677.813 278.744 652.279 304.279C626.744 329.813 592.112 344.159 556 344.159C519.888 344.159 485.256 329.813 459.721 304.279C434.187 278.744 419.841 244.112 419.841 208L348 208Z"/>
</mask>
<path d="M348 208C348 263.165 369.914 316.071 408.922 355.078C447.929 394.086 500.835 416 556 416C611.165 416 664.071 394.086 703.078 355.078C742.086 316.071 764 263.165 764 208L692.159 208C692.159 244.112 677.813 278.744 652.279 304.279C626.744 329.813 592.112 344.159 556 344.159C519.888 344.159 485.256 329.813 459.721 304.279C434.187 278.744 419.841 244.112 419.841 208L348 208Z" fill="#E6E8EE" stroke="#E6E8EE" stroke-width="2" mask="url(#path-3-inside-3_1470_7778)"/>
<mask id="path-4-inside-4_1470_7778" fill="white">
<path d="M1042 208C1042 263.165 1063.91 316.071 1102.92 355.078C1141.93 394.086 1194.83 416 1250 416C1305.17 416 1358.07 394.086 1397.08 355.078C1436.09 316.071 1458 263.165 1458 208L1386.16 208C1386.16 244.112 1371.81 278.744 1346.28 304.279C1320.74 329.813 1286.11 344.159 1250 344.159C1213.89 344.159 1179.26 329.813 1153.72 304.279C1128.19 278.744 1113.84 244.112 1113.84 208L1042 208Z"/>
</mask>
<path d="M1042 208C1042 263.165 1063.91 316.071 1102.92 355.078C1141.93 394.086 1194.83 416 1250 416C1305.17 416 1358.07 394.086 1397.08 355.078C1436.09 316.071 1458 263.165 1458 208L1386.16 208C1386.16 244.112 1371.81 278.744 1346.28 304.279C1320.74 329.813 1286.11 344.159 1250 344.159C1213.89 344.159 1179.26 329.813 1153.72 304.279C1128.19 278.744 1113.84 244.112 1113.84 208L1042 208Z" fill="#E6E8EE" stroke="#E6E8EE" stroke-width="2" mask="url(#path-4-inside-4_1470_7778)"/>
</svg>
