<svg width="475" height="89" viewBox="0 0 475 89" fill="none" xmlns="http://www.w3.org/2000/svg">
<path d="M169.232 56.5375H149.302L159.267 29.2179L169.232 56.5375ZM175.693 74.3143C176.565 76.8196 178.128 78.3397 180.38 78.8746C180.886 78.9872 181.379 79.0435 181.857 79.0435C183.49 79.0435 184.926 78.4946 186.164 77.3967C187.403 76.2989 188.022 74.8773 188.022 73.132C188.022 72.3156 187.867 71.4571 187.558 70.5562L170.288 26.3466C168.937 22.7433 167.374 20.3084 165.601 19.0416C163.855 17.7467 161.744 17.0993 159.267 17.0993C156.79 17.0993 154.664 17.7467 152.891 19.0416C151.146 20.3084 149.612 22.7433 148.288 26.3466L131.018 70.5562C130.681 71.4571 130.512 72.3297 130.512 73.1742C130.512 74.8914 131.131 76.2989 132.37 77.3967C133.608 78.4946 135.058 79.0435 136.719 79.0435C138.042 79.0435 139.252 78.6494 140.35 77.8612C141.476 77.073 142.307 75.8907 142.841 74.3143L146.262 64.9403H172.272L175.693 74.3143Z" fill="#0E50C4"/>
<path d="M205.729 78.9168C207.587 78.9168 209.022 78.3257 210.036 77.1434C211.077 75.9329 211.598 74.2158 211.598 71.9919V43.87H216.623C219.41 43.87 220.803 42.6595 220.803 40.2386C220.803 39.0845 220.451 38.1977 219.748 37.5784C219.072 36.931 218.115 36.6073 216.876 36.6073H211.598V34.3693C211.598 30.8787 211.95 28.6126 212.654 27.5711C213.386 26.5014 214.793 25.9665 216.876 25.9665H219.959C221.141 25.9665 222.056 25.5583 222.703 24.742C223.351 23.9256 223.675 22.9263 223.675 21.744C223.675 20.5617 223.337 19.5202 222.661 18.6194C221.986 17.6904 221.085 17.2259 219.959 17.2259H214.976C209.937 17.2259 206.151 18.4786 203.618 20.984C201.084 23.4893 199.817 27.5007 199.817 33.0181V36.6073H195.933C195.876 36.6073 195.848 36.6073 195.848 36.6073C194.919 36.6073 194.159 36.7902 193.568 37.1562C192.977 37.494 192.555 37.9303 192.301 38.4652C192.076 38.9719 191.963 39.563 191.963 40.2386C191.963 42.6032 193.371 43.8137 196.186 43.87H199.817V71.9919C199.817 74.2158 200.338 75.9329 201.38 77.1434C202.449 78.3257 203.899 78.9168 205.729 78.9168Z" fill="#0E50C4"/>
<path d="M234.034 78.9168C235.948 78.9168 237.412 78.3538 238.425 77.2278C239.439 76.1018 239.945 74.441 239.945 72.2453V55.4819C239.945 53.6521 240.255 52.0898 240.874 50.7949C241.522 49.4718 242.409 48.4725 243.535 47.7969C244.661 47.0932 245.857 46.5865 247.124 46.2768C248.419 45.9672 249.84 45.8123 251.388 45.8123C252.683 45.8123 253.711 45.3197 254.471 44.3344C255.259 43.3492 255.653 42.2091 255.653 40.9142C255.653 39.5912 255.245 38.4652 254.429 37.5362C253.64 36.6073 252.5 36.1428 251.008 36.1428C248.39 36.1428 246.082 37.0577 244.083 38.8874C242.085 40.7172 240.691 42.8706 239.903 45.3479L239.945 41.9698C239.974 40.2808 239.396 38.9578 238.214 38.0007C237.032 37.0154 235.638 36.5228 234.034 36.5228C232.457 36.5228 231.092 37.0154 229.938 38.0007C228.784 38.9578 228.207 40.3231 228.207 42.0965V72.0341C228.207 74.258 228.713 75.9611 229.727 77.1434C230.768 78.3257 232.204 78.9168 234.034 78.9168Z" fill="#0E50C4"/>
<path d="M268.757 78.9168C270.671 78.9168 272.121 78.3257 273.106 77.1434C274.12 75.9329 274.626 74.2017 274.626 71.9497V43.4899C274.626 41.2379 274.092 39.5208 273.022 38.3385C271.98 37.128 270.502 36.5228 268.588 36.5228C266.758 36.5228 265.337 37.128 264.323 38.3385C263.338 39.5208 262.846 41.2379 262.846 43.4899V71.9497C262.846 74.2298 263.352 75.9611 264.366 77.1434C265.379 78.3257 266.843 78.9168 268.757 78.9168ZM268.715 28.0356C270.714 28.0356 272.318 27.4726 273.529 26.3466C274.767 25.2205 275.386 23.7427 275.386 21.9129C275.386 20.0832 274.767 18.6053 273.529 17.4793C272.318 16.3251 270.728 15.748 268.757 15.748C266.758 15.748 265.14 16.3251 263.901 17.4793C262.691 18.6053 262.086 20.0832 262.086 21.9129C262.086 23.7427 262.691 25.2205 263.901 26.3466C265.112 27.4726 266.716 28.0356 268.715 28.0356Z" fill="#0E50C4"/>
<path d="M314.374 80.1836C321.665 80.1836 327.802 78.4523 332.785 74.9899C334.558 73.7231 335.445 72.1608 335.445 70.3029C335.445 69.4584 335.248 68.6561 334.854 67.8961C334.459 67.136 333.925 66.5308 333.249 66.0804C332.573 65.6018 331.842 65.3626 331.053 65.3626C330.772 65.3626 330.476 65.4048 330.167 65.4892C329.857 65.5737 329.561 65.6863 329.28 65.827C324.635 68.3042 320.201 69.5428 315.979 69.5428C310.433 69.5428 306.211 67.7131 303.311 64.0536C300.412 60.3941 298.962 55.1441 298.962 48.3036C298.962 34.0315 304.663 26.8955 316.063 26.8955C316.908 26.8955 317.752 26.9518 318.597 27.0644C319.47 27.177 320.216 27.3037 320.835 27.4444C321.454 27.557 322.172 27.7541 322.988 28.0356C323.805 28.2889 324.396 28.486 324.762 28.6267C325.128 28.7675 325.691 29.0067 326.451 29.3445C327.239 29.6542 327.703 29.8372 327.844 29.8935C328.182 30.0342 328.52 30.1468 328.858 30.2313C329.224 30.2876 329.561 30.3157 329.871 30.3157C331.279 30.3157 332.461 29.7949 333.418 28.7534C334.375 27.6837 334.854 26.4592 334.854 25.0798C334.854 24.4605 334.741 23.8693 334.516 23.3063C334.319 22.7433 333.981 22.1944 333.502 21.6596C333.052 21.0966 332.475 20.618 331.771 20.2239C326.817 17.5778 321.356 16.2547 315.388 16.2547C311.025 16.2547 306.971 17.0007 303.227 18.4927C299.511 19.9846 296.288 22.0959 293.557 24.8264C290.855 27.557 288.73 30.9632 287.181 35.0449C285.633 39.1267 284.859 43.6448 284.859 48.5992C284.859 53.4128 285.605 57.8183 287.097 61.8156C288.617 65.813 290.7 69.1487 293.346 71.823C295.992 74.4691 299.117 76.5241 302.72 77.9879C306.323 79.4517 310.208 80.1836 314.374 80.1836Z" fill="#0E50C4"/>
<path d="M342.173 67.3471C342.173 71.063 343.524 74.0046 346.226 76.1722C348.957 78.3397 352.419 79.4235 356.614 79.4235C359.654 79.4235 362.286 78.7761 364.51 77.4812C366.762 76.1863 368.366 74.3143 369.323 71.8652V73.0475C369.323 75.5247 370.252 77.27 372.11 78.2834C372.955 78.7338 373.842 78.959 374.77 78.959C376.206 78.959 377.459 78.4523 378.529 77.4389C379.598 76.3974 380.133 74.9477 380.133 73.0898V52.7795C380.133 49.7393 379.697 47.1213 378.824 44.9256C377.951 42.7017 376.699 40.9424 375.066 39.6475C373.462 38.3526 371.604 37.4095 369.492 36.8184C367.409 36.1991 365.031 35.8894 362.356 35.8894C356.473 35.8894 351.195 37.0014 346.522 39.2252C345.818 39.563 345.297 40.0275 344.96 40.6186C344.622 41.1816 344.453 41.815 344.453 42.5188C344.453 43.6166 344.819 44.6159 345.551 45.5168C346.283 46.4176 347.169 46.868 348.211 46.868C348.352 46.868 348.492 46.868 348.633 46.868C348.774 46.8398 348.915 46.8117 349.055 46.7835C349.224 46.7272 349.379 46.6709 349.52 46.6146C350.956 46.0235 352.096 45.5871 352.94 45.3056C353.785 44.996 355.08 44.6441 356.825 44.25C358.57 43.8559 360.217 43.6588 361.765 43.6588C366.551 43.6588 368.943 46.0798 368.943 50.9216V53.9618C365.565 53.9618 362.694 54.0322 360.329 54.1729C357.965 54.2855 355.713 54.5248 353.574 54.8907C351.462 55.2567 349.731 55.7493 348.38 56.3686C347.057 56.9879 345.903 57.8043 344.917 58.8177C343.932 59.8029 343.228 60.9993 342.806 62.4068C342.384 63.7862 342.173 65.4329 342.173 67.3471ZM358.556 72.4564C356.698 72.4564 355.22 71.9215 354.122 70.8518C353.053 69.7821 352.518 68.3042 352.518 66.4182C352.518 65.5455 352.616 64.7855 352.813 64.138C353.039 63.4624 353.334 62.8854 353.7 62.4068C354.094 61.9282 354.643 61.5341 355.347 61.2245C356.051 60.8867 356.783 60.6193 357.543 60.4222C358.331 60.2252 359.344 60.0703 360.583 59.9577C361.85 59.8451 363.088 59.7748 364.299 59.7466C365.537 59.7185 367.071 59.7044 368.901 59.7044V61.0978C368.901 62.7305 368.592 64.2788 367.972 65.7426C367.381 67.1782 366.593 68.3887 365.608 69.3739C364.622 70.331 363.51 71.0911 362.272 71.6541C361.061 72.1889 359.823 72.4564 358.556 72.4564Z" fill="#0E50C4"/>
<path d="M391.548 74.5254C396.277 77.8471 401.921 79.508 408.48 79.508C411.802 79.508 414.73 79.0294 417.263 78.0723C419.825 77.0871 421.866 75.567 423.386 73.512C424.906 71.457 425.666 68.9658 425.666 66.0382C425.666 64.2084 425.384 62.6038 424.821 61.2245C424.258 59.8451 423.372 58.6628 422.161 57.6776C420.979 56.6642 419.586 55.8197 417.981 55.1441C416.405 54.4403 414.462 53.7929 412.154 53.2017L405.905 51.6394C403.821 51.1327 402.386 50.5838 401.598 49.9926C400.809 49.3733 400.415 48.4444 400.415 47.2058C400.415 46.305 400.781 45.559 401.513 44.9678C402.273 44.3485 403.16 43.9263 404.173 43.7011C405.215 43.4759 406.341 43.3633 407.551 43.3633C410.31 43.3633 413.66 44.0529 417.601 45.4323C417.798 45.5168 417.939 45.5731 418.023 45.6012C418.333 45.7138 418.628 45.7983 418.91 45.8546C419.22 45.9109 419.515 45.939 419.797 45.939C420.81 45.939 421.626 45.6012 422.246 44.9256C422.865 44.2218 423.175 43.4055 423.175 42.4765C423.175 41.7446 422.964 41.055 422.541 40.4075C422.147 39.7319 421.528 39.1971 420.683 38.803C416.236 36.7199 411.661 35.6783 406.96 35.6783C404.427 35.6783 402.118 35.9457 400.035 36.4806C397.952 37.0154 396.151 37.7896 394.63 38.803C393.11 39.8164 391.928 41.0972 391.084 42.6454C390.267 44.1655 389.859 45.8827 389.859 47.7969C389.859 48.9792 389.972 50.0489 390.197 51.006C390.422 51.9631 390.704 52.8076 391.041 53.5395C391.407 54.2433 391.914 54.9048 392.561 55.5241C393.237 56.1434 393.913 56.6783 394.588 57.1287C395.264 57.5509 396.151 57.9872 397.248 58.4376C398.346 58.8599 399.374 59.2258 400.331 59.5355C401.316 59.817 402.555 60.1689 404.047 60.5911L410.338 62.2379C412.168 62.7164 413.533 63.3498 414.434 64.138C415.363 64.9262 415.827 65.827 415.827 66.8404C415.827 67.7694 415.574 68.5857 415.067 69.2895C414.589 69.9651 413.927 70.4859 413.083 70.8518C412.238 71.2178 411.338 71.4852 410.38 71.6541C409.452 71.7948 408.452 71.8652 407.382 71.8652C406.791 71.8652 406.2 71.8512 405.609 71.823C405.018 71.7667 404.441 71.6823 403.878 71.5696C403.343 71.4571 402.85 71.3585 402.4 71.2741C401.978 71.1615 401.513 71.0066 401.007 70.8096C400.5 70.6125 400.092 70.4577 399.782 70.3451C399.5 70.2325 399.106 70.0636 398.6 69.8384C398.121 69.5851 397.797 69.4162 397.628 69.3317C397.46 69.2473 397.136 69.0784 396.657 68.825C396.207 68.5435 395.954 68.3887 395.897 68.3605C395.137 67.9383 394.377 67.7272 393.617 67.7272C393.11 67.7272 392.618 67.8398 392.139 68.065C391.661 68.262 391.267 68.5435 390.957 68.9095C390.647 69.2754 390.394 69.6836 390.197 70.134C390.028 70.5844 389.944 71.0489 389.944 71.5274C389.944 72.1186 390.07 72.6816 390.324 73.2164C390.605 73.7231 391.013 74.1595 391.548 74.5254Z" fill="#0E50C4"/>
<path d="M474.999 51.8083C474.999 49.1059 474.591 46.7131 473.775 44.63C472.958 42.5188 471.832 40.8438 470.397 39.6052C468.961 38.3385 467.342 37.3955 465.541 36.7762C463.739 36.1287 461.783 35.805 459.671 35.805C456.49 35.805 453.746 36.3821 451.437 37.5362C449.129 38.6904 447.313 40.3371 445.99 42.4765V24.6998C445.99 22.5041 445.47 20.8151 444.428 19.6328C443.387 18.4505 441.909 17.8593 439.994 17.8593C438.165 17.8593 436.743 18.4505 435.73 19.6328C434.744 20.8151 434.252 22.5041 434.252 24.6998V72.0341C434.252 74.258 434.759 75.9611 435.772 77.1434C436.813 78.3257 438.249 78.9168 440.079 78.9168C441.993 78.9168 443.457 78.3257 444.47 77.1434C445.512 75.9611 446.033 74.258 446.033 72.0341V54.5952C446.033 51.3297 446.99 48.6836 448.904 46.6568C450.818 44.6019 453.098 43.5744 455.744 43.5744C457.94 43.5744 459.728 44.3204 461.107 45.8123C462.514 47.2761 463.218 49.3874 463.218 52.1461V72.0341C463.218 74.258 463.725 75.9611 464.738 77.1434C465.78 78.3257 467.216 78.9168 469.045 78.9168C470.96 78.9168 472.423 78.3257 473.437 77.1434C474.45 75.9611 474.957 74.258 474.957 72.0341L474.999 51.8083Z" fill="#0E50C4"/>
<path d="M70.0049 22.0469H77.3741C77.3707 19.1163 76.205 16.3067 74.1327 14.2345C72.0605 12.1623 69.2509 10.9966 66.3203 10.9932V18.3623C67.2972 18.3634 68.2337 18.752 68.9245 19.4427C69.6153 20.1335 70.0038 21.07 70.0049 22.0469Z" fill="#0E50C4"/>
<path d="M66.3203 0V7.36917C70.2278 7.37356 73.974 8.92775 76.7371 11.6908C79.5001 14.4538 81.0543 18.2 81.0587 22.1075H88.4278C88.4214 16.2462 86.0901 10.6268 81.9455 6.48228C77.801 2.33771 72.1816 0.00646115 66.3203 0V0Z" fill="#0E50C4"/>
<path d="M77.3859 44.2197H58.9629C57.0085 44.2197 55.1341 44.9961 53.7521 46.3781C52.3701 47.7601 51.5938 49.6345 51.5938 51.5889V58.9581C51.5938 60.9125 52.3701 62.7869 53.7521 64.1689C55.1341 65.5508 57.0085 66.3272 58.9629 66.3272H77.3859C78.3631 66.3272 79.3003 65.939 79.9913 65.2481C80.6823 64.5571 81.0704 63.6199 81.0704 62.6427V47.9043C81.0704 46.9271 80.6823 45.9899 79.9913 45.2989C79.3003 44.6079 78.3631 44.2197 77.3859 44.2197Z" fill="#0E50C4"/>
<path d="M47.8996 58.9562V51.587C47.903 48.6564 49.0687 45.8469 51.141 43.7746C53.2132 41.7024 56.0228 40.5367 58.9534 40.5333H73.6917V36.8487C73.6873 32.9412 72.1331 29.195 69.3701 26.432C66.6071 23.6689 62.8609 22.1147 58.9534 22.1104H3.68459C2.70737 22.1104 1.77018 22.4985 1.07919 23.1895C0.388196 23.8805 0 24.8177 0 25.7949L0 84.7483C0 85.7255 0.388196 86.6627 1.07919 87.3537C1.77018 88.0447 2.70737 88.4329 3.68459 88.4329H58.9534C62.8609 88.4285 66.6071 86.8743 69.3701 84.1113C72.1331 81.3483 73.6873 77.6021 73.6917 73.6946V70.01H58.9534C56.0228 70.0066 53.2132 68.8409 51.141 66.7686C49.0687 64.6964 47.903 61.8868 47.8996 58.9562ZM36.8459 47.9025H23.9498C23.4612 47.9025 22.9926 48.0965 22.6471 48.442C22.3016 48.7875 22.1075 49.2561 22.1075 49.7447C22.1075 50.2334 22.3016 50.702 22.6471 51.0474C22.9926 51.3929 23.4612 51.587 23.9498 51.587H27.6344C29.9188 51.5847 32.1225 52.4313 33.8177 53.9624C35.513 55.4936 36.5789 57.6 36.8085 59.8728C37.0381 62.1456 36.4149 64.4226 35.0601 66.2618C33.7053 68.101 31.7154 69.3712 29.4767 69.8257V73.6946H22.1075V70.01H14.7383V62.6408H27.6344C28.123 62.6408 28.5916 62.4467 28.9371 62.1012C29.2826 61.7557 29.4767 61.2871 29.4767 60.7985C29.4767 60.3099 29.2826 59.8413 28.9371 59.4958C28.5916 59.1503 28.123 58.9562 27.6344 58.9562H23.9498C21.6655 58.9585 19.4617 58.1119 17.7665 56.5808C16.0712 55.0497 15.0053 52.9433 14.7757 50.6705C14.5461 48.3977 15.1693 46.1207 16.5241 44.2815C17.8789 42.4423 19.8688 41.1721 22.1075 40.7175V36.8487H29.4767V40.5333H36.8459V47.9025Z" fill="#0E50C4"/>
<rect x="7.29688" y="33.4854" width="35.6296" height="46.3614" fill="#0E50C4"/>
</svg>
